<svg width="324" height="270" viewBox="0 0 324 270" fill="none" xmlns="http://www.w3.org/2000/svg">
<g filter="url(#filter0_d)">
<rect x="4" width="316" height="262" rx="10" fill="#F3F3F2"/>
</g>
<path d="M130.347 35.2C133.787 35.2 136.44 36.4 138.307 38.8C140.173 41.2 141.107 44.6133 141.107 49.04C141.107 53.8667 140.133 57.6267 138.187 60.32C136.267 62.9867 133.573 64.32 130.107 64.32C128.48 64.32 126.88 64.0133 125.307 63.4C123.76 62.7867 122.387 61.92 121.187 60.8L122.467 58.28C123.827 59.4267 125.12 60.2667 126.347 60.8C127.573 61.3067 128.813 61.56 130.067 61.56C132.52 61.56 134.413 60.4667 135.747 58.28C137.107 56.0933 137.787 53.0267 137.787 49.08V48.56C137.173 50.0533 136.173 51.24 134.787 52.12C133.4 52.9733 131.813 53.4 130.027 53.4C128.293 53.4 126.76 53.0267 125.427 52.28C124.093 51.5067 123.053 50.44 122.307 49.08C121.56 47.6933 121.187 46.12 121.187 44.36C121.187 42.6 121.573 41.0267 122.347 39.64C123.147 38.2533 124.24 37.1733 125.627 36.4C127.013 35.6 128.587 35.2 130.347 35.2ZM130.547 50.64C132.413 50.64 133.933 50.0533 135.107 48.88C136.28 47.7067 136.867 46.1867 136.867 44.32C136.867 42.4267 136.28 40.8933 135.107 39.72C133.933 38.5467 132.4 37.96 130.507 37.96C128.693 37.96 127.227 38.5467 126.107 39.72C124.987 40.8667 124.427 42.4 124.427 44.32C124.427 46.2133 124.987 47.7467 126.107 48.92C127.227 50.0667 128.707 50.64 130.547 50.64ZM156.411 46.12C158.198 46.12 159.758 46.5067 161.091 47.28C162.451 48.0267 163.491 49.08 164.211 50.44C164.931 51.8 165.291 53.3733 165.291 55.16C165.291 56.9467 164.891 58.5333 164.091 59.92C163.318 61.3067 162.198 62.3867 160.731 63.16C159.291 63.9067 157.598 64.28 155.651 64.28C153.918 64.28 152.211 63.9733 150.531 63.36C148.851 62.72 147.438 61.8533 146.291 60.76L147.531 58.24C150.171 60.4267 152.878 61.52 155.651 61.52C157.651 61.52 159.211 60.96 160.331 59.84C161.478 58.6933 162.051 57.1467 162.051 55.2C162.051 53.3067 161.491 51.7867 160.371 50.64C159.251 49.4667 157.758 48.88 155.891 48.88C153.171 48.88 150.998 49.9867 149.371 52.2H147.091V35.52H164.171V38.24H150.371V48.4C151.944 46.88 153.958 46.12 156.411 46.12ZM176.275 52.6C174.115 52.6 172.435 51.8667 171.235 50.4C170.035 48.9333 169.435 46.76 169.435 43.88C169.435 41.0267 170.035 38.8667 171.235 37.4C172.435 35.9333 174.115 35.2 176.275 35.2C178.435 35.2 180.115 35.9333 181.315 37.4C182.542 38.8667 183.155 41.0267 183.155 43.88C183.155 46.76 182.542 48.9333 181.315 50.4C180.115 51.8667 178.435 52.6 176.275 52.6ZM176.155 64L192.635 35.52H195.795L179.315 64H176.155ZM176.275 50.28C177.609 50.28 178.582 49.7733 179.195 48.76C179.835 47.72 180.155 46.0933 180.155 43.88C180.155 41.6933 179.835 40.0933 179.195 39.08C178.582 38.04 177.609 37.52 176.275 37.52C174.969 37.52 173.995 38.04 173.355 39.08C172.715 40.0933 172.395 41.6933 172.395 43.88C172.395 46.0933 172.715 47.72 173.355 48.76C173.995 49.7733 174.969 50.28 176.275 50.28ZM195.675 64.28C193.515 64.28 191.835 63.5467 190.635 62.08C189.435 60.6133 188.835 58.44 188.835 55.56C188.835 52.68 189.435 50.52 190.635 49.08C191.835 47.6133 193.515 46.88 195.675 46.88C197.835 46.88 199.515 47.6133 200.715 49.08C201.942 50.52 202.555 52.68 202.555 55.56C202.555 58.44 201.942 60.6133 200.715 62.08C199.515 63.5467 197.835 64.28 195.675 64.28ZM195.675 61.96C197.035 61.96 198.022 61.4533 198.635 60.44C199.275 59.4267 199.595 57.8 199.595 55.56C199.595 53.3733 199.275 51.7733 198.635 50.76C197.995 49.72 197.009 49.2 195.675 49.2C194.342 49.2 193.355 49.72 192.715 50.76C192.102 51.7733 191.795 53.3733 191.795 55.56C191.795 57.7733 192.102 59.4 192.715 60.44C193.355 61.4533 194.342 61.96 195.675 61.96Z" fill="#2C3E50"/>
<path d="M58.906 93.92C60.082 93.92 60.9873 94.3353 61.622 95.166C62.266 95.9967 62.588 97.1867 62.588 98.736C62.588 100.435 62.2567 101.755 61.594 102.698C60.9407 103.641 60.0213 104.112 58.836 104.112C58.276 104.112 57.7253 104.005 57.184 103.79C56.652 103.566 56.176 103.249 55.756 102.838L56.12 102.152C56.6053 102.572 57.0627 102.88 57.492 103.076C57.9307 103.263 58.3787 103.356 58.836 103.356C59.7413 103.356 60.446 102.95 60.95 102.138C61.4633 101.326 61.72 100.192 61.72 98.736V98.344C61.5147 98.932 61.1553 99.394 60.642 99.73C60.1287 100.066 59.5407 100.234 58.878 100.234C58.262 100.234 57.716 100.103 57.24 99.842C56.764 99.5713 56.3953 99.198 56.134 98.722C55.8727 98.246 55.742 97.7 55.742 97.084C55.742 96.4773 55.8773 95.936 56.148 95.46C56.4187 94.9747 56.792 94.5967 57.268 94.326C57.7533 94.0553 58.2993 93.92 58.906 93.92ZM58.948 99.464C59.4147 99.464 59.83 99.366 60.194 99.17C60.5673 98.9647 60.8567 98.68 61.062 98.316C61.2673 97.952 61.37 97.5413 61.37 97.084C61.37 96.3653 61.1413 95.7867 60.684 95.348C60.236 94.9 59.6527 94.676 58.934 94.676C58.2433 94.676 57.6833 94.8953 57.254 95.334C56.834 95.7727 56.624 96.356 56.624 97.084C56.624 97.7933 56.8387 98.3673 57.268 98.806C57.6973 99.2447 58.2573 99.464 58.948 99.464ZM67.9585 97.812C68.5932 97.812 69.1439 97.9427 69.6105 98.204C70.0772 98.4653 70.4365 98.834 70.6885 99.31C70.9405 99.786 71.0665 100.332 71.0665 100.948C71.0665 101.564 70.9312 102.11 70.6605 102.586C70.3992 103.062 70.0212 103.435 69.5265 103.706C69.0319 103.967 68.4579 104.098 67.8045 104.098C67.2165 104.098 66.6285 103.986 66.0405 103.762C65.4619 103.529 64.9719 103.216 64.5705 102.824L64.9345 102.138C65.8679 102.941 66.8292 103.342 67.8185 103.342C68.5465 103.342 69.1205 103.127 69.5405 102.698C69.9699 102.259 70.1845 101.676 70.1845 100.948C70.1845 100.248 69.9745 99.6787 69.5545 99.24C69.1345 98.792 68.5839 98.568 67.9025 98.568C67.3799 98.568 66.9225 98.6753 66.5305 98.89C66.1385 99.0953 65.7979 99.4173 65.5085 99.856H64.8365V94.032H70.6885V94.774H65.7045V98.75C65.9752 98.4513 66.3019 98.2227 66.6845 98.064C67.0765 97.896 67.5012 97.812 67.9585 97.812ZM74.9811 100.024C74.2437 100.024 73.6697 99.7673 73.2591 99.254C72.8484 98.7407 72.6431 97.98 72.6431 96.972C72.6431 95.964 72.8484 95.208 73.2591 94.704C73.6697 94.1907 74.2437 93.934 74.9811 93.934C75.7277 93.934 76.3064 94.1907 76.7171 94.704C77.1371 95.208 77.3471 95.964 77.3471 96.972C77.3471 97.98 77.1371 98.7407 76.7171 99.254C76.2971 99.7673 75.7184 100.024 74.9811 100.024ZM74.9951 104L80.7491 94.032H81.6451L75.8911 104H74.9951ZM74.9811 99.352C75.5037 99.352 75.8864 99.1607 76.1291 98.778C76.3811 98.3953 76.5071 97.7933 76.5071 96.972C76.5071 96.16 76.3811 95.5627 76.1291 95.18C75.8864 94.788 75.5037 94.592 74.9811 94.592C74.4771 94.592 74.0991 94.788 73.8471 95.18C73.5951 95.5627 73.4691 96.16 73.4691 96.972C73.4691 97.7933 73.5904 98.3953 73.8331 98.778C74.0851 99.1607 74.4677 99.352 74.9811 99.352ZM81.6451 104.098C80.9077 104.098 80.3291 103.841 79.9091 103.328C79.4984 102.815 79.2931 102.054 79.2931 101.046C79.2931 100.029 79.4984 99.268 79.9091 98.764C80.3197 98.26 80.8984 98.008 81.6451 98.008C82.3917 98.008 82.9704 98.26 83.3811 98.764C83.7917 99.268 83.9971 100.029 83.9971 101.046C83.9971 102.054 83.7871 102.815 83.3671 103.328C82.9564 103.841 82.3824 104.098 81.6451 104.098ZM81.6451 103.426C82.1584 103.426 82.5364 103.235 82.7791 102.852C83.0311 102.469 83.1571 101.867 83.1571 101.046C83.1571 100.234 83.0311 99.6367 82.7791 99.254C82.5364 98.8713 82.1584 98.68 81.6451 98.68C81.1317 98.68 80.7491 98.8713 80.4971 99.254C80.2544 99.6367 80.1331 100.234 80.1331 101.046C80.1331 101.867 80.2544 102.469 80.4971 102.852C80.7491 103.235 81.1317 103.426 81.6451 103.426ZM92.3484 104.098C91.7044 104.098 91.1351 103.949 90.6404 103.65C90.1551 103.351 89.7771 102.927 89.5064 102.376C89.2451 101.825 89.1144 101.186 89.1144 100.458C89.1144 99.73 89.2451 99.0907 89.5064 98.54C89.7771 97.9893 90.1551 97.5647 90.6404 97.266C91.1351 96.9673 91.7044 96.818 92.3484 96.818C92.9831 96.818 93.5431 96.9673 94.0284 97.266C94.5137 97.5647 94.8871 97.9893 95.1484 98.54C95.4191 99.0907 95.5544 99.73 95.5544 100.458C95.5544 101.186 95.4191 101.825 95.1484 102.376C94.8871 102.927 94.5137 103.351 94.0284 103.65C93.5431 103.949 92.9831 104.098 92.3484 104.098ZM92.3344 103.342C93.0811 103.342 93.6551 103.095 94.0564 102.6C94.4671 102.096 94.6724 101.382 94.6724 100.458C94.6724 99.5433 94.4671 98.834 94.0564 98.33C93.6457 97.8167 93.0764 97.56 92.3484 97.56C91.6111 97.56 91.0371 97.8167 90.6264 98.33C90.2157 98.834 90.0104 99.5433 90.0104 100.458C90.0104 101.391 90.2111 102.105 90.6124 102.6C91.0137 103.095 91.5877 103.342 92.3344 103.342ZM99.8457 94.41C99.4444 94.41 99.1364 94.5173 98.9217 94.732C98.7071 94.9467 98.5997 95.3293 98.5997 95.88V96.986H100.406V97.672H98.5997V104H97.7457V97.672H96.3737V96.986H97.7457V95.726C97.7457 95.026 97.9184 94.5033 98.2637 94.158C98.6091 93.8127 99.0851 93.64 99.6917 93.64C99.9717 93.64 100.261 93.6773 100.56 93.752V94.522C100.308 94.4473 100.07 94.41 99.8457 94.41ZM108.807 96.818C109.423 96.818 109.964 96.972 110.431 97.28C110.907 97.5787 111.276 98.008 111.537 98.568C111.798 99.1187 111.929 99.758 111.929 100.486C111.929 101.214 111.798 101.849 111.537 102.39C111.285 102.931 110.921 103.351 110.445 103.65C109.969 103.949 109.423 104.098 108.807 104.098C108.219 104.098 107.715 103.972 107.295 103.72C106.884 103.459 106.576 103.085 106.371 102.6V107.024H105.531V98.932C105.531 98.204 105.494 97.5553 105.419 96.986H106.231L106.343 98.358C106.548 97.8633 106.861 97.4853 107.281 97.224C107.71 96.9533 108.219 96.818 108.807 96.818ZM108.695 103.342C109.432 103.342 110.006 103.095 110.417 102.6C110.828 102.096 111.033 101.391 111.033 100.486C111.033 99.5713 110.828 98.8573 110.417 98.344C110.006 97.8213 109.437 97.56 108.709 97.56C107.962 97.56 107.388 97.812 106.987 98.316C106.586 98.82 106.385 99.534 106.385 100.458C106.385 101.373 106.586 102.082 106.987 102.586C107.388 103.09 107.958 103.342 108.695 103.342ZM119.753 96.986V104H118.899V102.656C118.693 103.123 118.381 103.482 117.961 103.734C117.55 103.977 117.055 104.098 116.477 104.098C115.851 104.098 115.301 103.953 114.825 103.664C114.358 103.365 113.994 102.945 113.733 102.404C113.481 101.853 113.355 101.214 113.355 100.486C113.355 99.758 113.485 99.1187 113.747 98.568C114.008 98.008 114.372 97.5787 114.839 97.28C115.315 96.972 115.861 96.818 116.477 96.818C117.046 96.818 117.536 96.9393 117.947 97.182C118.367 97.4247 118.684 97.7793 118.899 98.246V96.986H119.753ZM116.603 103.342C117.331 103.342 117.895 103.09 118.297 102.586C118.698 102.082 118.899 101.373 118.899 100.458C118.899 99.534 118.698 98.82 118.297 98.316C117.895 97.812 117.326 97.56 116.589 97.56C115.851 97.56 115.277 97.8213 114.867 98.344C114.456 98.8573 114.251 99.5713 114.251 100.486C114.251 101.391 114.456 102.096 114.867 102.6C115.277 103.095 115.856 103.342 116.603 103.342ZM125.098 96.818C125.331 96.818 125.537 96.8367 125.714 96.874L125.672 97.644C125.495 97.6067 125.28 97.588 125.028 97.588C124.319 97.588 123.787 97.8167 123.432 98.274C123.087 98.722 122.914 99.2587 122.914 99.884V104H122.074V98.932C122.074 98.204 122.037 97.5553 121.962 96.986H122.774L122.886 98.288C123.063 97.812 123.348 97.448 123.74 97.196C124.141 96.944 124.594 96.818 125.098 96.818ZM128.651 97.672V101.844C128.651 102.404 128.758 102.791 128.973 103.006C129.187 103.221 129.505 103.328 129.925 103.328C130.186 103.328 130.438 103.286 130.681 103.202V103.972C130.382 104.047 130.079 104.084 129.771 104.084C129.155 104.084 128.669 103.911 128.315 103.566C127.969 103.221 127.797 102.703 127.797 102.012V97.672H126.411V96.986H127.797V95.124L128.651 94.802V96.986H130.723V97.672H128.651ZM132.178 96.986H133.018V104H132.178V96.986ZM133.186 94.088V95.18H132.052V94.088H133.186ZM138.205 104.098C137.543 104.098 136.964 103.949 136.469 103.65C135.975 103.351 135.592 102.931 135.321 102.39C135.051 101.839 134.915 101.205 134.915 100.486C134.915 99.758 135.051 99.1187 135.321 98.568C135.592 98.008 135.979 97.5787 136.483 97.28C136.987 96.972 137.571 96.818 138.233 96.818C138.709 96.818 139.162 96.902 139.591 97.07C140.03 97.2287 140.389 97.4527 140.669 97.742L140.333 98.414C139.969 98.1153 139.619 97.9007 139.283 97.77C138.957 97.63 138.616 97.56 138.261 97.56C137.505 97.56 136.908 97.8213 136.469 98.344C136.031 98.8573 135.811 99.5713 135.811 100.486C135.811 101.382 136.026 102.082 136.455 102.586C136.894 103.09 137.496 103.342 138.261 103.342C138.616 103.342 138.957 103.277 139.283 103.146C139.619 103.006 139.969 102.791 140.333 102.502L140.669 103.16C140.371 103.449 139.997 103.678 139.549 103.846C139.111 104.014 138.663 104.098 138.205 104.098ZM142.226 96.986H143.066V104H142.226V96.986ZM143.234 94.088V95.18H142.1V94.088H143.234ZM148.688 96.818C149.304 96.818 149.845 96.972 150.312 97.28C150.788 97.5787 151.157 98.008 151.418 98.568C151.679 99.1187 151.81 99.758 151.81 100.486C151.81 101.214 151.679 101.849 151.418 102.39C151.166 102.931 150.802 103.351 150.326 103.65C149.85 103.949 149.304 104.098 148.688 104.098C148.1 104.098 147.596 103.972 147.176 103.72C146.765 103.459 146.457 103.085 146.252 102.6V107.024H145.412V98.932C145.412 98.204 145.375 97.5553 145.3 96.986H146.112L146.224 98.358C146.429 97.8633 146.742 97.4853 147.162 97.224C147.591 96.9533 148.1 96.818 148.688 96.818ZM148.576 103.342C149.313 103.342 149.887 103.095 150.298 102.6C150.709 102.096 150.914 101.391 150.914 100.486C150.914 99.5713 150.709 98.8573 150.298 98.344C149.887 97.8213 149.318 97.56 148.59 97.56C147.843 97.56 147.269 97.812 146.868 98.316C146.467 98.82 146.266 99.534 146.266 100.458C146.266 101.373 146.467 102.082 146.868 102.586C147.269 103.09 147.839 103.342 148.576 103.342ZM159.633 96.986V104H158.779V102.656C158.574 103.123 158.261 103.482 157.841 103.734C157.431 103.977 156.936 104.098 156.357 104.098C155.732 104.098 155.181 103.953 154.705 103.664C154.239 103.365 153.875 102.945 153.613 102.404C153.361 101.853 153.235 101.214 153.235 100.486C153.235 99.758 153.366 99.1187 153.627 98.568C153.889 98.008 154.253 97.5787 154.719 97.28C155.195 96.972 155.741 96.818 156.357 96.818C156.927 96.818 157.417 96.9393 157.827 97.182C158.247 97.4247 158.565 97.7793 158.779 98.246V96.986H159.633ZM156.483 103.342C157.211 103.342 157.776 103.09 158.177 102.586C158.579 102.082 158.779 101.373 158.779 100.458C158.779 99.534 158.579 98.82 158.177 98.316C157.776 97.812 157.207 97.56 156.469 97.56C155.732 97.56 155.158 97.8213 154.747 98.344C154.337 98.8573 154.131 99.5713 154.131 100.486C154.131 101.391 154.337 102.096 154.747 102.6C155.158 103.095 155.737 103.342 156.483 103.342ZM165.217 96.818C166.906 96.818 167.751 97.7233 167.751 99.534V104H166.897V99.59C166.897 98.89 166.752 98.3767 166.463 98.05C166.183 97.7233 165.74 97.56 165.133 97.56C164.433 97.56 163.868 97.7747 163.439 98.204C163.01 98.6333 162.795 99.212 162.795 99.94V104H161.955V98.932C161.955 98.204 161.918 97.5553 161.843 96.986H162.655L162.767 98.274C162.982 97.798 163.304 97.4387 163.733 97.196C164.162 96.944 164.657 96.818 165.217 96.818ZM171.239 97.672V101.844C171.239 102.404 171.346 102.791 171.561 103.006C171.775 103.221 172.093 103.328 172.513 103.328C172.774 103.328 173.026 103.286 173.269 103.202V103.972C172.97 104.047 172.667 104.084 172.359 104.084C171.743 104.084 171.257 103.911 170.903 103.566C170.557 103.221 170.385 102.703 170.385 102.012V97.672H168.999V96.986H170.385V95.124L171.239 94.802V96.986H173.311V97.672H171.239ZM177.048 104.098C175.909 104.098 175.008 103.785 174.346 103.16L174.654 102.502C175.027 102.81 175.4 103.029 175.774 103.16C176.156 103.291 176.595 103.356 177.09 103.356C177.668 103.356 178.107 103.258 178.406 103.062C178.714 102.857 178.868 102.563 178.868 102.18C178.868 101.863 178.765 101.615 178.56 101.438C178.364 101.251 178.037 101.102 177.58 100.99L176.39 100.724C175.83 100.593 175.386 100.36 175.06 100.024C174.742 99.688 174.584 99.296 174.584 98.848C174.584 98.232 174.817 97.742 175.284 97.378C175.76 97.0047 176.39 96.818 177.174 96.818C177.668 96.818 178.126 96.8973 178.546 97.056C178.975 97.2147 179.33 97.4433 179.61 97.742L179.288 98.4C178.644 97.84 177.939 97.56 177.174 97.56C176.632 97.56 176.212 97.6673 175.914 97.882C175.615 98.0967 175.466 98.3953 175.466 98.778C175.466 99.0953 175.559 99.352 175.746 99.548C175.942 99.744 176.24 99.8887 176.642 99.982L177.846 100.276C179.106 100.556 179.736 101.177 179.736 102.138C179.736 102.726 179.493 103.202 179.008 103.566C178.522 103.921 177.869 104.098 177.048 104.098ZM190.894 96.986V104H190.068V102.726C189.844 103.174 189.527 103.515 189.116 103.748C188.705 103.981 188.234 104.098 187.702 104.098C186.881 104.098 186.26 103.869 185.84 103.412C185.42 102.955 185.21 102.278 185.21 101.382V96.986H186.05V101.326C186.05 102.017 186.19 102.525 186.47 102.852C186.75 103.179 187.184 103.342 187.772 103.342C188.463 103.342 189.013 103.127 189.424 102.698C189.835 102.259 190.04 101.681 190.04 100.962V96.986H190.894ZM194.413 97.672V101.844C194.413 102.404 194.52 102.791 194.735 103.006C194.949 103.221 195.267 103.328 195.687 103.328C195.948 103.328 196.2 103.286 196.443 103.202V103.972C196.144 104.047 195.841 104.084 195.533 104.084C194.917 104.084 194.431 103.911 194.077 103.566C193.731 103.221 193.559 102.703 193.559 102.012V97.672H192.173V96.986H193.559V95.124L194.413 94.802V96.986H196.485V97.672H194.413ZM197.939 96.986H198.779V104H197.939V96.986ZM198.947 94.088V95.18H197.813V94.088H198.947ZM201.125 93.696H201.965V104H201.125V93.696ZM204.31 96.986H205.15V104H204.31V96.986ZM205.318 94.088V95.18H204.184V94.088H205.318ZM212.9 103.3V104H207.048V103.412L211.71 97.672H207.216V96.986H212.746V97.63L208.14 103.3H212.9ZM215.012 100.388V100.43C215.012 101.373 215.227 102.096 215.656 102.6C216.095 103.095 216.73 103.342 217.56 103.342C218.4 103.342 219.17 103.053 219.87 102.474L220.206 103.146C219.898 103.435 219.506 103.669 219.03 103.846C218.554 104.014 218.064 104.098 217.56 104.098C216.496 104.098 215.656 103.776 215.04 103.132C214.424 102.488 214.116 101.601 214.116 100.472C214.116 99.7533 214.252 99.1187 214.522 98.568C214.802 98.008 215.19 97.5787 215.684 97.28C216.179 96.972 216.748 96.818 217.392 96.818C218.316 96.818 219.035 97.1167 219.548 97.714C220.071 98.3113 220.332 99.142 220.332 100.206V100.388H215.012ZM217.392 97.518C216.748 97.518 216.226 97.714 215.824 98.106C215.423 98.4887 215.171 99.03 215.068 99.73H219.52C219.464 99.0113 219.254 98.4653 218.89 98.092C218.526 97.7093 218.027 97.518 217.392 97.518ZM228.576 104.098C227.914 104.098 227.335 103.949 226.84 103.65C226.346 103.351 225.963 102.931 225.692 102.39C225.422 101.839 225.286 101.205 225.286 100.486C225.286 99.758 225.422 99.1187 225.692 98.568C225.963 98.008 226.35 97.5787 226.854 97.28C227.358 96.972 227.942 96.818 228.604 96.818C229.08 96.818 229.533 96.902 229.962 97.07C230.401 97.2287 230.76 97.4527 231.04 97.742L230.704 98.414C230.34 98.1153 229.99 97.9007 229.654 97.77C229.328 97.63 228.987 97.56 228.632 97.56C227.876 97.56 227.279 97.8213 226.84 98.344C226.402 98.8573 226.182 99.5713 226.182 100.486C226.182 101.382 226.397 102.082 226.826 102.586C227.265 103.09 227.867 103.342 228.632 103.342C228.987 103.342 229.328 103.277 229.654 103.146C229.99 103.006 230.34 102.791 230.704 102.502L231.04 103.16C230.742 103.449 230.368 103.678 229.92 103.846C229.482 104.014 229.034 104.098 228.576 104.098ZM232.598 93.696H233.438V104H232.598V93.696ZM238.569 104.098C237.925 104.098 237.356 103.949 236.861 103.65C236.376 103.351 235.998 102.927 235.727 102.376C235.466 101.825 235.335 101.186 235.335 100.458C235.335 99.73 235.466 99.0907 235.727 98.54C235.998 97.9893 236.376 97.5647 236.861 97.266C237.356 96.9673 237.925 96.818 238.569 96.818C239.204 96.818 239.764 96.9673 240.249 97.266C240.734 97.5647 241.108 97.9893 241.369 98.54C241.64 99.0907 241.775 99.73 241.775 100.458C241.775 101.186 241.64 101.825 241.369 102.376C241.108 102.927 240.734 103.351 240.249 103.65C239.764 103.949 239.204 104.098 238.569 104.098ZM238.555 103.342C239.302 103.342 239.876 103.095 240.277 102.6C240.688 102.096 240.893 101.382 240.893 100.458C240.893 99.5433 240.688 98.834 240.277 98.33C239.866 97.8167 239.297 97.56 238.569 97.56C237.832 97.56 237.258 97.8167 236.847 98.33C236.436 98.834 236.231 99.5433 236.231 100.458C236.231 101.391 236.432 102.105 236.833 102.6C237.234 103.095 237.808 103.342 238.555 103.342ZM249.286 96.986V104H248.46V102.726C248.236 103.174 247.919 103.515 247.508 103.748C247.098 103.981 246.626 104.098 246.094 104.098C245.273 104.098 244.652 103.869 244.232 103.412C243.812 102.955 243.602 102.278 243.602 101.382V96.986H244.442V101.326C244.442 102.017 244.582 102.525 244.862 102.852C245.142 103.179 245.576 103.342 246.164 103.342C246.855 103.342 247.406 103.127 247.816 102.698C248.227 102.259 248.432 101.681 248.432 100.962V96.986H249.286ZM257.565 93.696V104H256.711V102.656C256.506 103.123 256.193 103.482 255.773 103.734C255.362 103.977 254.868 104.098 254.289 104.098C253.673 104.098 253.127 103.949 252.651 103.65C252.184 103.342 251.82 102.913 251.559 102.362C251.298 101.802 251.167 101.158 251.167 100.43C251.167 99.702 251.293 99.0673 251.545 98.526C251.806 97.9753 252.17 97.5553 252.637 97.266C253.113 96.9673 253.664 96.818 254.289 96.818C254.858 96.818 255.348 96.9393 255.759 97.182C256.179 97.4247 256.496 97.7793 256.711 98.246V93.696H257.565ZM254.401 103.342C255.138 103.342 255.708 103.09 256.109 102.586C256.51 102.082 256.711 101.373 256.711 100.458C256.711 99.5433 256.51 98.834 256.109 98.33C255.708 97.8167 255.143 97.56 254.415 97.56C253.668 97.56 253.09 97.812 252.679 98.316C252.268 98.82 252.063 99.5247 252.063 100.43C252.063 101.345 252.268 102.059 252.679 102.572C253.09 103.085 253.664 103.342 254.401 103.342ZM58.444 125.098C57.3053 125.098 56.4047 124.785 55.742 124.16L56.05 123.502C56.4233 123.81 56.7967 124.029 57.17 124.16C57.5527 124.291 57.9913 124.356 58.486 124.356C59.0647 124.356 59.5033 124.258 59.802 124.062C60.11 123.857 60.264 123.563 60.264 123.18C60.264 122.863 60.1613 122.615 59.956 122.438C59.76 122.251 59.4333 122.102 58.976 121.99L57.786 121.724C57.226 121.593 56.7827 121.36 56.456 121.024C56.1387 120.688 55.98 120.296 55.98 119.848C55.98 119.232 56.2133 118.742 56.68 118.378C57.156 118.005 57.786 117.818 58.57 117.818C59.0647 117.818 59.522 117.897 59.942 118.056C60.3713 118.215 60.726 118.443 61.006 118.742L60.684 119.4C60.04 118.84 59.3353 118.56 58.57 118.56C58.0287 118.56 57.6087 118.667 57.31 118.882C57.0113 119.097 56.862 119.395 56.862 119.778C56.862 120.095 56.9553 120.352 57.142 120.548C57.338 120.744 57.6367 120.889 58.038 120.982L59.242 121.276C60.502 121.556 61.132 122.177 61.132 123.138C61.132 123.726 60.8893 124.202 60.404 124.566C59.9187 124.921 59.2653 125.098 58.444 125.098ZM64.2016 118.672V122.844C64.2016 123.404 64.3089 123.791 64.5236 124.006C64.7383 124.221 65.0556 124.328 65.4756 124.328C65.7369 124.328 65.9889 124.286 66.2316 124.202V124.972C65.9329 125.047 65.6296 125.084 65.3216 125.084C64.7056 125.084 64.2203 124.911 63.8656 124.566C63.5203 124.221 63.3476 123.703 63.3476 123.012V118.672H61.9616V117.986H63.3476V116.124L64.2016 115.802V117.986H66.2736V118.672H64.2016ZM70.5144 125.098C69.8704 125.098 69.3011 124.949 68.8064 124.65C68.3211 124.351 67.9431 123.927 67.6724 123.376C67.4111 122.825 67.2804 122.186 67.2804 121.458C67.2804 120.73 67.4111 120.091 67.6724 119.54C67.9431 118.989 68.3211 118.565 68.8064 118.266C69.3011 117.967 69.8704 117.818 70.5144 117.818C71.1491 117.818 71.7091 117.967 72.1944 118.266C72.6797 118.565 73.0531 118.989 73.3144 119.54C73.5851 120.091 73.7204 120.73 73.7204 121.458C73.7204 122.186 73.5851 122.825 73.3144 123.376C73.0531 123.927 72.6797 124.351 72.1944 124.65C71.7091 124.949 71.1491 125.098 70.5144 125.098ZM70.5004 124.342C71.2471 124.342 71.8211 124.095 72.2224 123.6C72.6331 123.096 72.8384 122.382 72.8384 121.458C72.8384 120.543 72.6331 119.834 72.2224 119.33C71.8117 118.817 71.2424 118.56 70.5144 118.56C69.7771 118.56 69.2031 118.817 68.7924 119.33C68.3817 119.834 68.1764 120.543 68.1764 121.458C68.1764 122.391 68.3771 123.105 68.7784 123.6C69.1797 124.095 69.7537 124.342 70.5004 124.342ZM78.6137 117.818C78.8471 117.818 79.0524 117.837 79.2297 117.874L79.1877 118.644C79.0104 118.607 78.7957 118.588 78.5437 118.588C77.8344 118.588 77.3024 118.817 76.9477 119.274C76.6024 119.722 76.4297 120.259 76.4297 120.884V125H75.5897V119.932C75.5897 119.204 75.5524 118.555 75.4777 117.986H76.2897L76.4017 119.288C76.5791 118.812 76.8637 118.448 77.2557 118.196C77.6571 117.944 78.1097 117.818 78.6137 117.818ZM86.2839 117.986V125H85.4299V123.656C85.2245 124.123 84.9119 124.482 84.4919 124.734C84.0812 124.977 83.5865 125.098 83.0079 125.098C82.3825 125.098 81.8319 124.953 81.3559 124.664C80.8892 124.365 80.5252 123.945 80.2639 123.404C80.0119 122.853 79.8859 122.214 79.8859 121.486C79.8859 120.758 80.0165 120.119 80.2779 119.568C80.5392 119.008 80.9032 118.579 81.3699 118.28C81.8459 117.972 82.3919 117.818 83.0079 117.818C83.5772 117.818 84.0672 117.939 84.4779 118.182C84.8979 118.425 85.2152 118.779 85.4299 119.246V117.986H86.2839ZM83.1339 124.342C83.8619 124.342 84.4265 124.09 84.8279 123.586C85.2292 123.082 85.4299 122.373 85.4299 121.458C85.4299 120.534 85.2292 119.82 84.8279 119.316C84.4265 118.812 83.8572 118.56 83.1199 118.56C82.3825 118.56 81.8085 118.821 81.3979 119.344C80.9872 119.857 80.7819 120.571 80.7819 121.486C80.7819 122.391 80.9872 123.096 81.3979 123.6C81.8085 124.095 82.3872 124.342 83.1339 124.342ZM94.6114 117.986V125.028C94.6114 126.045 94.3594 126.815 93.8554 127.338C93.3514 127.861 92.6094 128.122 91.6294 128.122C90.584 128.122 89.674 127.87 88.8994 127.366L89.0674 126.624C89.5247 126.895 89.9447 127.086 90.3274 127.198C90.71 127.31 91.1487 127.366 91.6434 127.366C92.3434 127.366 92.8707 127.175 93.2254 126.792C93.5894 126.409 93.7714 125.849 93.7714 125.112V123.306C93.5567 123.782 93.2394 124.151 92.8194 124.412C92.3994 124.664 91.8954 124.79 91.3074 124.79C90.6914 124.79 90.1454 124.645 89.6694 124.356C89.1934 124.057 88.82 123.647 88.5494 123.124C88.288 122.592 88.1574 121.985 88.1574 121.304C88.1574 120.613 88.288 120.007 88.5494 119.484C88.82 118.952 89.1934 118.541 89.6694 118.252C90.1454 117.963 90.6914 117.818 91.3074 117.818C91.8954 117.818 92.3947 117.939 92.8054 118.182C93.2254 118.425 93.5427 118.779 93.7574 119.246V117.986H94.6114ZM91.4194 124.02C92.1474 124.02 92.7167 123.777 93.1274 123.292C93.5474 122.807 93.7574 122.144 93.7574 121.304C93.7574 120.455 93.5474 119.787 93.1274 119.302C92.7167 118.807 92.1474 118.56 91.4194 118.56C90.682 118.56 90.1034 118.807 89.6834 119.302C89.2634 119.787 89.0534 120.455 89.0534 121.304C89.0534 122.153 89.2634 122.821 89.6834 123.306C90.1034 123.782 90.682 124.02 91.4194 124.02ZM97.3795 121.388V121.43C97.3795 122.373 97.5942 123.096 98.0235 123.6C98.4622 124.095 99.0969 124.342 99.9275 124.342C100.768 124.342 101.538 124.053 102.238 123.474L102.574 124.146C102.266 124.435 101.874 124.669 101.398 124.846C100.922 125.014 100.432 125.098 99.9275 125.098C98.8635 125.098 98.0235 124.776 97.4075 124.132C96.7915 123.488 96.4835 122.601 96.4835 121.472C96.4835 120.753 96.6189 120.119 96.8895 119.568C97.1695 119.008 97.5569 118.579 98.0515 118.28C98.5462 117.972 99.1155 117.818 99.7595 117.818C100.684 117.818 101.402 118.117 101.916 118.714C102.438 119.311 102.7 120.142 102.7 121.206V121.388H97.3795ZM99.7595 118.518C99.1155 118.518 98.5929 118.714 98.1915 119.106C97.7902 119.489 97.5382 120.03 97.4355 120.73H101.888C101.832 120.011 101.622 119.465 101.258 119.092C100.894 118.709 100.394 118.518 99.7595 118.518ZM110.887 125.098C110.243 125.098 109.674 124.949 109.179 124.65C108.694 124.351 108.316 123.927 108.045 123.376C107.784 122.825 107.653 122.186 107.653 121.458C107.653 120.73 107.784 120.091 108.045 119.54C108.316 118.989 108.694 118.565 109.179 118.266C109.674 117.967 110.243 117.818 110.887 117.818C111.522 117.818 112.082 117.967 112.567 118.266C113.053 118.565 113.426 118.989 113.687 119.54C113.958 120.091 114.093 120.73 114.093 121.458C114.093 122.186 113.958 122.825 113.687 123.376C113.426 123.927 113.053 124.351 112.567 124.65C112.082 124.949 111.522 125.098 110.887 125.098ZM110.873 124.342C111.62 124.342 112.194 124.095 112.595 123.6C113.006 123.096 113.211 122.382 113.211 121.458C113.211 120.543 113.006 119.834 112.595 119.33C112.185 118.817 111.615 118.56 110.887 118.56C110.15 118.56 109.576 118.817 109.165 119.33C108.755 119.834 108.549 120.543 108.549 121.458C108.549 122.391 108.75 123.105 109.151 123.6C109.553 124.095 110.127 124.342 110.873 124.342ZM119.225 117.818C120.914 117.818 121.759 118.723 121.759 120.534V125H120.905V120.59C120.905 119.89 120.76 119.377 120.471 119.05C120.191 118.723 119.747 118.56 119.141 118.56C118.441 118.56 117.876 118.775 117.447 119.204C117.017 119.633 116.803 120.212 116.803 120.94V125H115.963V119.932C115.963 119.204 115.925 118.555 115.851 117.986H116.663L116.775 119.274C116.989 118.798 117.311 118.439 117.741 118.196C118.17 117.944 118.665 117.818 119.225 117.818ZM133.575 117.986V125H132.721V123.656C132.516 124.123 132.203 124.482 131.783 124.734C131.372 124.977 130.878 125.098 130.299 125.098C129.674 125.098 129.123 124.953 128.647 124.664C128.18 124.365 127.816 123.945 127.555 123.404C127.303 122.853 127.177 122.214 127.177 121.486C127.177 120.758 127.308 120.119 127.569 119.568C127.83 119.008 128.194 118.579 128.661 118.28C129.137 117.972 129.683 117.818 130.299 117.818C130.868 117.818 131.358 117.939 131.769 118.182C132.189 118.425 132.506 118.779 132.721 119.246V117.986H133.575ZM130.425 124.342C131.153 124.342 131.718 124.09 132.119 123.586C132.52 123.082 132.721 122.373 132.721 121.458C132.721 120.534 132.52 119.82 132.119 119.316C131.718 118.812 131.148 118.56 130.411 118.56C129.674 118.56 129.1 118.821 128.689 119.344C128.278 119.857 128.073 120.571 128.073 121.486C128.073 122.391 128.278 123.096 128.689 123.6C129.1 124.095 129.678 124.342 130.425 124.342ZM150.511 117.93L147.739 125H146.213L144.463 120.366L142.755 125H141.215L138.443 117.93H140.235L142.055 122.914L143.889 117.93H145.149L146.983 122.956L148.803 117.93H150.511ZM157.679 121.556H152.807C152.844 122.312 153.031 122.872 153.367 123.236C153.712 123.591 154.221 123.768 154.893 123.768C155.668 123.768 156.386 123.516 157.049 123.012L157.553 124.216C157.217 124.487 156.802 124.706 156.307 124.874C155.822 125.033 155.327 125.112 154.823 125.112C153.666 125.112 152.756 124.785 152.093 124.132C151.43 123.479 151.099 122.583 151.099 121.444C151.099 120.725 151.244 120.086 151.533 119.526C151.822 118.966 152.228 118.532 152.751 118.224C153.274 117.907 153.866 117.748 154.529 117.748C155.5 117.748 156.265 118.065 156.825 118.7C157.394 119.325 157.679 120.189 157.679 121.29V121.556ZM154.571 119.008C154.104 119.008 153.722 119.148 153.423 119.428C153.134 119.699 152.947 120.095 152.863 120.618H156.153C156.097 120.086 155.934 119.685 155.663 119.414C155.402 119.143 155.038 119.008 154.571 119.008ZM165.349 121.556H160.477C160.514 122.312 160.701 122.872 161.037 123.236C161.382 123.591 161.891 123.768 162.563 123.768C163.338 123.768 164.056 123.516 164.719 123.012L165.223 124.216C164.887 124.487 164.472 124.706 163.977 124.874C163.492 125.033 162.997 125.112 162.493 125.112C161.336 125.112 160.426 124.785 159.763 124.132C159.1 123.479 158.769 122.583 158.769 121.444C158.769 120.725 158.914 120.086 159.203 119.526C159.492 118.966 159.898 118.532 160.421 118.224C160.944 117.907 161.536 117.748 162.199 117.748C163.17 117.748 163.935 118.065 164.495 118.7C165.064 119.325 165.349 120.189 165.349 121.29V121.556ZM162.241 119.008C161.774 119.008 161.392 119.148 161.093 119.428C160.804 119.699 160.617 120.095 160.533 120.618H163.823C163.767 120.086 163.604 119.685 163.333 119.414C163.072 119.143 162.708 119.008 162.241 119.008ZM171.661 125L168.567 121.738V125H166.831V114.696H168.567V121.052L171.479 117.944H173.593L170.415 121.318L173.845 125H171.661ZM174.542 114.696H176.278V125H174.542V114.696ZM184.884 117.93L181.594 125.476C181.221 126.353 180.745 126.993 180.166 127.394C179.588 127.795 178.874 128.061 178.024 128.192L177.632 126.848C178.295 126.699 178.79 126.507 179.116 126.274C179.452 126.05 179.723 125.714 179.928 125.266L180.152 124.748L177.212 117.93H179.046L181.076 123.012L183.148 117.93H184.884ZM192.848 117.818C193.464 117.818 194.01 117.967 194.486 118.266C194.962 118.565 195.326 118.985 195.578 119.526C195.839 120.067 195.97 120.702 195.97 121.43C195.97 122.158 195.839 122.802 195.578 123.362C195.317 123.913 194.948 124.342 194.472 124.65C194.005 124.949 193.464 125.098 192.848 125.098C192.269 125.098 191.77 124.972 191.35 124.72C190.939 124.468 190.631 124.104 190.426 123.628V125H189.572V114.696H190.412V119.302C190.617 118.817 190.93 118.448 191.35 118.196C191.77 117.944 192.269 117.818 192.848 117.818ZM192.75 124.342C193.478 124.342 194.047 124.085 194.458 123.572C194.869 123.059 195.074 122.345 195.074 121.43C195.074 120.525 194.869 119.82 194.458 119.316C194.047 118.812 193.473 118.56 192.736 118.56C191.999 118.56 191.429 118.812 191.028 119.316C190.627 119.82 190.426 120.534 190.426 121.458C190.426 122.382 190.627 123.096 191.028 123.6C191.429 124.095 192.003 124.342 192.75 124.342ZM203.794 117.986V125H202.94V123.656C202.734 124.123 202.422 124.482 202.002 124.734C201.591 124.977 201.096 125.098 200.518 125.098C199.892 125.098 199.342 124.953 198.866 124.664C198.399 124.365 198.035 123.945 197.774 123.404C197.522 122.853 197.396 122.214 197.396 121.486C197.396 120.758 197.526 120.119 197.788 119.568C198.049 119.008 198.413 118.579 198.88 118.28C199.356 117.972 199.902 117.818 200.518 117.818C201.087 117.818 201.577 117.939 201.988 118.182C202.408 118.425 202.725 118.779 202.94 119.246V117.986H203.794ZM200.644 124.342C201.372 124.342 201.936 124.09 202.338 123.586C202.739 123.082 202.94 122.373 202.94 121.458C202.94 120.534 202.739 119.82 202.338 119.316C201.936 118.812 201.367 118.56 200.63 118.56C199.892 118.56 199.318 118.821 198.908 119.344C198.497 119.857 198.292 120.571 198.292 121.486C198.292 122.391 198.497 123.096 198.908 123.6C199.318 124.095 199.897 124.342 200.644 124.342ZM208.397 125.098C207.258 125.098 206.358 124.785 205.695 124.16L206.003 123.502C206.376 123.81 206.75 124.029 207.123 124.16C207.506 124.291 207.944 124.356 208.439 124.356C209.018 124.356 209.456 124.258 209.755 124.062C210.063 123.857 210.217 123.563 210.217 123.18C210.217 122.863 210.114 122.615 209.909 122.438C209.713 122.251 209.386 122.102 208.929 121.99L207.739 121.724C207.179 121.593 206.736 121.36 206.409 121.024C206.092 120.688 205.933 120.296 205.933 119.848C205.933 119.232 206.166 118.742 206.633 118.378C207.109 118.005 207.739 117.818 208.523 117.818C209.018 117.818 209.475 117.897 209.895 118.056C210.324 118.215 210.679 118.443 210.959 118.742L210.637 119.4C209.993 118.84 209.288 118.56 208.523 118.56C207.982 118.56 207.562 118.667 207.263 118.882C206.964 119.097 206.815 119.395 206.815 119.778C206.815 120.095 206.908 120.352 207.095 120.548C207.291 120.744 207.59 120.889 207.991 120.982L209.195 121.276C210.455 121.556 211.085 122.177 211.085 123.138C211.085 123.726 210.842 124.202 210.357 124.566C209.872 124.921 209.218 125.098 208.397 125.098ZM213.033 117.986H213.873V125H213.033V117.986ZM214.041 115.088V116.18H212.907V115.088H214.041ZM218.501 125.098C217.362 125.098 216.461 124.785 215.799 124.16L216.107 123.502C216.48 123.81 216.853 124.029 217.227 124.16C217.609 124.291 218.048 124.356 218.543 124.356C219.121 124.356 219.56 124.258 219.859 124.062C220.167 123.857 220.321 123.563 220.321 123.18C220.321 122.863 220.218 122.615 220.013 122.438C219.817 122.251 219.49 122.102 219.033 121.99L217.843 121.724C217.283 121.593 216.839 121.36 216.513 121.024C216.195 120.688 216.037 120.296 216.037 119.848C216.037 119.232 216.27 118.742 216.737 118.378C217.213 118.005 217.843 117.818 218.627 117.818C219.121 117.818 219.579 117.897 219.999 118.056C220.428 118.215 220.783 118.443 221.063 118.742L220.741 119.4C220.097 118.84 219.392 118.56 218.627 118.56C218.085 118.56 217.665 118.667 217.367 118.882C217.068 119.097 216.919 119.395 216.919 119.778C216.919 120.095 217.012 120.352 217.199 120.548C217.395 120.744 217.693 120.889 218.095 120.982L219.299 121.276C220.559 121.556 221.189 122.177 221.189 123.138C221.189 123.726 220.946 124.202 220.461 124.566C219.975 124.921 219.322 125.098 218.501 125.098ZM224.062 123.782V125H222.872V123.782H224.062ZM233.142 118.812C233.777 118.812 234.327 118.943 234.794 119.204C235.261 119.465 235.62 119.834 235.872 120.31C236.124 120.786 236.25 121.332 236.25 121.948C236.25 122.564 236.115 123.11 235.844 123.586C235.583 124.062 235.205 124.435 234.71 124.706C234.215 124.967 233.641 125.098 232.988 125.098C232.4 125.098 231.812 124.986 231.224 124.762C230.645 124.529 230.155 124.216 229.754 123.824L230.118 123.138C231.051 123.941 232.013 124.342 233.002 124.342C233.73 124.342 234.304 124.127 234.724 123.698C235.153 123.259 235.368 122.676 235.368 121.948C235.368 121.248 235.158 120.679 234.738 120.24C234.318 119.792 233.767 119.568 233.086 119.568C232.563 119.568 232.106 119.675 231.714 119.89C231.322 120.095 230.981 120.417 230.692 120.856H230.02V115.032H235.872V115.774H230.888V119.75C231.159 119.451 231.485 119.223 231.868 119.064C232.26 118.896 232.685 118.812 233.142 118.812ZM241.509 118.798C242.125 118.798 242.671 118.933 243.147 119.204C243.623 119.465 243.991 119.834 244.253 120.31C244.514 120.786 244.645 121.332 244.645 121.948C244.645 122.555 244.509 123.101 244.239 123.586C243.968 124.062 243.59 124.435 243.105 124.706C242.629 124.977 242.087 125.112 241.481 125.112C240.305 125.112 239.395 124.697 238.751 123.866C238.116 123.035 237.799 121.845 237.799 120.296C237.799 118.597 238.125 117.277 238.779 116.334C239.441 115.391 240.365 114.92 241.551 114.92C242.111 114.92 242.657 115.032 243.189 115.256C243.73 115.471 244.211 115.783 244.631 116.194L244.267 116.88C243.791 116.469 243.333 116.166 242.895 115.97C242.456 115.774 242.008 115.676 241.551 115.676C240.645 115.676 239.936 116.082 239.423 116.894C238.919 117.706 238.667 118.84 238.667 120.296V120.674C238.872 120.095 239.231 119.638 239.745 119.302C240.258 118.966 240.846 118.798 241.509 118.798ZM241.453 124.356C242.143 124.356 242.699 124.137 243.119 123.698C243.548 123.259 243.763 122.676 243.763 121.948C243.763 121.239 243.548 120.665 243.119 120.226C242.689 119.787 242.129 119.568 241.439 119.568C240.972 119.568 240.552 119.671 240.179 119.876C239.815 120.072 239.53 120.352 239.325 120.716C239.119 121.08 239.017 121.491 239.017 121.948C239.017 122.667 239.241 123.25 239.689 123.698C240.146 124.137 240.734 124.356 241.453 124.356ZM248.559 121.024C247.822 121.024 247.248 120.767 246.837 120.254C246.427 119.741 246.221 118.98 246.221 117.972C246.221 116.964 246.427 116.208 246.837 115.704C247.248 115.191 247.822 114.934 248.559 114.934C249.306 114.934 249.885 115.191 250.295 115.704C250.715 116.208 250.925 116.964 250.925 117.972C250.925 118.98 250.715 119.741 250.295 120.254C249.875 120.767 249.297 121.024 248.559 121.024ZM248.573 125L254.327 115.032H255.223L249.469 125H248.573ZM248.559 120.352C249.082 120.352 249.465 120.161 249.707 119.778C249.959 119.395 250.085 118.793 250.085 117.972C250.085 117.16 249.959 116.563 249.707 116.18C249.465 115.788 249.082 115.592 248.559 115.592C248.055 115.592 247.677 115.788 247.425 116.18C247.173 116.563 247.047 117.16 247.047 117.972C247.047 118.793 247.169 119.395 247.411 119.778C247.663 120.161 248.046 120.352 248.559 120.352ZM255.223 125.098C254.486 125.098 253.907 124.841 253.487 124.328C253.077 123.815 252.871 123.054 252.871 122.046C252.871 121.029 253.077 120.268 253.487 119.764C253.898 119.26 254.477 119.008 255.223 119.008C255.97 119.008 256.549 119.26 256.959 119.764C257.37 120.268 257.575 121.029 257.575 122.046C257.575 123.054 257.365 123.815 256.945 124.328C256.535 124.841 255.961 125.098 255.223 125.098ZM255.223 124.426C255.737 124.426 256.115 124.235 256.357 123.852C256.609 123.469 256.735 122.867 256.735 122.046C256.735 121.234 256.609 120.637 256.357 120.254C256.115 119.871 255.737 119.68 255.223 119.68C254.71 119.68 254.327 119.871 254.075 120.254C253.833 120.637 253.711 121.234 253.711 122.046C253.711 122.867 253.833 123.469 254.075 123.852C254.327 124.235 254.71 124.426 255.223 124.426ZM61.804 138.986V146H60.978V144.726C60.754 145.174 60.4367 145.515 60.026 145.748C59.6153 145.981 59.144 146.098 58.612 146.098C57.7907 146.098 57.17 145.869 56.75 145.412C56.33 144.955 56.12 144.278 56.12 143.382V138.986H56.96V143.326C56.96 144.017 57.1 144.525 57.38 144.852C57.66 145.179 58.094 145.342 58.682 145.342C59.3727 145.342 59.9233 145.127 60.334 144.698C60.7447 144.259 60.95 143.681 60.95 142.962V138.986H61.804ZM66.4147 146.098C65.276 146.098 64.3754 145.785 63.7127 145.16L64.0207 144.502C64.394 144.81 64.7674 145.029 65.1407 145.16C65.5234 145.291 65.962 145.356 66.4567 145.356C67.0354 145.356 67.474 145.258 67.7727 145.062C68.0807 144.857 68.2347 144.563 68.2347 144.18C68.2347 143.863 68.132 143.615 67.9267 143.438C67.7307 143.251 67.404 143.102 66.9467 142.99L65.7567 142.724C65.1967 142.593 64.7534 142.36 64.4267 142.024C64.1094 141.688 63.9507 141.296 63.9507 140.848C63.9507 140.232 64.184 139.742 64.6507 139.378C65.1267 139.005 65.7567 138.818 66.5407 138.818C67.0354 138.818 67.4927 138.897 67.9127 139.056C68.342 139.215 68.6967 139.443 68.9767 139.742L68.6547 140.4C68.0107 139.84 67.306 139.56 66.5407 139.56C65.9994 139.56 65.5794 139.667 65.2807 139.882C64.982 140.097 64.8327 140.395 64.8327 140.778C64.8327 141.095 64.926 141.352 65.1127 141.548C65.3087 141.744 65.6074 141.889 66.0087 141.982L67.2127 142.276C68.4727 142.556 69.1027 143.177 69.1027 144.138C69.1027 144.726 68.86 145.202 68.3747 145.566C67.8894 145.921 67.236 146.098 66.4147 146.098ZM71.4987 142.388V142.43C71.4987 143.373 71.7133 144.096 72.1427 144.6C72.5813 145.095 73.216 145.342 74.0467 145.342C74.8867 145.342 75.6567 145.053 76.3567 144.474L76.6927 145.146C76.3847 145.435 75.9927 145.669 75.5167 145.846C75.0407 146.014 74.5507 146.098 74.0467 146.098C72.9827 146.098 72.1427 145.776 71.5267 145.132C70.9107 144.488 70.6027 143.601 70.6027 142.472C70.6027 141.753 70.738 141.119 71.0087 140.568C71.2887 140.008 71.676 139.579 72.1707 139.28C72.6653 138.972 73.2347 138.818 73.8787 138.818C74.8027 138.818 75.5213 139.117 76.0347 139.714C76.5573 140.311 76.8187 141.142 76.8187 142.206V142.388H71.4987ZM73.8787 139.518C73.2347 139.518 72.712 139.714 72.3107 140.106C71.9093 140.489 71.6573 141.03 71.5547 141.73H76.0067C75.9507 141.011 75.7407 140.465 75.3767 140.092C75.0127 139.709 74.5133 139.518 73.8787 139.518ZM83.4106 139.672V143.844C83.4106 144.404 83.5179 144.791 83.7326 145.006C83.9473 145.221 84.2646 145.328 84.6846 145.328C84.9459 145.328 85.1979 145.286 85.4406 145.202V145.972C85.1419 146.047 84.8386 146.084 84.5306 146.084C83.9146 146.084 83.4293 145.911 83.0746 145.566C82.7293 145.221 82.5566 144.703 82.5566 144.012V139.672H81.1706V138.986H82.5566V137.124L83.4106 136.802V138.986H85.4826V139.672H83.4106ZM90.1994 138.818C91.8887 138.818 92.7334 139.723 92.7334 141.534V146H91.8794V141.59C91.8794 140.89 91.7347 140.377 91.4454 140.05C91.1654 139.723 90.7221 139.56 90.1154 139.56C89.4154 139.56 88.8507 139.775 88.4214 140.204C87.9921 140.633 87.7774 141.212 87.7774 141.94V146H86.9374V135.696H87.7774V140.204C88.0014 139.747 88.3234 139.401 88.7434 139.168C89.1634 138.935 89.6487 138.818 90.1994 138.818ZM95.4791 142.388V142.43C95.4791 143.373 95.6938 144.096 96.1231 144.6C96.5618 145.095 97.1965 145.342 98.0271 145.342C98.8671 145.342 99.6371 145.053 100.337 144.474L100.673 145.146C100.365 145.435 99.9731 145.669 99.4971 145.846C99.0211 146.014 98.5311 146.098 98.0271 146.098C96.9631 146.098 96.1231 145.776 95.5071 145.132C94.8911 144.488 94.5831 143.601 94.5831 142.472C94.5831 141.753 94.7185 141.119 94.9891 140.568C95.2691 140.008 95.6565 139.579 96.1511 139.28C96.6458 138.972 97.2151 138.818 97.8591 138.818C98.7831 138.818 99.5018 139.117 100.015 139.714C100.538 140.311 100.799 141.142 100.799 142.206V142.388H95.4791ZM97.8591 139.518C97.2151 139.518 96.6925 139.714 96.2911 140.106C95.8898 140.489 95.6378 141.03 95.5351 141.73H99.9871C99.9311 141.011 99.7211 140.465 99.3571 140.092C98.9931 139.709 98.4938 139.518 97.8591 139.518ZM110.193 138.818C111.742 138.818 112.517 139.723 112.517 141.534V146H111.663V141.59C111.663 140.881 111.537 140.367 111.285 140.05C111.033 139.723 110.631 139.56 110.081 139.56C109.437 139.56 108.928 139.775 108.555 140.204C108.191 140.633 108.009 141.217 108.009 141.954V146H107.155V141.59C107.155 140.881 107.024 140.367 106.763 140.05C106.511 139.723 106.109 139.56 105.559 139.56C104.924 139.56 104.415 139.775 104.033 140.204C103.659 140.633 103.473 141.217 103.473 141.954V146H102.633V140.932C102.633 140.204 102.595 139.555 102.521 138.986H103.333L103.445 140.246C103.641 139.779 103.93 139.425 104.313 139.182C104.705 138.939 105.157 138.818 105.671 138.818C106.8 138.818 107.523 139.275 107.841 140.19C108.037 139.761 108.34 139.425 108.751 139.182C109.171 138.939 109.651 138.818 110.193 138.818ZM124.319 135.696V146H123.465V144.656C123.26 145.123 122.947 145.482 122.527 145.734C122.116 145.977 121.622 146.098 121.043 146.098C120.427 146.098 119.881 145.949 119.405 145.65C118.938 145.342 118.574 144.913 118.313 144.362C118.052 143.802 117.921 143.158 117.921 142.43C117.921 141.702 118.047 141.067 118.299 140.526C118.56 139.975 118.924 139.555 119.391 139.266C119.867 138.967 120.418 138.818 121.043 138.818C121.612 138.818 122.102 138.939 122.513 139.182C122.933 139.425 123.25 139.779 123.465 140.246V135.696H124.319ZM121.155 145.342C121.892 145.342 122.462 145.09 122.863 144.586C123.264 144.082 123.465 143.373 123.465 142.458C123.465 141.543 123.264 140.834 122.863 140.33C122.462 139.817 121.897 139.56 121.169 139.56C120.422 139.56 119.844 139.812 119.433 140.316C119.022 140.82 118.817 141.525 118.817 142.43C118.817 143.345 119.022 144.059 119.433 144.572C119.844 145.085 120.418 145.342 121.155 145.342ZM132.591 138.986V146H131.737V144.656C131.531 145.123 131.219 145.482 130.799 145.734C130.388 145.977 129.893 146.098 129.315 146.098C128.689 146.098 128.139 145.953 127.663 145.664C127.196 145.365 126.832 144.945 126.571 144.404C126.319 143.853 126.193 143.214 126.193 142.486C126.193 141.758 126.323 141.119 126.585 140.568C126.846 140.008 127.21 139.579 127.677 139.28C128.153 138.972 128.699 138.818 129.315 138.818C129.884 138.818 130.374 138.939 130.785 139.182C131.205 139.425 131.522 139.779 131.737 140.246V138.986H132.591ZM129.441 145.342C130.169 145.342 130.733 145.09 131.135 144.586C131.536 144.082 131.737 143.373 131.737 142.458C131.737 141.534 131.536 140.82 131.135 140.316C130.733 139.812 130.164 139.56 129.427 139.56C128.689 139.56 128.115 139.821 127.705 140.344C127.294 140.857 127.089 141.571 127.089 142.486C127.089 143.391 127.294 144.096 127.705 144.6C128.115 145.095 128.694 145.342 129.441 145.342ZM134.912 138.986H135.752V146H134.912V138.986ZM135.92 136.088V137.18H134.786V136.088H135.92ZM138.098 135.696H138.938V146H138.098V135.696ZM147.233 138.986L143.929 146.728C143.602 147.493 143.192 148.053 142.697 148.408C142.212 148.772 141.6 149.029 140.863 149.178L140.695 148.506C141.367 148.347 141.871 148.142 142.207 147.89C142.552 147.638 142.842 147.241 143.075 146.7L143.369 146.014L140.373 138.986H141.283L143.817 145.146L146.365 138.986H147.233ZM158.157 138.986V146H157.303V144.656C157.098 145.123 156.785 145.482 156.365 145.734C155.954 145.977 155.46 146.098 154.881 146.098C154.256 146.098 153.705 145.953 153.229 145.664C152.762 145.365 152.398 144.945 152.137 144.404C151.885 143.853 151.759 143.214 151.759 142.486C151.759 141.758 151.89 141.119 152.151 140.568C152.412 140.008 152.776 139.579 153.243 139.28C153.719 138.972 154.265 138.818 154.881 138.818C155.45 138.818 155.94 138.939 156.351 139.182C156.771 139.425 157.088 139.779 157.303 140.246V138.986H158.157ZM155.007 145.342C155.735 145.342 156.3 145.09 156.701 144.586C157.102 144.082 157.303 143.373 157.303 142.458C157.303 141.534 157.102 140.82 156.701 140.316C156.3 139.812 155.73 139.56 154.993 139.56C154.256 139.56 153.682 139.821 153.271 140.344C152.86 140.857 152.655 141.571 152.655 142.486C152.655 143.391 152.86 144.096 153.271 144.6C153.682 145.095 154.26 145.342 155.007 145.342ZM163.74 138.818C165.43 138.818 166.274 139.723 166.274 141.534V146H165.42V141.59C165.42 140.89 165.276 140.377 164.986 140.05C164.706 139.723 164.263 139.56 163.656 139.56C162.956 139.56 162.392 139.775 161.962 140.204C161.533 140.633 161.318 141.212 161.318 141.94V146H160.478V140.932C160.478 140.204 160.441 139.555 160.366 138.986H161.178L161.29 140.274C161.505 139.798 161.827 139.439 162.256 139.196C162.686 138.944 163.18 138.818 163.74 138.818ZM174.522 135.696V146H173.668V144.656C173.463 145.123 173.15 145.482 172.73 145.734C172.319 145.977 171.825 146.098 171.246 146.098C170.63 146.098 170.084 145.949 169.608 145.65C169.141 145.342 168.777 144.913 168.516 144.362C168.255 143.802 168.124 143.158 168.124 142.43C168.124 141.702 168.25 141.067 168.502 140.526C168.763 139.975 169.127 139.555 169.594 139.266C170.07 138.967 170.621 138.818 171.246 138.818C171.815 138.818 172.305 138.939 172.716 139.182C173.136 139.425 173.453 139.779 173.668 140.246V135.696H174.522ZM171.358 145.342C172.095 145.342 172.665 145.09 173.066 144.586C173.467 144.082 173.668 143.373 173.668 142.458C173.668 141.543 173.467 140.834 173.066 140.33C172.665 139.817 172.1 139.56 171.372 139.56C170.625 139.56 170.047 139.812 169.636 140.316C169.225 140.82 169.02 141.525 169.02 142.43C169.02 143.345 169.225 144.059 169.636 144.572C170.047 145.085 170.621 145.342 171.358 145.342ZM184.738 140.876C185.326 141.044 185.774 141.338 186.082 141.758C186.39 142.169 186.544 142.687 186.544 143.312C186.544 144.171 186.259 144.852 185.69 145.356C185.13 145.851 184.365 146.098 183.394 146.098C182.759 146.098 182.153 145.986 181.574 145.762C180.995 145.538 180.501 145.225 180.09 144.824L180.454 144.138C180.911 144.539 181.378 144.843 181.854 145.048C182.339 145.244 182.853 145.342 183.394 145.342C184.122 145.342 184.682 145.169 185.074 144.824C185.475 144.469 185.676 143.965 185.676 143.312C185.676 141.987 184.855 141.324 183.212 141.324H182.148V140.554H183.002C183.786 140.554 184.388 140.377 184.808 140.022C185.237 139.658 185.452 139.14 185.452 138.468C185.452 137.899 185.279 137.46 184.934 137.152C184.589 136.835 184.103 136.676 183.478 136.676C182.498 136.676 181.541 137.077 180.608 137.88L180.244 137.194C180.645 136.793 181.131 136.48 181.7 136.256C182.279 136.032 182.876 135.92 183.492 135.92C184.36 135.92 185.051 136.149 185.564 136.606C186.077 137.054 186.334 137.661 186.334 138.426C186.334 139.005 186.189 139.513 185.9 139.952C185.62 140.381 185.233 140.689 184.738 140.876ZM191.551 135.92C192.727 135.92 193.632 136.335 194.267 137.166C194.911 137.997 195.233 139.187 195.233 140.736C195.233 142.435 194.901 143.755 194.239 144.698C193.585 145.641 192.666 146.112 191.481 146.112C190.921 146.112 190.37 146.005 189.829 145.79C189.297 145.566 188.821 145.249 188.401 144.838L188.765 144.152C189.25 144.572 189.707 144.88 190.137 145.076C190.575 145.263 191.023 145.356 191.481 145.356C192.386 145.356 193.091 144.95 193.595 144.138C194.108 143.326 194.365 142.192 194.365 140.736V140.344C194.159 140.932 193.8 141.394 193.287 141.73C192.773 142.066 192.185 142.234 191.523 142.234C190.907 142.234 190.361 142.103 189.885 141.842C189.409 141.571 189.04 141.198 188.779 140.722C188.517 140.246 188.387 139.7 188.387 139.084C188.387 138.477 188.522 137.936 188.793 137.46C189.063 136.975 189.437 136.597 189.913 136.326C190.398 136.055 190.944 135.92 191.551 135.92ZM191.593 141.464C192.059 141.464 192.475 141.366 192.839 141.17C193.212 140.965 193.501 140.68 193.707 140.316C193.912 139.952 194.015 139.541 194.015 139.084C194.015 138.365 193.786 137.787 193.329 137.348C192.881 136.9 192.297 136.676 191.579 136.676C190.888 136.676 190.328 136.895 189.899 137.334C189.479 137.773 189.269 138.356 189.269 139.084C189.269 139.793 189.483 140.367 189.913 140.806C190.342 141.245 190.902 141.464 191.593 141.464ZM199.231 142.024C198.494 142.024 197.92 141.767 197.509 141.254C197.098 140.741 196.893 139.98 196.893 138.972C196.893 137.964 197.098 137.208 197.509 136.704C197.92 136.191 198.494 135.934 199.231 135.934C199.978 135.934 200.556 136.191 200.967 136.704C201.387 137.208 201.597 137.964 201.597 138.972C201.597 139.98 201.387 140.741 200.967 141.254C200.547 141.767 199.968 142.024 199.231 142.024ZM199.245 146L204.999 136.032H205.895L200.141 146H199.245ZM199.231 141.352C199.754 141.352 200.136 141.161 200.379 140.778C200.631 140.395 200.757 139.793 200.757 138.972C200.757 138.16 200.631 137.563 200.379 137.18C200.136 136.788 199.754 136.592 199.231 136.592C198.727 136.592 198.349 136.788 198.097 137.18C197.845 137.563 197.719 138.16 197.719 138.972C197.719 139.793 197.84 140.395 198.083 140.778C198.335 141.161 198.718 141.352 199.231 141.352ZM205.895 146.098C205.158 146.098 204.579 145.841 204.159 145.328C203.748 144.815 203.543 144.054 203.543 143.046C203.543 142.029 203.748 141.268 204.159 140.764C204.57 140.26 205.148 140.008 205.895 140.008C206.642 140.008 207.22 140.26 207.631 140.764C208.042 141.268 208.247 142.029 208.247 143.046C208.247 144.054 208.037 144.815 207.617 145.328C207.206 145.841 206.632 146.098 205.895 146.098ZM205.895 145.426C206.408 145.426 206.786 145.235 207.029 144.852C207.281 144.469 207.407 143.867 207.407 143.046C207.407 142.234 207.281 141.637 207.029 141.254C206.786 140.871 206.408 140.68 205.895 140.68C205.382 140.68 204.999 140.871 204.747 141.254C204.504 141.637 204.383 142.234 204.383 143.046C204.383 143.867 204.504 144.469 204.747 144.852C204.999 145.235 205.382 145.426 205.895 145.426ZM219.454 138.986V146H218.628V144.726C218.404 145.174 218.087 145.515 217.676 145.748C217.266 145.981 216.794 146.098 216.262 146.098C215.441 146.098 214.82 145.869 214.4 145.412C213.98 144.955 213.77 144.278 213.77 143.382V138.986H214.61V143.326C214.61 144.017 214.75 144.525 215.03 144.852C215.31 145.179 215.744 145.342 216.332 145.342C217.023 145.342 217.574 145.127 217.984 144.698C218.395 144.259 218.6 143.681 218.6 142.962V138.986H219.454ZM224.065 146.098C222.926 146.098 222.026 145.785 221.363 145.16L221.671 144.502C222.044 144.81 222.418 145.029 222.791 145.16C223.174 145.291 223.612 145.356 224.107 145.356C224.686 145.356 225.124 145.258 225.423 145.062C225.731 144.857 225.885 144.563 225.885 144.18C225.885 143.863 225.782 143.615 225.577 143.438C225.381 143.251 225.054 143.102 224.597 142.99L223.407 142.724C222.847 142.593 222.404 142.36 222.077 142.024C221.76 141.688 221.601 141.296 221.601 140.848C221.601 140.232 221.834 139.742 222.301 139.378C222.777 139.005 223.407 138.818 224.191 138.818C224.686 138.818 225.143 138.897 225.563 139.056C225.992 139.215 226.347 139.443 226.627 139.742L226.305 140.4C225.661 139.84 224.956 139.56 224.191 139.56C223.65 139.56 223.23 139.667 222.931 139.882C222.632 140.097 222.483 140.395 222.483 140.778C222.483 141.095 222.576 141.352 222.763 141.548C222.959 141.744 223.258 141.889 223.659 141.982L224.863 142.276C226.123 142.556 226.753 143.177 226.753 144.138C226.753 144.726 226.51 145.202 226.025 145.566C225.54 145.921 224.886 146.098 224.065 146.098ZM229.149 142.388V142.43C229.149 143.373 229.364 144.096 229.793 144.6C230.232 145.095 230.866 145.342 231.697 145.342C232.537 145.342 233.307 145.053 234.007 144.474L234.343 145.146C234.035 145.435 233.643 145.669 233.167 145.846C232.691 146.014 232.201 146.098 231.697 146.098C230.633 146.098 229.793 145.776 229.177 145.132C228.561 144.488 228.253 143.601 228.253 142.472C228.253 141.753 228.388 141.119 228.659 140.568C228.939 140.008 229.326 139.579 229.821 139.28C230.316 138.972 230.885 138.818 231.529 138.818C232.453 138.818 233.172 139.117 233.685 139.714C234.208 140.311 234.469 141.142 234.469 142.206V142.388H229.149ZM231.529 139.518C230.885 139.518 230.362 139.714 229.961 140.106C229.56 140.489 229.308 141.03 229.205 141.73H233.657C233.601 141.011 233.391 140.465 233.027 140.092C232.663 139.709 232.164 139.518 231.529 139.518ZM57.352 160.672V164.844C57.352 165.404 57.4593 165.791 57.674 166.006C57.8887 166.221 58.206 166.328 58.626 166.328C58.8873 166.328 59.1393 166.286 59.382 166.202V166.972C59.0833 167.047 58.78 167.084 58.472 167.084C57.856 167.084 57.3707 166.911 57.016 166.566C56.6707 166.221 56.498 165.703 56.498 165.012V160.672H55.112V159.986H56.498V158.124L57.352 157.802V159.986H59.424V160.672H57.352ZM64.1408 159.818C65.8301 159.818 66.6748 160.723 66.6748 162.534V167H65.8208V162.59C65.8208 161.89 65.6761 161.377 65.3868 161.05C65.1068 160.723 64.6635 160.56 64.0568 160.56C63.3568 160.56 62.7921 160.775 62.3628 161.204C61.9335 161.633 61.7188 162.212 61.7188 162.94V167H60.8788V156.696H61.7188V161.204C61.9428 160.747 62.2648 160.401 62.6848 160.168C63.1048 159.935 63.5901 159.818 64.1408 159.818ZM69.4205 163.388V163.43C69.4205 164.373 69.6352 165.096 70.0645 165.6C70.5032 166.095 71.1379 166.342 71.9685 166.342C72.8085 166.342 73.5785 166.053 74.2785 165.474L74.6145 166.146C74.3065 166.435 73.9145 166.669 73.4385 166.846C72.9625 167.014 72.4725 167.098 71.9685 167.098C70.9045 167.098 70.0645 166.776 69.4485 166.132C68.8325 165.488 68.5245 164.601 68.5245 163.472C68.5245 162.753 68.6599 162.119 68.9305 161.568C69.2105 161.008 69.5979 160.579 70.0925 160.28C70.5872 159.972 71.1565 159.818 71.8005 159.818C72.7245 159.818 73.4432 160.117 73.9565 160.714C74.4792 161.311 74.7405 162.142 74.7405 163.206V163.388H69.4205ZM71.8005 160.518C71.1565 160.518 70.6339 160.714 70.2325 161.106C69.8312 161.489 69.5792 162.03 69.4765 162.73H73.9285C73.8725 162.011 73.6625 161.465 73.2985 161.092C72.9345 160.709 72.4352 160.518 71.8005 160.518ZM84.1341 159.818C85.6834 159.818 86.4581 160.723 86.4581 162.534V167H85.6041V162.59C85.6041 161.881 85.4781 161.367 85.2261 161.05C84.9741 160.723 84.5728 160.56 84.0221 160.56C83.3781 160.56 82.8694 160.775 82.4961 161.204C82.1321 161.633 81.9501 162.217 81.9501 162.954V167H81.0961V162.59C81.0961 161.881 80.9654 161.367 80.7041 161.05C80.4521 160.723 80.0508 160.56 79.5001 160.56C78.8654 160.56 78.3568 160.775 77.9741 161.204C77.6008 161.633 77.4141 162.217 77.4141 162.954V167H76.5741V161.932C76.5741 161.204 76.5368 160.555 76.4621 159.986H77.2741L77.3861 161.246C77.5821 160.779 77.8714 160.425 78.2541 160.182C78.6461 159.939 79.0988 159.818 79.6121 159.818C80.7414 159.818 81.4648 160.275 81.7821 161.19C81.9781 160.761 82.2814 160.425 82.6921 160.182C83.1121 159.939 83.5928 159.818 84.1341 159.818ZM96.6364 161.876C97.2244 162.044 97.6724 162.338 97.9804 162.758C98.2884 163.169 98.4424 163.687 98.4424 164.312C98.4424 165.171 98.1578 165.852 97.5884 166.356C97.0284 166.851 96.2631 167.098 95.2924 167.098C94.6578 167.098 94.0511 166.986 93.4724 166.762C92.8938 166.538 92.3991 166.225 91.9884 165.824L92.3524 165.138C92.8098 165.539 93.2764 165.843 93.7524 166.048C94.2378 166.244 94.7511 166.342 95.2924 166.342C96.0204 166.342 96.5804 166.169 96.9724 165.824C97.3738 165.469 97.5744 164.965 97.5744 164.312C97.5744 162.987 96.7531 162.324 95.1104 162.324H94.0464V161.554H94.9004C95.6844 161.554 96.2864 161.377 96.7064 161.022C97.1358 160.658 97.3504 160.14 97.3504 159.468C97.3504 158.899 97.1778 158.46 96.8324 158.152C96.4871 157.835 96.0018 157.676 95.3764 157.676C94.3964 157.676 93.4398 158.077 92.5064 158.88L92.1424 158.194C92.5438 157.793 93.0291 157.48 93.5984 157.256C94.1771 157.032 94.7744 156.92 95.3904 156.92C96.2584 156.92 96.9491 157.149 97.4624 157.606C97.9758 158.054 98.2324 158.661 98.2324 159.426C98.2324 160.005 98.0878 160.513 97.7984 160.952C97.5184 161.381 97.1311 161.689 96.6364 161.876ZM100.593 162.87H104.429V163.612H100.593V162.87ZM110.041 160.812C110.675 160.812 111.226 160.943 111.693 161.204C112.159 161.465 112.519 161.834 112.771 162.31C113.023 162.786 113.149 163.332 113.149 163.948C113.149 164.564 113.013 165.11 112.743 165.586C112.481 166.062 112.103 166.435 111.609 166.706C111.114 166.967 110.54 167.098 109.887 167.098C109.299 167.098 108.711 166.986 108.123 166.762C107.544 166.529 107.054 166.216 106.653 165.824L107.017 165.138C107.95 165.941 108.911 166.342 109.901 166.342C110.629 166.342 111.203 166.127 111.623 165.698C112.052 165.259 112.267 164.676 112.267 163.948C112.267 163.248 112.057 162.679 111.637 162.24C111.217 161.792 110.666 161.568 109.985 161.568C109.462 161.568 109.005 161.675 108.613 161.89C108.221 162.095 107.88 162.417 107.591 162.856H106.919V157.032H112.771V157.774H107.787V161.75C108.057 161.451 108.384 161.223 108.767 161.064C109.159 160.896 109.583 160.812 110.041 160.812ZM124.551 156.696V167H123.697V165.656C123.492 166.123 123.179 166.482 122.759 166.734C122.349 166.977 121.854 167.098 121.275 167.098C120.659 167.098 120.113 166.949 119.637 166.65C119.171 166.342 118.807 165.913 118.545 165.362C118.284 164.802 118.153 164.158 118.153 163.43C118.153 162.702 118.279 162.067 118.531 161.526C118.793 160.975 119.157 160.555 119.623 160.266C120.099 159.967 120.65 159.818 121.275 159.818C121.845 159.818 122.335 159.939 122.745 160.182C123.165 160.425 123.483 160.779 123.697 161.246V156.696H124.551ZM121.387 166.342C122.125 166.342 122.694 166.09 123.095 165.586C123.497 165.082 123.697 164.373 123.697 163.458C123.697 162.543 123.497 161.834 123.095 161.33C122.694 160.817 122.129 160.56 121.401 160.56C120.655 160.56 120.076 160.812 119.665 161.316C119.255 161.82 119.049 162.525 119.049 163.43C119.049 164.345 119.255 165.059 119.665 165.572C120.076 166.085 120.65 166.342 121.387 166.342ZM132.823 159.986V167H131.969V165.656C131.764 166.123 131.451 166.482 131.031 166.734C130.62 166.977 130.126 167.098 129.547 167.098C128.922 167.098 128.371 166.953 127.895 166.664C127.428 166.365 127.064 165.945 126.803 165.404C126.551 164.853 126.425 164.214 126.425 163.486C126.425 162.758 126.556 162.119 126.817 161.568C127.078 161.008 127.442 160.579 127.909 160.28C128.385 159.972 128.931 159.818 129.547 159.818C130.116 159.818 130.606 159.939 131.017 160.182C131.437 160.425 131.754 160.779 131.969 161.246V159.986H132.823ZM129.673 166.342C130.401 166.342 130.966 166.09 131.367 165.586C131.768 165.082 131.969 164.373 131.969 163.458C131.969 162.534 131.768 161.82 131.367 161.316C130.966 160.812 130.396 160.56 129.659 160.56C128.922 160.56 128.348 160.821 127.937 161.344C127.526 161.857 127.321 162.571 127.321 163.486C127.321 164.391 127.526 165.096 127.937 165.6C128.348 166.095 128.926 166.342 129.673 166.342ZM141.094 159.986L137.79 167.728C137.464 168.493 137.053 169.053 136.558 169.408C136.073 169.772 135.462 170.029 134.724 170.178L134.556 169.506C135.228 169.347 135.732 169.142 136.068 168.89C136.414 168.638 136.703 168.241 136.936 167.7L137.23 167.014L134.234 159.986H135.144L137.678 166.146L140.226 159.986H141.094ZM144.645 167.098C143.507 167.098 142.606 166.785 141.943 166.16L142.251 165.502C142.625 165.81 142.998 166.029 143.371 166.16C143.754 166.291 144.193 166.356 144.687 166.356C145.266 166.356 145.705 166.258 146.003 166.062C146.311 165.857 146.465 165.563 146.465 165.18C146.465 164.863 146.363 164.615 146.157 164.438C145.961 164.251 145.635 164.102 145.177 163.99L143.987 163.724C143.427 163.593 142.984 163.36 142.657 163.024C142.34 162.688 142.181 162.296 142.181 161.848C142.181 161.232 142.415 160.742 142.881 160.378C143.357 160.005 143.987 159.818 144.771 159.818C145.266 159.818 145.723 159.897 146.143 160.056C146.573 160.215 146.927 160.443 147.207 160.742L146.885 161.4C146.241 160.84 145.537 160.56 144.771 160.56C144.23 160.56 143.81 160.667 143.511 160.882C143.213 161.097 143.063 161.395 143.063 161.778C143.063 162.095 143.157 162.352 143.343 162.548C143.539 162.744 143.838 162.889 144.239 162.982L145.443 163.276C146.703 163.556 147.333 164.177 147.333 165.138C147.333 165.726 147.091 166.202 146.605 166.566C146.12 166.921 145.467 167.098 144.645 167.098ZM156.126 159.818C156.742 159.818 157.283 159.972 157.75 160.28C158.226 160.579 158.594 161.008 158.856 161.568C159.117 162.119 159.248 162.758 159.248 163.486C159.248 164.214 159.117 164.849 158.856 165.39C158.604 165.931 158.24 166.351 157.764 166.65C157.288 166.949 156.742 167.098 156.126 167.098C155.538 167.098 155.034 166.972 154.614 166.72C154.203 166.459 153.895 166.085 153.69 165.6V170.024H152.85V161.932C152.85 161.204 152.812 160.555 152.738 159.986H153.55L153.662 161.358C153.867 160.863 154.18 160.485 154.6 160.224C155.029 159.953 155.538 159.818 156.126 159.818ZM156.014 166.342C156.751 166.342 157.325 166.095 157.736 165.6C158.146 165.096 158.352 164.391 158.352 163.486C158.352 162.571 158.146 161.857 157.736 161.344C157.325 160.821 156.756 160.56 156.028 160.56C155.281 160.56 154.707 160.812 154.306 161.316C153.904 161.82 153.704 162.534 153.704 163.458C153.704 164.373 153.904 165.082 154.306 165.586C154.707 166.09 155.276 166.342 156.014 166.342ZM161.569 163.388V163.43C161.569 164.373 161.784 165.096 162.213 165.6C162.652 166.095 163.286 166.342 164.117 166.342C164.957 166.342 165.727 166.053 166.427 165.474L166.763 166.146C166.455 166.435 166.063 166.669 165.587 166.846C165.111 167.014 164.621 167.098 164.117 167.098C163.053 167.098 162.213 166.776 161.597 166.132C160.981 165.488 160.673 164.601 160.673 163.472C160.673 162.753 160.808 162.119 161.079 161.568C161.359 161.008 161.746 160.579 162.241 160.28C162.736 159.972 163.305 159.818 163.949 159.818C164.873 159.818 165.592 160.117 166.105 160.714C166.628 161.311 166.889 162.142 166.889 163.206V163.388H161.569ZM163.949 160.518C163.305 160.518 162.782 160.714 162.381 161.106C161.98 161.489 161.728 162.03 161.625 162.73H166.077C166.021 162.011 165.811 161.465 165.447 161.092C165.083 160.709 164.584 160.518 163.949 160.518ZM171.747 159.818C171.98 159.818 172.185 159.837 172.363 159.874L172.321 160.644C172.143 160.607 171.929 160.588 171.677 160.588C170.967 160.588 170.435 160.817 170.081 161.274C169.735 161.722 169.563 162.259 169.563 162.884V167H168.723V161.932C168.723 161.204 168.685 160.555 168.611 159.986H169.423L169.535 161.288C169.712 160.812 169.997 160.448 170.389 160.196C170.79 159.944 171.243 159.818 171.747 159.818ZM187.616 159.986L185.068 167H184.186L182.058 161.078L179.916 167H179.02L176.486 159.986H177.396L179.468 165.978L181.652 159.986H182.506L184.62 165.978L186.748 159.986H187.616ZM189.637 163.388V163.43C189.637 164.373 189.852 165.096 190.281 165.6C190.72 166.095 191.355 166.342 192.185 166.342C193.025 166.342 193.795 166.053 194.495 165.474L194.831 166.146C194.523 166.435 194.131 166.669 193.655 166.846C193.179 167.014 192.689 167.098 192.185 167.098C191.121 167.098 190.281 166.776 189.665 166.132C189.049 165.488 188.741 164.601 188.741 163.472C188.741 162.753 188.877 162.119 189.147 161.568C189.427 161.008 189.815 160.579 190.309 160.28C190.804 159.972 191.373 159.818 192.017 159.818C192.941 159.818 193.66 160.117 194.173 160.714C194.696 161.311 194.957 162.142 194.957 163.206V163.388H189.637ZM192.017 160.518C191.373 160.518 190.851 160.714 190.449 161.106C190.048 161.489 189.796 162.03 189.693 162.73H194.145C194.089 162.011 193.879 161.465 193.515 161.092C193.151 160.709 192.652 160.518 192.017 160.518ZM197.239 163.388V163.43C197.239 164.373 197.454 165.096 197.883 165.6C198.322 166.095 198.956 166.342 199.787 166.342C200.627 166.342 201.397 166.053 202.097 165.474L202.433 166.146C202.125 166.435 201.733 166.669 201.257 166.846C200.781 167.014 200.291 167.098 199.787 167.098C198.723 167.098 197.883 166.776 197.267 166.132C196.651 165.488 196.343 164.601 196.343 163.472C196.343 162.753 196.478 162.119 196.749 161.568C197.029 161.008 197.416 160.579 197.911 160.28C198.406 159.972 198.975 159.818 199.619 159.818C200.543 159.818 201.262 160.117 201.775 160.714C202.298 161.311 202.559 162.142 202.559 163.206V163.388H197.239ZM199.619 160.518C198.975 160.518 198.452 160.714 198.051 161.106C197.65 161.489 197.398 162.03 197.295 162.73H201.747C201.691 162.011 201.481 161.465 201.117 161.092C200.753 160.709 200.254 160.518 199.619 160.518ZM209.096 167L205.232 163.584V167H204.392V156.696H205.232V163.248L208.76 159.986H209.866L206.198 163.36L210.258 167H209.096ZM212.496 165.782V167H211.306V165.782H212.496Z" fill="black"/>
<defs>
<filter id="filter0_d" x="0" y="0" width="324" height="270" filterUnits="userSpaceOnUse" color-interpolation-filters="sRGB">
<feFlood flood-opacity="0" result="BackgroundImageFix"/>
<feColorMatrix in="SourceAlpha" type="matrix" values="0 0 0 0 0 0 0 0 0 0 0 0 0 0 0 0 0 0 127 0"/>
<feOffset dy="4"/>
<feGaussianBlur stdDeviation="2"/>
<feColorMatrix type="matrix" values="0 0 0 0 0 0 0 0 0 0 0 0 0 0 0 0 0 0 0.25 0"/>
<feBlend mode="normal" in2="BackgroundImageFix" result="effect1_dropShadow"/>
<feBlend mode="normal" in="SourceGraphic" in2="effect1_dropShadow" result="shape"/>
</filter>
</defs>
</svg>
