<svg width="324" height="270" viewBox="0 0 324 270" fill="none" xmlns="http://www.w3.org/2000/svg">
<g filter="url(#filter0_d)">
<rect x="4" width="316" height="262" rx="10" fill="#F3F3F2"/>
</g>
<path d="M69.98 96.032L66.508 106H65.752L62.756 97.418L59.746 106H59.004L55.532 96.032H56.4L59.396 104.796L62.42 96.032L63.106 96.046L66.116 104.768L69.112 96.032H69.98ZM74.9279 98.818C76.6172 98.818 77.4619 99.7233 77.4619 101.534V106H76.6079V101.59C76.6079 100.89 76.4632 100.377 76.1739 100.05C75.8939 99.7233 75.4506 99.56 74.8439 99.56C74.1439 99.56 73.5792 99.7747 73.1499 100.204C72.7206 100.633 72.5059 101.212 72.5059 101.94V106H71.6659V95.696H72.5059V100.204C72.7299 99.7467 73.0519 99.4013 73.4719 99.168C73.8919 98.9347 74.3772 98.818 74.9279 98.818ZM80.2077 102.388V102.43C80.2077 103.373 80.4223 104.096 80.8517 104.6C81.2903 105.095 81.925 105.342 82.7557 105.342C83.5957 105.342 84.3657 105.053 85.0657 104.474L85.4017 105.146C85.0937 105.435 84.7017 105.669 84.2257 105.846C83.7497 106.014 83.2597 106.098 82.7557 106.098C81.6917 106.098 80.8517 105.776 80.2357 105.132C79.6197 104.488 79.3117 103.601 79.3117 102.472C79.3117 101.753 79.447 101.119 79.7177 100.568C79.9977 100.008 80.385 99.5787 80.8797 99.28C81.3743 98.972 81.9437 98.818 82.5877 98.818C83.5117 98.818 84.2303 99.1167 84.7437 99.714C85.2663 100.311 85.5277 101.142 85.5277 102.206V102.388H80.2077ZM82.5877 99.518C81.9437 99.518 81.421 99.714 81.0197 100.106C80.6183 100.489 80.3663 101.03 80.2637 101.73H84.7157C84.6597 101.011 84.4497 100.465 84.0857 100.092C83.7217 99.7093 83.2223 99.518 82.5877 99.518ZM90.6232 98.818C92.3126 98.818 93.1572 99.7233 93.1572 101.534V106H92.3032V101.59C92.3032 100.89 92.1586 100.377 91.8692 100.05C91.5892 99.7233 91.1459 99.56 90.5392 99.56C89.8392 99.56 89.2746 99.7747 88.8452 100.204C88.4159 100.633 88.2012 101.212 88.2012 101.94V106H87.3612V100.932C87.3612 100.204 87.3239 99.5553 87.2492 98.986H88.0612L88.1732 100.274C88.3879 99.798 88.7099 99.4387 89.1392 99.196C89.5686 98.944 90.0632 98.818 90.6232 98.818ZM104.973 98.986V106H104.119V104.656C103.914 105.123 103.601 105.482 103.181 105.734C102.771 105.977 102.276 106.098 101.697 106.098C101.072 106.098 100.521 105.953 100.045 105.664C99.5787 105.365 99.2147 104.945 98.9533 104.404C98.7013 103.853 98.5753 103.214 98.5753 102.486C98.5753 101.758 98.706 101.119 98.9673 100.568C99.2287 100.008 99.5927 99.5787 100.059 99.28C100.535 98.972 101.081 98.818 101.697 98.818C102.267 98.818 102.757 98.9393 103.167 99.182C103.587 99.4247 103.905 99.7793 104.119 100.246V98.986H104.973ZM101.823 105.342C102.551 105.342 103.116 105.09 103.517 104.586C103.919 104.082 104.119 103.373 104.119 102.458C104.119 101.534 103.919 100.82 103.517 100.316C103.116 99.812 102.547 99.56 101.809 99.56C101.072 99.56 100.498 99.8213 100.087 100.344C99.6767 100.857 99.4713 101.571 99.4713 102.486C99.4713 103.391 99.6767 104.096 100.087 104.6C100.498 105.095 101.077 105.342 101.823 105.342ZM109.577 106.098C108.438 106.098 107.537 105.785 106.875 105.16L107.183 104.502C107.556 104.81 107.929 105.029 108.303 105.16C108.685 105.291 109.124 105.356 109.619 105.356C110.197 105.356 110.636 105.258 110.935 105.062C111.243 104.857 111.397 104.563 111.397 104.18C111.397 103.863 111.294 103.615 111.089 103.438C110.893 103.251 110.566 103.102 110.109 102.99L108.919 102.724C108.359 102.593 107.915 102.36 107.589 102.024C107.271 101.688 107.113 101.296 107.113 100.848C107.113 100.232 107.346 99.742 107.813 99.378C108.289 99.0047 108.919 98.818 109.703 98.818C110.197 98.818 110.655 98.8973 111.075 99.056C111.504 99.2147 111.859 99.4433 112.139 99.742L111.817 100.4C111.173 99.84 110.468 99.56 109.703 99.56C109.161 99.56 108.741 99.6673 108.443 99.882C108.144 100.097 107.995 100.395 107.995 100.778C107.995 101.095 108.088 101.352 108.275 101.548C108.471 101.744 108.769 101.889 109.171 101.982L110.375 102.276C111.635 102.556 112.265 103.177 112.265 104.138C112.265 104.726 112.022 105.202 111.537 105.566C111.051 105.921 110.398 106.098 109.577 106.098ZM118.917 106L115.053 102.584V106H114.213V95.696H115.053V102.248L118.581 98.986H119.687L116.019 102.36L120.079 106H118.917ZM121.497 102.388V102.43C121.497 103.373 121.711 104.096 122.141 104.6C122.579 105.095 123.214 105.342 124.045 105.342C124.885 105.342 125.655 105.053 126.355 104.474L126.691 105.146C126.383 105.435 125.991 105.669 125.515 105.846C125.039 106.014 124.549 106.098 124.045 106.098C122.981 106.098 122.141 105.776 121.525 105.132C120.909 104.488 120.601 103.601 120.601 102.472C120.601 101.753 120.736 101.119 121.007 100.568C121.287 100.008 121.674 99.5787 122.169 99.28C122.663 98.972 123.233 98.818 123.877 98.818C124.801 98.818 125.519 99.1167 126.033 99.714C126.555 100.311 126.817 101.142 126.817 102.206V102.388H121.497ZM123.877 99.518C123.233 99.518 122.71 99.714 122.309 100.106C121.907 100.489 121.655 101.03 121.553 101.73H126.005C125.949 101.011 125.739 100.465 125.375 100.092C125.011 99.7093 124.511 99.518 123.877 99.518ZM134.6 95.696V106H133.746V104.656C133.541 105.123 133.228 105.482 132.808 105.734C132.398 105.977 131.903 106.098 131.324 106.098C130.708 106.098 130.162 105.949 129.686 105.65C129.22 105.342 128.856 104.913 128.594 104.362C128.333 103.802 128.202 103.158 128.202 102.43C128.202 101.702 128.328 101.067 128.58 100.526C128.842 99.9753 129.206 99.5553 129.672 99.266C130.148 98.9673 130.699 98.818 131.324 98.818C131.894 98.818 132.384 98.9393 132.794 99.182C133.214 99.4247 133.532 99.7793 133.746 100.246V95.696H134.6ZM131.436 105.342C132.174 105.342 132.743 105.09 133.144 104.586C133.546 104.082 133.746 103.373 133.746 102.458C133.746 101.543 133.546 100.834 133.144 100.33C132.743 99.8167 132.178 99.56 131.45 99.56C130.704 99.56 130.125 99.812 129.714 100.316C129.304 100.82 129.098 101.525 129.098 102.43C129.098 103.345 129.304 104.059 129.714 104.572C130.125 105.085 130.699 105.342 131.436 105.342ZM146.44 98.986V106H145.586V104.656C145.381 105.123 145.068 105.482 144.648 105.734C144.237 105.977 143.743 106.098 143.164 106.098C142.539 106.098 141.988 105.953 141.512 105.664C141.045 105.365 140.681 104.945 140.42 104.404C140.168 103.853 140.042 103.214 140.042 102.486C140.042 101.758 140.173 101.119 140.434 100.568C140.695 100.008 141.059 99.5787 141.526 99.28C142.002 98.972 142.548 98.818 143.164 98.818C143.733 98.818 144.223 98.9393 144.634 99.182C145.054 99.4247 145.371 99.7793 145.586 100.246V98.986H146.44ZM143.29 105.342C144.018 105.342 144.583 105.09 144.984 104.586C145.385 104.082 145.586 103.373 145.586 102.458C145.586 101.534 145.385 100.82 144.984 100.316C144.583 99.812 144.013 99.56 143.276 99.56C142.539 99.56 141.965 99.8213 141.554 100.344C141.143 100.857 140.938 101.571 140.938 102.486C140.938 103.391 141.143 104.096 141.554 104.6C141.965 105.095 142.543 105.342 143.29 105.342ZM152.038 98.818C152.654 98.818 153.2 98.9673 153.676 99.266C154.152 99.5647 154.516 99.9847 154.768 100.526C155.029 101.067 155.16 101.702 155.16 102.43C155.16 103.158 155.029 103.802 154.768 104.362C154.506 104.913 154.138 105.342 153.662 105.65C153.195 105.949 152.654 106.098 152.038 106.098C151.459 106.098 150.96 105.972 150.54 105.72C150.129 105.468 149.821 105.104 149.616 104.628V106H148.762V95.696H149.602V100.302C149.807 99.8167 150.12 99.448 150.54 99.196C150.96 98.944 151.459 98.818 152.038 98.818ZM151.94 105.342C152.668 105.342 153.237 105.085 153.648 104.572C154.058 104.059 154.264 103.345 154.264 102.43C154.264 101.525 154.058 100.82 153.648 100.316C153.237 99.812 152.663 99.56 151.926 99.56C151.188 99.56 150.619 99.812 150.218 100.316C149.816 100.82 149.616 101.534 149.616 102.458C149.616 103.382 149.816 104.096 150.218 104.6C150.619 105.095 151.193 105.342 151.94 105.342ZM159.819 106.098C159.175 106.098 158.606 105.949 158.111 105.65C157.626 105.351 157.248 104.927 156.977 104.376C156.716 103.825 156.585 103.186 156.585 102.458C156.585 101.73 156.716 101.091 156.977 100.54C157.248 99.9893 157.626 99.5647 158.111 99.266C158.606 98.9673 159.175 98.818 159.819 98.818C160.454 98.818 161.014 98.9673 161.499 99.266C161.984 99.5647 162.358 99.9893 162.619 100.54C162.89 101.091 163.025 101.73 163.025 102.458C163.025 103.186 162.89 103.825 162.619 104.376C162.358 104.927 161.984 105.351 161.499 105.65C161.014 105.949 160.454 106.098 159.819 106.098ZM159.805 105.342C160.552 105.342 161.126 105.095 161.527 104.6C161.938 104.096 162.143 103.382 162.143 102.458C162.143 101.543 161.938 100.834 161.527 100.33C161.116 99.8167 160.547 99.56 159.819 99.56C159.082 99.56 158.508 99.8167 158.097 100.33C157.686 100.834 157.481 101.543 157.481 102.458C157.481 103.391 157.682 104.105 158.083 104.6C158.484 105.095 159.058 105.342 159.805 105.342ZM170.536 98.986V106H169.71V104.726C169.486 105.174 169.169 105.515 168.758 105.748C168.348 105.981 167.876 106.098 167.344 106.098C166.523 106.098 165.902 105.869 165.482 105.412C165.062 104.955 164.852 104.278 164.852 103.382V98.986H165.692V103.326C165.692 104.017 165.832 104.525 166.112 104.852C166.392 105.179 166.826 105.342 167.414 105.342C168.105 105.342 168.656 105.127 169.066 104.698C169.477 104.259 169.682 103.681 169.682 102.962V98.986H170.536ZM174.055 99.672V103.844C174.055 104.404 174.162 104.791 174.377 105.006C174.592 105.221 174.909 105.328 175.329 105.328C175.59 105.328 175.842 105.286 176.085 105.202V105.972C175.786 106.047 175.483 106.084 175.175 106.084C174.559 106.084 174.074 105.911 173.719 105.566C173.374 105.221 173.201 104.703 173.201 104.012V99.672H171.815V98.986H173.201V97.124L174.055 96.802V98.986H176.127V99.672H174.055ZM184.426 98.818C185.042 98.818 185.588 98.9673 186.064 99.266C186.54 99.5647 186.904 99.9847 187.156 100.526C187.418 101.067 187.548 101.702 187.548 102.43C187.548 103.158 187.418 103.802 187.156 104.362C186.895 104.913 186.526 105.342 186.05 105.65C185.584 105.949 185.042 106.098 184.426 106.098C183.848 106.098 183.348 105.972 182.928 105.72C182.518 105.468 182.21 105.104 182.004 104.628V106H181.15V95.696H181.99V100.302C182.196 99.8167 182.508 99.448 182.928 99.196C183.348 98.944 183.848 98.818 184.426 98.818ZM184.328 105.342C185.056 105.342 185.626 105.085 186.036 104.572C186.447 104.059 186.652 103.345 186.652 102.43C186.652 101.525 186.447 100.82 186.036 100.316C185.626 99.812 185.052 99.56 184.314 99.56C183.577 99.56 183.008 99.812 182.606 100.316C182.205 100.82 182.004 101.534 182.004 102.458C182.004 103.382 182.205 104.096 182.606 104.6C183.008 105.095 183.582 105.342 184.328 105.342ZM189.422 98.986H190.262V106H189.422V98.986ZM190.43 96.088V97.18H189.296V96.088H190.43ZM198.613 98.986V106.028C198.613 107.045 198.361 107.815 197.857 108.338C197.353 108.861 196.611 109.122 195.631 109.122C194.586 109.122 193.676 108.87 192.901 108.366L193.069 107.624C193.527 107.895 193.947 108.086 194.329 108.198C194.712 108.31 195.151 108.366 195.645 108.366C196.345 108.366 196.873 108.175 197.227 107.792C197.591 107.409 197.773 106.849 197.773 106.112V104.306C197.559 104.782 197.241 105.151 196.821 105.412C196.401 105.664 195.897 105.79 195.309 105.79C194.693 105.79 194.147 105.645 193.671 105.356C193.195 105.057 192.822 104.647 192.551 104.124C192.29 103.592 192.159 102.985 192.159 102.304C192.159 101.613 192.29 101.007 192.551 100.484C192.822 99.952 193.195 99.5413 193.671 99.252C194.147 98.9627 194.693 98.818 195.309 98.818C195.897 98.818 196.397 98.9393 196.807 99.182C197.227 99.4247 197.545 99.7793 197.759 100.246V98.986H198.613ZM195.421 105.02C196.149 105.02 196.719 104.777 197.129 104.292C197.549 103.807 197.759 103.144 197.759 102.304C197.759 101.455 197.549 100.787 197.129 100.302C196.719 99.8073 196.149 99.56 195.421 99.56C194.684 99.56 194.105 99.8073 193.685 100.302C193.265 100.787 193.055 101.455 193.055 102.304C193.055 103.153 193.265 103.821 193.685 104.306C194.105 104.782 194.684 105.02 195.421 105.02ZM206.939 98.986V106.028C206.939 107.045 206.687 107.815 206.183 108.338C205.679 108.861 204.937 109.122 203.957 109.122C202.912 109.122 202.002 108.87 201.227 108.366L201.395 107.624C201.853 107.895 202.273 108.086 202.655 108.198C203.038 108.31 203.477 108.366 203.971 108.366C204.671 108.366 205.199 108.175 205.553 107.792C205.917 107.409 206.099 106.849 206.099 106.112V104.306C205.885 104.782 205.567 105.151 205.147 105.412C204.727 105.664 204.223 105.79 203.635 105.79C203.019 105.79 202.473 105.645 201.997 105.356C201.521 105.057 201.148 104.647 200.877 104.124C200.616 103.592 200.485 102.985 200.485 102.304C200.485 101.613 200.616 101.007 200.877 100.484C201.148 99.952 201.521 99.5413 201.997 99.252C202.473 98.9627 203.019 98.818 203.635 98.818C204.223 98.818 204.723 98.9393 205.133 99.182C205.553 99.4247 205.871 99.7793 206.085 100.246V98.986H206.939ZM203.747 105.02C204.475 105.02 205.045 104.777 205.455 104.292C205.875 103.807 206.085 103.144 206.085 102.304C206.085 101.455 205.875 100.787 205.455 100.302C205.045 99.8073 204.475 99.56 203.747 99.56C203.01 99.56 202.431 99.8073 202.011 100.302C201.591 100.787 201.381 101.455 201.381 102.304C201.381 103.153 201.591 103.821 202.011 104.306C202.431 104.782 203.01 105.02 203.747 105.02ZM209.708 102.388V102.43C209.708 103.373 209.922 104.096 210.352 104.6C210.79 105.095 211.425 105.342 212.256 105.342C213.096 105.342 213.866 105.053 214.566 104.474L214.902 105.146C214.594 105.435 214.202 105.669 213.726 105.846C213.25 106.014 212.76 106.098 212.256 106.098C211.192 106.098 210.352 105.776 209.736 105.132C209.12 104.488 208.812 103.601 208.812 102.472C208.812 101.753 208.947 101.119 209.218 100.568C209.498 100.008 209.885 99.5787 210.38 99.28C210.874 98.972 211.444 98.818 212.088 98.818C213.012 98.818 213.73 99.1167 214.244 99.714C214.766 100.311 215.028 101.142 215.028 102.206V102.388H209.708ZM212.088 99.518C211.444 99.518 210.921 99.714 210.52 100.106C210.118 100.489 209.866 101.03 209.764 101.73H214.216C214.16 101.011 213.95 100.465 213.586 100.092C213.222 99.7093 212.722 99.518 212.088 99.518ZM219.143 106.098C218.005 106.098 217.104 105.785 216.441 105.16L216.749 104.502C217.123 104.81 217.496 105.029 217.869 105.16C218.252 105.291 218.691 105.356 219.185 105.356C219.764 105.356 220.203 105.258 220.501 105.062C220.809 104.857 220.963 104.563 220.963 104.18C220.963 103.863 220.861 103.615 220.655 103.438C220.459 103.251 220.133 103.102 219.675 102.99L218.485 102.724C217.925 102.593 217.482 102.36 217.155 102.024C216.838 101.688 216.679 101.296 216.679 100.848C216.679 100.232 216.913 99.742 217.379 99.378C217.855 99.0047 218.485 98.818 219.269 98.818C219.764 98.818 220.221 98.8973 220.641 99.056C221.071 99.2147 221.425 99.4433 221.705 99.742L221.383 100.4C220.739 99.84 220.035 99.56 219.269 99.56C218.728 99.56 218.308 99.6673 218.009 99.882C217.711 100.097 217.561 100.395 217.561 100.778C217.561 101.095 217.655 101.352 217.841 101.548C218.037 101.744 218.336 101.889 218.737 101.982L219.941 102.276C221.201 102.556 221.831 103.177 221.831 104.138C221.831 104.726 221.589 105.202 221.103 105.566C220.618 105.921 219.965 106.098 219.143 106.098ZM224.901 99.672V103.844C224.901 104.404 225.008 104.791 225.223 105.006C225.437 105.221 225.755 105.328 226.175 105.328C226.436 105.328 226.688 105.286 226.931 105.202V105.972C226.632 106.047 226.329 106.084 226.021 106.084C225.405 106.084 224.919 105.911 224.565 105.566C224.219 105.221 224.047 104.703 224.047 104.012V99.672H222.661V98.986H224.047V97.124L224.901 96.802V98.986H226.973V99.672H224.901ZM58.584 117.41C58.1827 117.41 57.8747 117.517 57.66 117.732C57.4453 117.947 57.338 118.329 57.338 118.88V119.986H59.144V120.672H57.338V127H56.484V120.672H55.112V119.986H56.484V118.726C56.484 118.026 56.6567 117.503 57.002 117.158C57.3473 116.813 57.8233 116.64 58.43 116.64C58.71 116.64 58.9993 116.677 59.298 116.752V117.522C59.046 117.447 58.808 117.41 58.584 117.41ZM63.7251 119.818C63.9584 119.818 64.1637 119.837 64.3411 119.874L64.2991 120.644C64.1217 120.607 63.9071 120.588 63.6551 120.588C62.9457 120.588 62.4137 120.817 62.0591 121.274C61.7137 121.722 61.5411 122.259 61.5411 122.884V127H60.7011V121.932C60.7011 121.204 60.6637 120.555 60.5891 119.986H61.4011L61.5131 121.288C61.6904 120.812 61.9751 120.448 62.3671 120.196C62.7684 119.944 63.2211 119.818 63.7251 119.818ZM71.2239 119.986V127H70.3979V125.726C70.1739 126.174 69.8566 126.515 69.4459 126.748C69.0353 126.981 68.5639 127.098 68.0319 127.098C67.2106 127.098 66.5899 126.869 66.1699 126.412C65.7499 125.955 65.5399 125.278 65.5399 124.382V119.986H66.3799V124.326C66.3799 125.017 66.5199 125.525 66.7999 125.852C67.0799 126.179 67.5139 126.342 68.1019 126.342C68.7926 126.342 69.3433 126.127 69.7539 125.698C70.1646 125.259 70.3699 124.681 70.3699 123.962V119.986H71.2239ZM75.8346 127.098C74.696 127.098 73.7953 126.785 73.1326 126.16L73.4406 125.502C73.814 125.81 74.1873 126.029 74.5606 126.16C74.9433 126.291 75.382 126.356 75.8766 126.356C76.4553 126.356 76.894 126.258 77.1926 126.062C77.5006 125.857 77.6546 125.563 77.6546 125.18C77.6546 124.863 77.552 124.615 77.3466 124.438C77.1506 124.251 76.824 124.102 76.3666 123.99L75.1766 123.724C74.6166 123.593 74.1733 123.36 73.8466 123.024C73.5293 122.688 73.3706 122.296 73.3706 121.848C73.3706 121.232 73.604 120.742 74.0706 120.378C74.5466 120.005 75.1766 119.818 75.9606 119.818C76.4553 119.818 76.9126 119.897 77.3326 120.056C77.762 120.215 78.1166 120.443 78.3966 120.742L78.0746 121.4C77.4306 120.84 76.726 120.56 75.9606 120.56C75.4193 120.56 74.9993 120.667 74.7006 120.882C74.402 121.097 74.2526 121.395 74.2526 121.778C74.2526 122.095 74.346 122.352 74.5326 122.548C74.7286 122.744 75.0273 122.889 75.4286 122.982L76.6326 123.276C77.8926 123.556 78.5226 124.177 78.5226 125.138C78.5226 125.726 78.28 126.202 77.7946 126.566C77.3093 126.921 76.656 127.098 75.8346 127.098ZM81.5922 120.672V124.844C81.5922 125.404 81.6996 125.791 81.9142 126.006C82.1289 126.221 82.4462 126.328 82.8662 126.328C83.1276 126.328 83.3796 126.286 83.6222 126.202V126.972C83.3236 127.047 83.0202 127.084 82.7122 127.084C82.0962 127.084 81.6109 126.911 81.2562 126.566C80.9109 126.221 80.7382 125.703 80.7382 125.012V120.672H79.3522V119.986H80.7382V118.124L81.5922 117.802V119.986H83.6642V120.672H81.5922ZM88.143 119.818C88.3764 119.818 88.5817 119.837 88.759 119.874L88.717 120.644C88.5397 120.607 88.325 120.588 88.073 120.588C87.3637 120.588 86.8317 120.817 86.477 121.274C86.1317 121.722 85.959 122.259 85.959 122.884V127H85.119V121.932C85.119 121.204 85.0817 120.555 85.007 119.986H85.819L85.931 121.288C86.1084 120.812 86.393 120.448 86.785 120.196C87.1864 119.944 87.639 119.818 88.143 119.818ZM95.8132 119.986V127H94.9592V125.656C94.7538 126.123 94.4412 126.482 94.0212 126.734C93.6105 126.977 93.1158 127.098 92.5372 127.098C91.9118 127.098 91.3612 126.953 90.8852 126.664C90.4185 126.365 90.0545 125.945 89.7932 125.404C89.5412 124.853 89.4152 124.214 89.4152 123.486C89.4152 122.758 89.5458 122.119 89.8072 121.568C90.0685 121.008 90.4325 120.579 90.8992 120.28C91.3752 119.972 91.9212 119.818 92.5372 119.818C93.1065 119.818 93.5965 119.939 94.0072 120.182C94.4272 120.425 94.7445 120.779 94.9592 121.246V119.986H95.8132ZM92.6632 126.342C93.3912 126.342 93.9558 126.09 94.3572 125.586C94.7585 125.082 94.9592 124.373 94.9592 123.458C94.9592 122.534 94.7585 121.82 94.3572 121.316C93.9558 120.812 93.3865 120.56 92.6492 120.56C91.9118 120.56 91.3378 120.821 90.9272 121.344C90.5165 121.857 90.3112 122.571 90.3112 123.486C90.3112 124.391 90.5165 125.096 90.9272 125.6C91.3378 126.095 91.9165 126.342 92.6632 126.342ZM99.3247 120.672V124.844C99.3247 125.404 99.432 125.791 99.6467 126.006C99.8613 126.221 100.179 126.328 100.599 126.328C100.86 126.328 101.112 126.286 101.355 126.202V126.972C101.056 127.047 100.753 127.084 100.445 127.084C99.8287 127.084 99.3433 126.911 98.9887 126.566C98.6433 126.221 98.4707 125.703 98.4707 125.012V120.672H97.0847V119.986H98.4707V118.124L99.3247 117.802V119.986H101.397V120.672H99.3247ZM102.851 119.986H103.691V127H102.851V119.986ZM103.859 117.088V118.18H102.725V117.088H103.859ZM108.823 127.098C108.179 127.098 107.61 126.949 107.115 126.65C106.63 126.351 106.252 125.927 105.981 125.376C105.72 124.825 105.589 124.186 105.589 123.458C105.589 122.73 105.72 122.091 105.981 121.54C106.252 120.989 106.63 120.565 107.115 120.266C107.61 119.967 108.179 119.818 108.823 119.818C109.458 119.818 110.018 119.967 110.503 120.266C110.988 120.565 111.362 120.989 111.623 121.54C111.894 122.091 112.029 122.73 112.029 123.458C112.029 124.186 111.894 124.825 111.623 125.376C111.362 125.927 110.988 126.351 110.503 126.65C110.018 126.949 109.458 127.098 108.823 127.098ZM108.809 126.342C109.556 126.342 110.13 126.095 110.531 125.6C110.942 125.096 111.147 124.382 111.147 123.458C111.147 122.543 110.942 121.834 110.531 121.33C110.12 120.817 109.551 120.56 108.823 120.56C108.086 120.56 107.512 120.817 107.101 121.33C106.69 121.834 106.485 122.543 106.485 123.458C106.485 124.391 106.686 125.105 107.087 125.6C107.488 126.095 108.062 126.342 108.809 126.342ZM117.16 119.818C118.85 119.818 119.694 120.723 119.694 122.534V127H118.84V122.59C118.84 121.89 118.696 121.377 118.406 121.05C118.126 120.723 117.683 120.56 117.076 120.56C116.376 120.56 115.812 120.775 115.382 121.204C114.953 121.633 114.738 122.212 114.738 122.94V127H113.898V121.932C113.898 121.204 113.861 120.555 113.786 119.986H114.598L114.71 121.274C114.925 120.798 115.247 120.439 115.676 120.196C116.106 119.944 116.6 119.818 117.16 119.818ZM124.274 127.098C123.135 127.098 122.235 126.785 121.572 126.16L121.88 125.502C122.253 125.81 122.627 126.029 123 126.16C123.383 126.291 123.821 126.356 124.316 126.356C124.895 126.356 125.333 126.258 125.632 126.062C125.94 125.857 126.094 125.563 126.094 125.18C126.094 124.863 125.991 124.615 125.786 124.438C125.59 124.251 125.263 124.102 124.806 123.99L123.616 123.724C123.056 123.593 122.613 123.36 122.286 123.024C121.969 122.688 121.81 122.296 121.81 121.848C121.81 121.232 122.043 120.742 122.51 120.378C122.986 120.005 123.616 119.818 124.4 119.818C124.895 119.818 125.352 119.897 125.772 120.056C126.201 120.215 126.556 120.443 126.836 120.742L126.514 121.4C125.87 120.84 125.165 120.56 124.4 120.56C123.859 120.56 123.439 120.667 123.14 120.882C122.841 121.097 122.692 121.395 122.692 121.778C122.692 122.095 122.785 122.352 122.972 122.548C123.168 122.744 123.467 122.889 123.868 122.982L125.072 123.276C126.332 123.556 126.962 124.177 126.962 125.138C126.962 125.726 126.719 126.202 126.234 126.566C125.749 126.921 125.095 127.098 124.274 127.098ZM142.922 119.986L140.374 127H139.492L137.364 121.078L135.222 127H134.326L131.792 119.986H132.702L134.774 125.978L136.958 119.986H137.812L139.926 125.978L142.054 119.986H142.922ZM144.564 119.986H145.404V127H144.564V119.986ZM145.572 117.088V118.18H144.438V117.088H145.572ZM148.94 120.672V124.844C148.94 125.404 149.047 125.791 149.262 126.006C149.477 126.221 149.794 126.328 150.214 126.328C150.475 126.328 150.727 126.286 150.97 126.202V126.972C150.671 127.047 150.368 127.084 150.06 127.084C149.444 127.084 148.959 126.911 148.604 126.566C148.259 126.221 148.086 125.703 148.086 125.012V120.672H146.7V119.986H148.086V118.124L148.94 117.802V119.986H151.012V120.672H148.94ZM155.729 119.818C157.418 119.818 158.263 120.723 158.263 122.534V127H157.409V122.59C157.409 121.89 157.264 121.377 156.975 121.05C156.695 120.723 156.251 120.56 155.645 120.56C154.945 120.56 154.38 120.775 153.951 121.204C153.521 121.633 153.307 122.212 153.307 122.94V127H152.467V116.696H153.307V121.204C153.531 120.747 153.853 120.401 154.273 120.168C154.693 119.935 155.178 119.818 155.729 119.818ZM166.971 127.098C166.308 127.098 165.729 126.949 165.235 126.65C164.74 126.351 164.357 125.931 164.087 125.39C163.816 124.839 163.681 124.205 163.681 123.486C163.681 122.758 163.816 122.119 164.087 121.568C164.357 121.008 164.745 120.579 165.249 120.28C165.753 119.972 166.336 119.818 166.999 119.818C167.475 119.818 167.927 119.902 168.357 120.07C168.795 120.229 169.155 120.453 169.435 120.742L169.099 121.414C168.735 121.115 168.385 120.901 168.049 120.77C167.722 120.63 167.381 120.56 167.027 120.56C166.271 120.56 165.673 120.821 165.235 121.344C164.796 121.857 164.577 122.571 164.577 123.486C164.577 124.382 164.791 125.082 165.221 125.586C165.659 126.09 166.261 126.342 167.027 126.342C167.381 126.342 167.722 126.277 168.049 126.146C168.385 126.006 168.735 125.791 169.099 125.502L169.435 126.16C169.136 126.449 168.763 126.678 168.315 126.846C167.876 127.014 167.428 127.098 166.971 127.098ZM170.992 116.696H171.832V127H170.992V116.696ZM176.964 127.098C176.32 127.098 175.75 126.949 175.256 126.65C174.77 126.351 174.392 125.927 174.122 125.376C173.86 124.825 173.73 124.186 173.73 123.458C173.73 122.73 173.86 122.091 174.122 121.54C174.392 120.989 174.77 120.565 175.256 120.266C175.75 119.967 176.32 119.818 176.964 119.818C177.598 119.818 178.158 119.967 178.644 120.266C179.129 120.565 179.502 120.989 179.764 121.54C180.034 122.091 180.17 122.73 180.17 123.458C180.17 124.186 180.034 124.825 179.764 125.376C179.502 125.927 179.129 126.351 178.644 126.65C178.158 126.949 177.598 127.098 176.964 127.098ZM176.95 126.342C177.696 126.342 178.27 126.095 178.672 125.6C179.082 125.096 179.288 124.382 179.288 123.458C179.288 122.543 179.082 121.834 178.672 121.33C178.261 120.817 177.692 120.56 176.964 120.56C176.226 120.56 175.652 120.817 175.242 121.33C174.831 121.834 174.626 122.543 174.626 123.458C174.626 124.391 174.826 125.105 175.228 125.6C175.629 126.095 176.203 126.342 176.95 126.342ZM187.681 119.986V127H186.855V125.726C186.631 126.174 186.314 126.515 185.903 126.748C185.492 126.981 185.021 127.098 184.489 127.098C183.668 127.098 183.047 126.869 182.627 126.412C182.207 125.955 181.997 125.278 181.997 124.382V119.986H182.837V124.326C182.837 125.017 182.977 125.525 183.257 125.852C183.537 126.179 183.971 126.342 184.559 126.342C185.25 126.342 185.8 126.127 186.211 125.698C186.622 125.259 186.827 124.681 186.827 123.962V119.986H187.681ZM195.96 116.696V127H195.106V125.656C194.9 126.123 194.588 126.482 194.168 126.734C193.757 126.977 193.262 127.098 192.684 127.098C192.068 127.098 191.522 126.949 191.046 126.65C190.579 126.342 190.215 125.913 189.954 125.362C189.692 124.802 189.562 124.158 189.562 123.43C189.562 122.702 189.688 122.067 189.94 121.526C190.201 120.975 190.565 120.555 191.032 120.266C191.508 119.967 192.058 119.818 192.684 119.818C193.253 119.818 193.743 119.939 194.154 120.182C194.574 120.425 194.891 120.779 195.106 121.246V116.696H195.96ZM192.796 126.342C193.533 126.342 194.102 126.09 194.504 125.586C194.905 125.082 195.106 124.373 195.106 123.458C195.106 122.543 194.905 121.834 194.504 121.33C194.102 120.817 193.538 120.56 192.81 120.56C192.063 120.56 191.484 120.812 191.074 121.316C190.663 121.82 190.458 122.525 190.458 123.43C190.458 124.345 190.663 125.059 191.074 125.572C191.484 126.085 192.058 126.342 192.796 126.342ZM204.132 127.098C202.993 127.098 202.092 126.785 201.43 126.16L201.738 125.502C202.111 125.81 202.484 126.029 202.858 126.16C203.24 126.291 203.679 126.356 204.174 126.356C204.752 126.356 205.191 126.258 205.49 126.062C205.798 125.857 205.952 125.563 205.952 125.18C205.952 124.863 205.849 124.615 205.644 124.438C205.448 124.251 205.121 124.102 204.664 123.99L203.474 123.724C202.914 123.593 202.47 123.36 202.144 123.024C201.826 122.688 201.668 122.296 201.668 121.848C201.668 121.232 201.901 120.742 202.368 120.378C202.844 120.005 203.474 119.818 204.258 119.818C204.752 119.818 205.21 119.897 205.63 120.056C206.059 120.215 206.414 120.443 206.694 120.742L206.372 121.4C205.728 120.84 205.023 120.56 204.258 120.56C203.716 120.56 203.296 120.667 202.998 120.882C202.699 121.097 202.55 121.395 202.55 121.778C202.55 122.095 202.643 122.352 202.83 122.548C203.026 122.744 203.324 122.889 203.726 122.982L204.93 123.276C206.19 123.556 206.82 124.177 206.82 125.138C206.82 125.726 206.577 126.202 206.092 126.566C205.606 126.921 204.953 127.098 204.132 127.098ZM209.889 120.672V124.844C209.889 125.404 209.996 125.791 210.211 126.006C210.426 126.221 210.743 126.328 211.163 126.328C211.424 126.328 211.676 126.286 211.919 126.202V126.972C211.62 127.047 211.317 127.084 211.009 127.084C210.393 127.084 209.908 126.911 209.553 126.566C209.208 126.221 209.035 125.703 209.035 125.012V120.672H207.649V119.986H209.035V118.124L209.889 117.802V119.986H211.961V120.672H209.889ZM216.202 127.098C215.558 127.098 214.989 126.949 214.494 126.65C214.009 126.351 213.631 125.927 213.36 125.376C213.099 124.825 212.968 124.186 212.968 123.458C212.968 122.73 213.099 122.091 213.36 121.54C213.631 120.989 214.009 120.565 214.494 120.266C214.989 119.967 215.558 119.818 216.202 119.818C216.837 119.818 217.397 119.967 217.882 120.266C218.367 120.565 218.741 120.989 219.002 121.54C219.273 122.091 219.408 122.73 219.408 123.458C219.408 124.186 219.273 124.825 219.002 125.376C218.741 125.927 218.367 126.351 217.882 126.65C217.397 126.949 216.837 127.098 216.202 127.098ZM216.188 126.342C216.935 126.342 217.509 126.095 217.91 125.6C218.321 125.096 218.526 124.382 218.526 123.458C218.526 122.543 218.321 121.834 217.91 121.33C217.499 120.817 216.93 120.56 216.202 120.56C215.465 120.56 214.891 120.817 214.48 121.33C214.069 121.834 213.864 122.543 213.864 123.458C213.864 124.391 214.065 125.105 214.466 125.6C214.867 126.095 215.441 126.342 216.188 126.342ZM224.301 119.818C224.535 119.818 224.74 119.837 224.917 119.874L224.875 120.644C224.698 120.607 224.483 120.588 224.231 120.588C223.522 120.588 222.99 120.817 222.635 121.274C222.29 121.722 222.117 122.259 222.117 122.884V127H221.277V121.932C221.277 121.204 221.24 120.555 221.165 119.986H221.977L222.089 121.288C222.267 120.812 222.551 120.448 222.943 120.196C223.345 119.944 223.797 119.818 224.301 119.818ZM231.971 119.986V127H231.117V125.656C230.912 126.123 230.599 126.482 230.179 126.734C229.769 126.977 229.274 127.098 228.695 127.098C228.07 127.098 227.519 126.953 227.043 126.664C226.577 126.365 226.213 125.945 225.951 125.404C225.699 124.853 225.573 124.214 225.573 123.486C225.573 122.758 225.704 122.119 225.965 121.568C226.227 121.008 226.591 120.579 227.057 120.28C227.533 119.972 228.079 119.818 228.695 119.818C229.265 119.818 229.755 119.939 230.165 120.182C230.585 120.425 230.903 120.779 231.117 121.246V119.986H231.971ZM228.821 126.342C229.549 126.342 230.114 126.09 230.515 125.586C230.917 125.082 231.117 124.373 231.117 123.458C231.117 122.534 230.917 121.82 230.515 121.316C230.114 120.812 229.545 120.56 228.807 120.56C228.07 120.56 227.496 120.821 227.085 121.344C226.675 121.857 226.469 122.571 226.469 123.486C226.469 124.391 226.675 125.096 227.085 125.6C227.496 126.095 228.075 126.342 228.821 126.342ZM240.299 119.986V127.028C240.299 128.045 240.047 128.815 239.543 129.338C239.039 129.861 238.297 130.122 237.317 130.122C236.272 130.122 235.362 129.87 234.587 129.366L234.755 128.624C235.212 128.895 235.632 129.086 236.015 129.198C236.398 129.31 236.836 129.366 237.331 129.366C238.031 129.366 238.558 129.175 238.913 128.792C239.277 128.409 239.459 127.849 239.459 127.112V125.306C239.244 125.782 238.927 126.151 238.507 126.412C238.087 126.664 237.583 126.79 236.995 126.79C236.379 126.79 235.833 126.645 235.357 126.356C234.881 126.057 234.508 125.647 234.237 125.124C233.976 124.592 233.845 123.985 233.845 123.304C233.845 122.613 233.976 122.007 234.237 121.484C234.508 120.952 234.881 120.541 235.357 120.252C235.833 119.963 236.379 119.818 236.995 119.818C237.583 119.818 238.082 119.939 238.493 120.182C238.913 120.425 239.23 120.779 239.445 121.246V119.986H240.299ZM237.107 126.02C237.835 126.02 238.404 125.777 238.815 125.292C239.235 124.807 239.445 124.144 239.445 123.304C239.445 122.455 239.235 121.787 238.815 121.302C238.404 120.807 237.835 120.56 237.107 120.56C236.37 120.56 235.791 120.807 235.371 121.302C234.951 121.787 234.741 122.455 234.741 123.304C234.741 124.153 234.951 124.821 235.371 125.306C235.791 125.782 236.37 126.02 237.107 126.02ZM243.067 123.388V123.43C243.067 124.373 243.282 125.096 243.711 125.6C244.15 126.095 244.784 126.342 245.615 126.342C246.455 126.342 247.225 126.053 247.925 125.474L248.261 126.146C247.953 126.435 247.561 126.669 247.085 126.846C246.609 127.014 246.119 127.098 245.615 127.098C244.551 127.098 243.711 126.776 243.095 126.132C242.479 125.488 242.171 124.601 242.171 123.472C242.171 122.753 242.306 122.119 242.577 121.568C242.857 121.008 243.244 120.579 243.739 120.28C244.234 119.972 244.803 119.818 245.447 119.818C246.371 119.818 247.09 120.117 247.603 120.714C248.126 121.311 248.387 122.142 248.387 123.206V123.388H243.067ZM245.447 120.518C244.803 120.518 244.28 120.714 243.879 121.106C243.478 121.489 243.226 122.03 243.123 122.73H247.575C247.519 122.011 247.309 121.465 246.945 121.092C246.581 120.709 246.082 120.518 245.447 120.518ZM251.215 125.782V126.678C251.215 127.033 251.159 127.359 251.047 127.658C250.935 127.957 250.748 128.237 250.487 128.498L250.039 128.148C250.356 127.793 250.533 127.411 250.571 127H250.025V125.782H251.215ZM62.112 140.986V148H61.258V146.656C61.0527 147.123 60.74 147.482 60.32 147.734C59.9093 147.977 59.4147 148.098 58.836 148.098C58.2107 148.098 57.66 147.953 57.184 147.664C56.7173 147.365 56.3533 146.945 56.092 146.404C55.84 145.853 55.714 145.214 55.714 144.486C55.714 143.758 55.8447 143.119 56.106 142.568C56.3673 142.008 56.7313 141.579 57.198 141.28C57.674 140.972 58.22 140.818 58.836 140.818C59.4053 140.818 59.8953 140.939 60.306 141.182C60.726 141.425 61.0433 141.779 61.258 142.246V140.986H62.112ZM58.962 147.342C59.69 147.342 60.2547 147.09 60.656 146.586C61.0573 146.082 61.258 145.373 61.258 144.458C61.258 143.534 61.0573 142.82 60.656 142.316C60.2547 141.812 59.6853 141.56 58.948 141.56C58.2107 141.56 57.6367 141.821 57.226 142.344C56.8153 142.857 56.61 143.571 56.61 144.486C56.61 145.391 56.8153 146.096 57.226 146.6C57.6367 147.095 58.2153 147.342 58.962 147.342ZM67.6955 140.818C69.3848 140.818 70.2295 141.723 70.2295 143.534V148H69.3755V143.59C69.3755 142.89 69.2308 142.377 68.9415 142.05C68.6615 141.723 68.2182 141.56 67.6115 141.56C66.9115 141.56 66.3468 141.775 65.9175 142.204C65.4882 142.633 65.2735 143.212 65.2735 143.94V148H64.4335V142.932C64.4335 142.204 64.3962 141.555 64.3215 140.986H65.1335L65.2455 142.274C65.4602 141.798 65.7822 141.439 66.2115 141.196C66.6408 140.944 67.1355 140.818 67.6955 140.818ZM74.8092 148.098C73.6706 148.098 72.7699 147.785 72.1072 147.16L72.4152 146.502C72.7886 146.81 73.1619 147.029 73.5352 147.16C73.9179 147.291 74.3566 147.356 74.8512 147.356C75.4299 147.356 75.8686 147.258 76.1672 147.062C76.4752 146.857 76.6292 146.563 76.6292 146.18C76.6292 145.863 76.5266 145.615 76.3212 145.438C76.1252 145.251 75.7986 145.102 75.3412 144.99L74.1512 144.724C73.5912 144.593 73.1479 144.36 72.8212 144.024C72.5039 143.688 72.3452 143.296 72.3452 142.848C72.3452 142.232 72.5786 141.742 73.0452 141.378C73.5212 141.005 74.1512 140.818 74.9352 140.818C75.4299 140.818 75.8872 140.897 76.3072 141.056C76.7366 141.215 77.0912 141.443 77.3712 141.742L77.0492 142.4C76.4052 141.84 75.7006 141.56 74.9352 141.56C74.3939 141.56 73.9739 141.667 73.6752 141.882C73.3766 142.097 73.2272 142.395 73.2272 142.778C73.2272 143.095 73.3206 143.352 73.5072 143.548C73.7032 143.744 74.0019 143.889 74.4032 143.982L75.6072 144.276C76.8672 144.556 77.4972 145.177 77.4972 146.138C77.4972 146.726 77.2546 147.202 76.7692 147.566C76.2839 147.921 75.6306 148.098 74.8092 148.098ZM89.7525 140.986L87.2045 148H86.3225L84.1945 142.078L82.0525 148H81.1565L78.6225 140.986H79.5325L81.6045 146.978L83.7885 140.986H84.6425L86.7565 146.978L88.8845 140.986H89.7525ZM91.7741 144.388V144.43C91.7741 145.373 91.9887 146.096 92.4181 146.6C92.8567 147.095 93.4914 147.342 94.3221 147.342C95.1621 147.342 95.9321 147.053 96.6321 146.474L96.9681 147.146C96.6601 147.435 96.2681 147.669 95.7921 147.846C95.3161 148.014 94.8261 148.098 94.3221 148.098C93.2581 148.098 92.4181 147.776 91.8021 147.132C91.1861 146.488 90.8781 145.601 90.8781 144.472C90.8781 143.753 91.0134 143.119 91.2841 142.568C91.5641 142.008 91.9514 141.579 92.4461 141.28C92.9407 140.972 93.5101 140.818 94.1541 140.818C95.0781 140.818 95.7967 141.117 96.3101 141.714C96.8327 142.311 97.0941 143.142 97.0941 144.206V144.388H91.7741ZM94.1541 141.518C93.5101 141.518 92.9874 141.714 92.5861 142.106C92.1847 142.489 91.9327 143.03 91.8301 143.73H96.2821C96.2261 143.011 96.0161 142.465 95.6521 142.092C95.2881 141.709 94.7887 141.518 94.1541 141.518ZM101.952 140.818C102.185 140.818 102.39 140.837 102.568 140.874L102.526 141.644C102.348 141.607 102.134 141.588 101.882 141.588C101.172 141.588 100.64 141.817 100.286 142.274C99.9403 142.722 99.7676 143.259 99.7676 143.884V148H98.9276V142.932C98.9276 142.204 98.8903 141.555 98.8156 140.986H99.6276L99.7396 142.288C99.917 141.812 100.202 141.448 100.594 141.196C100.995 140.944 101.448 140.818 101.952 140.818ZM106.022 148.098C104.883 148.098 103.983 147.785 103.32 147.16L103.628 146.502C104.001 146.81 104.375 147.029 104.748 147.16C105.131 147.291 105.569 147.356 106.064 147.356C106.643 147.356 107.081 147.258 107.38 147.062C107.688 146.857 107.842 146.563 107.842 146.18C107.842 145.863 107.739 145.615 107.534 145.438C107.338 145.251 107.011 145.102 106.554 144.99L105.364 144.724C104.804 144.593 104.361 144.36 104.034 144.024C103.717 143.688 103.558 143.296 103.558 142.848C103.558 142.232 103.791 141.742 104.258 141.378C104.734 141.005 105.364 140.818 106.148 140.818C106.643 140.818 107.1 140.897 107.52 141.056C107.949 141.215 108.304 141.443 108.584 141.742L108.262 142.4C107.618 141.84 106.913 141.56 106.148 141.56C105.607 141.56 105.187 141.667 104.888 141.882C104.589 142.097 104.44 142.395 104.44 142.778C104.44 143.095 104.533 143.352 104.72 143.548C104.916 143.744 105.215 143.889 105.616 143.982L106.82 144.276C108.08 144.556 108.71 145.177 108.71 146.138C108.71 146.726 108.467 147.202 107.982 147.566C107.497 147.921 106.843 148.098 106.022 148.098ZM120.176 140.986L117.166 148H116.284L113.316 140.986H114.226L116.76 147.146L119.308 140.986H120.176ZM127.464 140.986V148H126.61V146.656C126.404 147.123 126.092 147.482 125.672 147.734C125.261 147.977 124.766 148.098 124.188 148.098C123.562 148.098 123.012 147.953 122.536 147.664C122.069 147.365 121.705 146.945 121.444 146.404C121.192 145.853 121.066 145.214 121.066 144.486C121.066 143.758 121.196 143.119 121.458 142.568C121.719 142.008 122.083 141.579 122.55 141.28C123.026 140.972 123.572 140.818 124.188 140.818C124.757 140.818 125.247 140.939 125.658 141.182C126.078 141.425 126.395 141.779 126.61 142.246V140.986H127.464ZM124.314 147.342C125.042 147.342 125.606 147.09 126.008 146.586C126.409 146.082 126.61 145.373 126.61 144.458C126.61 143.534 126.409 142.82 126.008 142.316C125.606 141.812 125.037 141.56 124.3 141.56C123.562 141.56 122.988 141.821 122.578 142.344C122.167 142.857 121.962 143.571 121.962 144.486C121.962 145.391 122.167 146.096 122.578 146.6C122.988 147.095 123.567 147.342 124.314 147.342ZM132.809 140.818C133.042 140.818 133.248 140.837 133.425 140.874L133.383 141.644C133.206 141.607 132.991 141.588 132.739 141.588C132.03 141.588 131.498 141.817 131.143 142.274C130.798 142.722 130.625 143.259 130.625 143.884V148H129.785V142.932C129.785 142.204 129.748 141.555 129.673 140.986H130.485L130.597 142.288C130.774 141.812 131.059 141.448 131.451 141.196C131.852 140.944 132.305 140.818 132.809 140.818ZM134.666 140.986H135.506V148H134.666V140.986ZM135.674 138.088V139.18H134.54V138.088H135.674ZM138.299 144.388V144.43C138.299 145.373 138.514 146.096 138.943 146.6C139.382 147.095 140.017 147.342 140.847 147.342C141.687 147.342 142.457 147.053 143.157 146.474L143.493 147.146C143.185 147.435 142.793 147.669 142.317 147.846C141.841 148.014 141.351 148.098 140.847 148.098C139.783 148.098 138.943 147.776 138.327 147.132C137.711 146.488 137.403 145.601 137.403 144.472C137.403 143.753 137.539 143.119 137.809 142.568C138.089 142.008 138.477 141.579 138.971 141.28C139.466 140.972 140.035 140.818 140.679 140.818C141.603 140.818 142.322 141.117 142.835 141.714C143.358 142.311 143.619 143.142 143.619 144.206V144.388H138.299ZM140.679 141.518C140.035 141.518 139.513 141.714 139.111 142.106C138.71 142.489 138.458 143.03 138.355 143.73H142.807C142.751 143.011 142.541 142.465 142.177 142.092C141.813 141.709 141.314 141.518 140.679 141.518ZM151.403 137.696V148H150.549V146.656C150.344 147.123 150.031 147.482 149.611 147.734C149.2 147.977 148.706 148.098 148.127 148.098C147.511 148.098 146.965 147.949 146.489 147.65C146.022 147.342 145.658 146.913 145.397 146.362C145.136 145.802 145.005 145.158 145.005 144.43C145.005 143.702 145.131 143.067 145.383 142.526C145.644 141.975 146.008 141.555 146.475 141.266C146.951 140.967 147.502 140.818 148.127 140.818C148.696 140.818 149.186 140.939 149.597 141.182C150.017 141.425 150.334 141.779 150.549 142.246V137.696H151.403ZM148.239 147.342C148.976 147.342 149.546 147.09 149.947 146.586C150.348 146.082 150.549 145.373 150.549 144.458C150.549 143.543 150.348 142.834 149.947 142.33C149.546 141.817 148.981 141.56 148.253 141.56C147.506 141.56 146.928 141.812 146.517 142.316C146.106 142.82 145.901 143.525 145.901 144.43C145.901 145.345 146.106 146.059 146.517 146.572C146.928 147.085 147.502 147.342 148.239 147.342ZM167.737 140.986L165.189 148H164.307L162.179 142.078L160.037 148H159.141L156.607 140.986H157.517L159.589 146.978L161.773 140.986H162.627L164.741 146.978L166.869 140.986H167.737ZM169.379 140.986H170.219V148H169.379V140.986ZM170.387 138.088V139.18H169.253V138.088H170.387ZM178.514 137.696V148H177.66V146.656C177.455 147.123 177.142 147.482 176.722 147.734C176.312 147.977 175.817 148.098 175.238 148.098C174.622 148.098 174.076 147.949 173.6 147.65C173.134 147.342 172.77 146.913 172.508 146.362C172.247 145.802 172.116 145.158 172.116 144.43C172.116 143.702 172.242 143.067 172.494 142.526C172.756 141.975 173.12 141.555 173.586 141.266C174.062 140.967 174.613 140.818 175.238 140.818C175.808 140.818 176.298 140.939 176.708 141.182C177.128 141.425 177.446 141.779 177.66 142.246V137.696H178.514ZM175.35 147.342C176.088 147.342 176.657 147.09 177.058 146.586C177.46 146.082 177.66 145.373 177.66 144.458C177.66 143.543 177.46 142.834 177.058 142.33C176.657 141.817 176.092 141.56 175.364 141.56C174.618 141.56 174.039 141.812 173.628 142.316C173.218 142.82 173.012 143.525 173.012 144.43C173.012 145.345 173.218 146.059 173.628 146.572C174.039 147.085 174.613 147.342 175.35 147.342ZM181.284 144.388V144.43C181.284 145.373 181.498 146.096 181.928 146.6C182.366 147.095 183.001 147.342 183.832 147.342C184.672 147.342 185.442 147.053 186.142 146.474L186.478 147.146C186.17 147.435 185.778 147.669 185.302 147.846C184.826 148.014 184.336 148.098 183.832 148.098C182.768 148.098 181.928 147.776 181.312 147.132C180.696 146.488 180.388 145.601 180.388 144.472C180.388 143.753 180.523 143.119 180.794 142.568C181.074 142.008 181.461 141.579 181.956 141.28C182.45 140.972 183.02 140.818 183.664 140.818C184.588 140.818 185.306 141.117 185.82 141.714C186.342 142.311 186.604 143.142 186.604 144.206V144.388H181.284ZM183.664 141.518C183.02 141.518 182.497 141.714 182.096 142.106C181.694 142.489 181.442 143.03 181.34 143.73H185.792C185.736 143.011 185.526 142.465 185.162 142.092C184.798 141.709 184.298 141.518 183.664 141.518ZM188.437 137.696H189.277V148H188.437V137.696ZM197.573 140.986L194.269 148.728C193.942 149.493 193.532 150.053 193.037 150.408C192.552 150.772 191.94 151.029 191.203 151.178L191.035 150.506C191.707 150.347 192.211 150.142 192.547 149.89C192.892 149.638 193.182 149.241 193.415 148.7L193.709 148.014L190.713 140.986H191.623L194.157 147.146L196.705 140.986H197.573ZM212.991 140.986L210.443 148H209.561L207.433 142.078L205.291 148H204.395L201.861 140.986H202.771L204.843 146.978L207.027 140.986H207.881L209.995 146.978L212.123 140.986H212.991ZM214.633 140.986H215.473V148H214.633V140.986ZM215.641 138.088V139.18H214.507V138.088H215.641ZM219.008 141.672V145.844C219.008 146.404 219.116 146.791 219.33 147.006C219.545 147.221 219.862 147.328 220.282 147.328C220.544 147.328 220.796 147.286 221.038 147.202V147.972C220.74 148.047 220.436 148.084 220.128 148.084C219.512 148.084 219.027 147.911 218.672 147.566C218.327 147.221 218.154 146.703 218.154 146.012V141.672H216.768V140.986H218.154V139.124L219.008 138.802V140.986H221.08V141.672H219.008ZM225.797 140.818C227.486 140.818 228.331 141.723 228.331 143.534V148H227.477V143.59C227.477 142.89 227.332 142.377 227.043 142.05C226.763 141.723 226.32 141.56 225.713 141.56C225.013 141.56 224.448 141.775 224.019 142.204C223.59 142.633 223.375 143.212 223.375 143.94V148H222.535V137.696H223.375V142.204C223.599 141.747 223.921 141.401 224.341 141.168C224.761 140.935 225.246 140.818 225.797 140.818ZM235.387 141.672V145.844C235.387 146.404 235.494 146.791 235.709 147.006C235.924 147.221 236.241 147.328 236.661 147.328C236.922 147.328 237.174 147.286 237.417 147.202V147.972C237.118 148.047 236.815 148.084 236.507 148.084C235.891 148.084 235.406 147.911 235.051 147.566C234.706 147.221 234.533 146.703 234.533 146.012V141.672H233.147V140.986H234.533V139.124L235.387 138.802V140.986H237.459V141.672H235.387ZM242.176 140.818C243.865 140.818 244.71 141.723 244.71 143.534V148H243.856V143.59C243.856 142.89 243.711 142.377 243.422 142.05C243.142 141.723 242.699 141.56 242.092 141.56C241.392 141.56 240.827 141.775 240.398 142.204C239.969 142.633 239.754 143.212 239.754 143.94V148H238.914V137.696H239.754V142.204C239.978 141.747 240.3 141.401 240.72 141.168C241.14 140.935 241.625 140.818 242.176 140.818ZM247.456 144.388V144.43C247.456 145.373 247.67 146.096 248.1 146.6C248.538 147.095 249.173 147.342 250.004 147.342C250.844 147.342 251.614 147.053 252.314 146.474L252.65 147.146C252.342 147.435 251.95 147.669 251.474 147.846C250.998 148.014 250.508 148.098 250.004 148.098C248.94 148.098 248.1 147.776 247.484 147.132C246.868 146.488 246.56 145.601 246.56 144.472C246.56 143.753 246.695 143.119 246.966 142.568C247.246 142.008 247.633 141.579 248.128 141.28C248.622 140.972 249.192 140.818 249.836 140.818C250.76 140.818 251.478 141.117 251.992 141.714C252.514 142.311 252.776 143.142 252.776 144.206V144.388H247.456ZM249.836 141.518C249.192 141.518 248.669 141.714 248.268 142.106C247.866 142.489 247.614 143.03 247.512 143.73H251.964C251.908 143.011 251.698 142.465 251.334 142.092C250.97 141.709 250.47 141.518 249.836 141.518ZM63.722 161.818C65.2713 161.818 66.046 162.723 66.046 164.534V169H65.192V164.59C65.192 163.881 65.066 163.367 64.814 163.05C64.562 162.723 64.1607 162.56 63.61 162.56C62.966 162.56 62.4573 162.775 62.084 163.204C61.72 163.633 61.538 164.217 61.538 164.954V169H60.684V164.59C60.684 163.881 60.5533 163.367 60.292 163.05C60.04 162.723 59.6387 162.56 59.088 162.56C58.4533 162.56 57.9447 162.775 57.562 163.204C57.1887 163.633 57.002 164.217 57.002 164.954V169H56.162V163.932C56.162 163.204 56.1247 162.555 56.05 161.986H56.862L56.974 163.246C57.17 162.779 57.4593 162.425 57.842 162.182C58.234 161.939 58.6867 161.818 59.2 161.818C60.3293 161.818 61.0527 162.275 61.37 163.19C61.566 162.761 61.8693 162.425 62.28 162.182C62.7 161.939 63.1807 161.818 63.722 161.818ZM74.28 161.986V169H73.426V167.656C73.2206 168.123 72.908 168.482 72.488 168.734C72.0773 168.977 71.5826 169.098 71.004 169.098C70.3786 169.098 69.828 168.953 69.352 168.664C68.8853 168.365 68.5213 167.945 68.26 167.404C68.008 166.853 67.882 166.214 67.882 165.486C67.882 164.758 68.0126 164.119 68.274 163.568C68.5353 163.008 68.8993 162.579 69.366 162.28C69.842 161.972 70.388 161.818 71.004 161.818C71.5733 161.818 72.0633 161.939 72.474 162.182C72.894 162.425 73.2113 162.779 73.426 163.246V161.986H74.28ZM71.13 168.342C71.858 168.342 72.4226 168.09 72.824 167.586C73.2253 167.082 73.426 166.373 73.426 165.458C73.426 164.534 73.2253 163.82 72.824 163.316C72.4226 162.812 71.8533 162.56 71.116 162.56C70.3786 162.56 69.8046 162.821 69.394 163.344C68.9833 163.857 68.778 164.571 68.778 165.486C68.778 166.391 68.9833 167.096 69.394 167.6C69.8046 168.095 70.3833 168.342 71.13 168.342ZM74.7115 171.184C74.9635 171.259 75.1921 171.296 75.3975 171.296C75.7801 171.296 76.0741 171.189 76.2795 170.974C76.4941 170.759 76.6015 170.377 76.6015 169.826V161.986H77.4415V169.98C77.4415 170.68 77.2735 171.203 76.9375 171.548C76.6015 171.893 76.1395 172.066 75.5515 172.066C75.2901 172.066 75.0101 172.029 74.7115 171.954V171.184ZM77.6095 159.088V160.18H76.4755V159.088H77.6095ZM82.573 169.098C81.929 169.098 81.3597 168.949 80.865 168.65C80.3797 168.351 80.0017 167.927 79.731 167.376C79.4697 166.825 79.339 166.186 79.339 165.458C79.339 164.73 79.4697 164.091 79.731 163.54C80.0017 162.989 80.3797 162.565 80.865 162.266C81.3597 161.967 81.929 161.818 82.573 161.818C83.2077 161.818 83.7677 161.967 84.253 162.266C84.7383 162.565 85.1117 162.989 85.373 163.54C85.6437 164.091 85.779 164.73 85.779 165.458C85.779 166.186 85.6437 166.825 85.373 167.376C85.1117 167.927 84.7383 168.351 84.253 168.65C83.7677 168.949 83.2077 169.098 82.573 169.098ZM82.559 168.342C83.3057 168.342 83.8797 168.095 84.281 167.6C84.6917 167.096 84.897 166.382 84.897 165.458C84.897 164.543 84.6917 163.834 84.281 163.33C83.8703 162.817 83.301 162.56 82.573 162.56C81.8357 162.56 81.2617 162.817 80.851 163.33C80.4403 163.834 80.235 164.543 80.235 165.458C80.235 166.391 80.4357 167.105 80.837 167.6C81.2383 168.095 81.8123 168.342 82.559 168.342ZM90.6723 161.818C90.9057 161.818 91.111 161.837 91.2883 161.874L91.2463 162.644C91.069 162.607 90.8543 162.588 90.6023 162.588C89.893 162.588 89.361 162.817 89.0063 163.274C88.661 163.722 88.4883 164.259 88.4883 164.884V169H87.6483V163.932C87.6483 163.204 87.611 162.555 87.5363 161.986H88.3483L88.4603 163.288C88.6377 162.812 88.9223 162.448 89.3143 162.196C89.7157 161.944 90.1683 161.818 90.6723 161.818ZM92.5292 161.986H93.3692V169H92.5292V161.986ZM93.5372 159.088V160.18H92.4032V159.088H93.5372ZM96.9047 162.672V166.844C96.9047 167.404 97.0121 167.791 97.2267 168.006C97.4414 168.221 97.7587 168.328 98.1787 168.328C98.4401 168.328 98.6921 168.286 98.9347 168.202V168.972C98.6361 169.047 98.3327 169.084 98.0247 169.084C97.4087 169.084 96.9234 168.911 96.5687 168.566C96.2234 168.221 96.0507 167.703 96.0507 167.012V162.672H94.6647V161.986H96.0507V160.124L96.9047 159.802V161.986H98.9767V162.672H96.9047ZM106.45 161.986L103.146 169.728C102.819 170.493 102.409 171.053 101.914 171.408C101.429 171.772 100.817 172.029 100.08 172.178L99.9119 171.506C100.584 171.347 101.088 171.142 101.424 170.89C101.769 170.638 102.059 170.241 102.292 169.7L102.586 169.014L99.5899 161.986H100.5L103.034 168.146L105.582 161.986H106.45ZM108.344 167.782V168.678C108.344 169.033 108.288 169.359 108.176 169.658C108.064 169.957 107.877 170.237 107.616 170.498L107.168 170.148C107.485 169.793 107.662 169.411 107.7 169H107.154V167.782H108.344ZM120.377 168.244V169H114.091V168.356L117.633 164.394C118.137 163.815 118.501 163.307 118.725 162.868C118.949 162.42 119.061 161.977 119.061 161.538C119.061 160.941 118.889 160.483 118.543 160.166C118.207 159.839 117.722 159.676 117.087 159.676C116.107 159.676 115.151 160.077 114.217 160.88L113.853 160.194C114.245 159.811 114.735 159.503 115.323 159.27C115.911 159.037 116.499 158.92 117.087 158.92C117.974 158.92 118.669 159.153 119.173 159.62C119.687 160.077 119.943 160.703 119.943 161.496C119.943 162.065 119.808 162.621 119.537 163.162C119.276 163.703 118.847 164.305 118.249 164.968L115.253 168.244H120.377ZM128.66 159.032V159.676L123.928 169H122.99L127.694 159.788H122.248V159.032H128.66ZM132.84 165.024C132.103 165.024 131.529 164.767 131.118 164.254C130.708 163.741 130.502 162.98 130.502 161.972C130.502 160.964 130.708 160.208 131.118 159.704C131.529 159.191 132.103 158.934 132.84 158.934C133.587 158.934 134.166 159.191 134.576 159.704C134.996 160.208 135.206 160.964 135.206 161.972C135.206 162.98 134.996 163.741 134.576 164.254C134.156 164.767 133.578 165.024 132.84 165.024ZM132.854 169L138.608 159.032H139.504L133.75 169H132.854ZM132.84 164.352C133.363 164.352 133.746 164.161 133.988 163.778C134.24 163.395 134.366 162.793 134.366 161.972C134.366 161.16 134.24 160.563 133.988 160.18C133.746 159.788 133.363 159.592 132.84 159.592C132.336 159.592 131.958 159.788 131.706 160.18C131.454 160.563 131.328 161.16 131.328 161.972C131.328 162.793 131.45 163.395 131.692 163.778C131.944 164.161 132.327 164.352 132.84 164.352ZM139.504 169.098C138.767 169.098 138.188 168.841 137.768 168.328C137.358 167.815 137.152 167.054 137.152 166.046C137.152 165.029 137.358 164.268 137.768 163.764C138.179 163.26 138.758 163.008 139.504 163.008C140.251 163.008 140.83 163.26 141.24 163.764C141.651 164.268 141.856 165.029 141.856 166.046C141.856 167.054 141.646 167.815 141.226 168.328C140.816 168.841 140.242 169.098 139.504 169.098ZM139.504 168.426C140.018 168.426 140.396 168.235 140.638 167.852C140.89 167.469 141.016 166.867 141.016 166.046C141.016 165.234 140.89 164.637 140.638 164.254C140.396 163.871 140.018 163.68 139.504 163.68C138.991 163.68 138.608 163.871 138.356 164.254C138.114 164.637 137.992 165.234 137.992 166.046C137.992 166.867 138.114 167.469 138.356 167.852C138.608 168.235 138.991 168.426 139.504 168.426ZM144.847 167.782V168.678C144.847 169.033 144.791 169.359 144.679 169.658C144.567 169.957 144.381 170.237 144.119 170.498L143.671 170.148C143.989 169.793 144.166 169.411 144.203 169H143.657V167.782H144.847ZM153.549 161.818C153.783 161.818 153.988 161.837 154.165 161.874L154.123 162.644C153.946 162.607 153.731 162.588 153.479 162.588C152.77 162.588 152.238 162.817 151.883 163.274C151.538 163.722 151.365 164.259 151.365 164.884V169H150.525V163.932C150.525 163.204 150.488 162.555 150.413 161.986H151.225L151.337 163.288C151.515 162.812 151.799 162.448 152.191 162.196C152.593 161.944 153.045 161.818 153.549 161.818ZM155.717 165.388V165.43C155.717 166.373 155.932 167.096 156.361 167.6C156.8 168.095 157.435 168.342 158.265 168.342C159.105 168.342 159.875 168.053 160.575 167.474L160.911 168.146C160.603 168.435 160.211 168.669 159.735 168.846C159.259 169.014 158.769 169.098 158.265 169.098C157.201 169.098 156.361 168.776 155.745 168.132C155.129 167.488 154.821 166.601 154.821 165.472C154.821 164.753 154.957 164.119 155.227 163.568C155.507 163.008 155.895 162.579 156.389 162.28C156.884 161.972 157.453 161.818 158.097 161.818C159.021 161.818 159.74 162.117 160.253 162.714C160.776 163.311 161.037 164.142 161.037 165.206V165.388H155.717ZM158.097 162.518C157.453 162.518 156.931 162.714 156.529 163.106C156.128 163.489 155.876 164.03 155.773 164.73H160.225C160.169 164.011 159.959 163.465 159.595 163.092C159.231 162.709 158.732 162.518 158.097 162.518ZM165.153 169.098C164.014 169.098 163.114 168.785 162.451 168.16L162.759 167.502C163.132 167.81 163.506 168.029 163.879 168.16C164.262 168.291 164.7 168.356 165.195 168.356C165.774 168.356 166.212 168.258 166.511 168.062C166.819 167.857 166.973 167.563 166.973 167.18C166.973 166.863 166.87 166.615 166.665 166.438C166.469 166.251 166.142 166.102 165.685 165.99L164.495 165.724C163.935 165.593 163.492 165.36 163.165 165.024C162.848 164.688 162.689 164.296 162.689 163.848C162.689 163.232 162.922 162.742 163.389 162.378C163.865 162.005 164.495 161.818 165.279 161.818C165.774 161.818 166.231 161.897 166.651 162.056C167.08 162.215 167.435 162.443 167.715 162.742L167.393 163.4C166.749 162.84 166.044 162.56 165.279 162.56C164.738 162.56 164.318 162.667 164.019 162.882C163.72 163.097 163.571 163.395 163.571 163.778C163.571 164.095 163.664 164.352 163.851 164.548C164.047 164.744 164.346 164.889 164.747 164.982L165.951 165.276C167.211 165.556 167.841 166.177 167.841 167.138C167.841 167.726 167.598 168.202 167.113 168.566C166.628 168.921 165.974 169.098 165.153 169.098ZM173.065 161.818C173.681 161.818 174.222 161.972 174.689 162.28C175.165 162.579 175.534 163.008 175.795 163.568C176.056 164.119 176.187 164.758 176.187 165.486C176.187 166.214 176.056 166.849 175.795 167.39C175.543 167.931 175.179 168.351 174.703 168.65C174.227 168.949 173.681 169.098 173.065 169.098C172.477 169.098 171.973 168.972 171.553 168.72C171.142 168.459 170.834 168.085 170.629 167.6V172.024H169.789V163.932C169.789 163.204 169.752 162.555 169.677 161.986H170.489L170.601 163.358C170.806 162.863 171.119 162.485 171.539 162.224C171.968 161.953 172.477 161.818 173.065 161.818ZM172.953 168.342C173.69 168.342 174.264 168.095 174.675 167.6C175.086 167.096 175.291 166.391 175.291 165.486C175.291 164.571 175.086 163.857 174.675 163.344C174.264 162.821 173.695 162.56 172.967 162.56C172.22 162.56 171.646 162.812 171.245 163.316C170.844 163.82 170.643 164.534 170.643 165.458C170.643 166.373 170.844 167.082 171.245 167.586C171.646 168.09 172.216 168.342 172.953 168.342ZM180.846 169.098C180.202 169.098 179.633 168.949 179.138 168.65C178.653 168.351 178.275 167.927 178.004 167.376C177.743 166.825 177.612 166.186 177.612 165.458C177.612 164.73 177.743 164.091 178.004 163.54C178.275 162.989 178.653 162.565 179.138 162.266C179.633 161.967 180.202 161.818 180.846 161.818C181.481 161.818 182.041 161.967 182.526 162.266C183.012 162.565 183.385 162.989 183.646 163.54C183.917 164.091 184.052 164.73 184.052 165.458C184.052 166.186 183.917 166.825 183.646 167.376C183.385 167.927 183.012 168.351 182.526 168.65C182.041 168.949 181.481 169.098 180.846 169.098ZM180.832 168.342C181.579 168.342 182.153 168.095 182.554 167.6C182.965 167.096 183.17 166.382 183.17 165.458C183.17 164.543 182.965 163.834 182.554 163.33C182.144 162.817 181.574 162.56 180.846 162.56C180.109 162.56 179.535 162.817 179.124 163.33C178.714 163.834 178.508 164.543 178.508 165.458C178.508 166.391 178.709 167.105 179.11 167.6C179.512 168.095 180.086 168.342 180.832 168.342ZM189.184 161.818C190.873 161.818 191.718 162.723 191.718 164.534V169H190.864V164.59C190.864 163.89 190.719 163.377 190.43 163.05C190.15 162.723 189.706 162.56 189.1 162.56C188.4 162.56 187.835 162.775 187.406 163.204C186.976 163.633 186.762 164.212 186.762 164.94V169H185.922V163.932C185.922 163.204 185.884 162.555 185.81 161.986H186.622L186.734 163.274C186.948 162.798 187.27 162.439 187.7 162.196C188.129 161.944 188.624 161.818 189.184 161.818ZM199.966 158.696V169H199.112V167.656C198.906 168.123 198.594 168.482 198.174 168.734C197.763 168.977 197.268 169.098 196.69 169.098C196.074 169.098 195.528 168.949 195.052 168.65C194.585 168.342 194.221 167.913 193.96 167.362C193.698 166.802 193.568 166.158 193.568 165.43C193.568 164.702 193.694 164.067 193.946 163.526C194.207 162.975 194.571 162.555 195.038 162.266C195.514 161.967 196.064 161.818 196.69 161.818C197.259 161.818 197.749 161.939 198.16 162.182C198.58 162.425 198.897 162.779 199.112 163.246V158.696H199.966ZM196.802 168.342C197.539 168.342 198.108 168.09 198.51 167.586C198.911 167.082 199.112 166.373 199.112 165.458C199.112 164.543 198.911 163.834 198.51 163.33C198.108 162.817 197.544 162.56 196.816 162.56C196.069 162.56 195.49 162.812 195.08 163.316C194.669 163.82 194.464 164.525 194.464 165.43C194.464 166.345 194.669 167.059 195.08 167.572C195.49 168.085 196.064 168.342 196.802 168.342ZM202.287 161.986H203.127V169H202.287V161.986ZM203.295 159.088V160.18H202.161V159.088H203.295ZM208.735 161.818C210.424 161.818 211.269 162.723 211.269 164.534V169H210.415V164.59C210.415 163.89 210.27 163.377 209.981 163.05C209.701 162.723 209.257 162.56 208.651 162.56C207.951 162.56 207.386 162.775 206.957 163.204C206.527 163.633 206.313 164.212 206.313 164.94V169H205.473V163.932C205.473 163.204 205.435 162.555 205.361 161.986H206.173L206.285 163.274C206.499 162.798 206.821 162.439 207.251 162.196C207.68 161.944 208.175 161.818 208.735 161.818ZM219.572 161.986V169.028C219.572 170.045 219.32 170.815 218.816 171.338C218.312 171.861 217.57 172.122 216.59 172.122C215.545 172.122 214.635 171.87 213.86 171.366L214.028 170.624C214.486 170.895 214.906 171.086 215.288 171.198C215.671 171.31 216.11 171.366 216.604 171.366C217.304 171.366 217.832 171.175 218.186 170.792C218.55 170.409 218.732 169.849 218.732 169.112V167.306C218.518 167.782 218.2 168.151 217.78 168.412C217.36 168.664 216.856 168.79 216.268 168.79C215.652 168.79 215.106 168.645 214.63 168.356C214.154 168.057 213.781 167.647 213.51 167.124C213.249 166.592 213.118 165.985 213.118 165.304C213.118 164.613 213.249 164.007 213.51 163.484C213.781 162.952 214.154 162.541 214.63 162.252C215.106 161.963 215.652 161.818 216.268 161.818C216.856 161.818 217.356 161.939 217.766 162.182C218.186 162.425 218.504 162.779 218.718 163.246V161.986H219.572ZM216.38 168.02C217.108 168.02 217.678 167.777 218.088 167.292C218.508 166.807 218.718 166.144 218.718 165.304C218.718 164.455 218.508 163.787 218.088 163.302C217.678 162.807 217.108 162.56 216.38 162.56C215.643 162.56 215.064 162.807 214.644 163.302C214.224 163.787 214.014 164.455 214.014 165.304C214.014 166.153 214.224 166.821 214.644 167.306C215.064 167.782 215.643 168.02 216.38 168.02ZM62.392 182.93V190H60.684V188.908C60.46 189.3 60.1613 189.599 59.788 189.804C59.4147 190.009 58.9853 190.112 58.5 190.112C56.7733 190.112 55.91 189.141 55.91 187.2V182.93H57.646V187.214C57.646 187.727 57.7487 188.105 57.954 188.348C58.1687 188.591 58.4953 188.712 58.934 188.712C59.4473 188.712 59.858 188.544 60.166 188.208C60.474 187.872 60.628 187.424 60.628 186.864V182.93H62.392ZM68.3378 182.748C70.0272 182.748 70.8718 183.719 70.8718 185.66V190H69.1218V185.744C69.1218 185.184 69.0145 184.778 68.7998 184.526C68.5852 184.265 68.2538 184.134 67.8058 184.134C67.2738 184.134 66.8445 184.307 66.5178 184.652C66.1912 184.988 66.0278 185.436 66.0278 185.996V190H64.2918V184.932C64.2918 184.185 64.2545 183.518 64.1798 182.93H65.8178L65.9438 184.092C66.1865 183.663 66.5132 183.331 66.9238 183.098C67.3438 182.865 67.8152 182.748 68.3378 182.748ZM75.9334 190.112C75.1961 190.112 74.5567 189.963 74.0154 189.664C73.4741 189.365 73.0587 188.945 72.7694 188.404C72.4801 187.853 72.3354 187.209 72.3354 186.472C72.3354 185.735 72.4847 185.086 72.7834 184.526C73.0914 183.966 73.5207 183.532 74.0714 183.224C74.6314 182.907 75.2754 182.748 76.0034 182.748C76.5074 182.748 76.9927 182.827 77.4594 182.986C77.9354 183.145 78.3134 183.364 78.5934 183.644L78.1034 184.876C77.8047 184.633 77.4874 184.451 77.1514 184.33C76.8154 184.199 76.4841 184.134 76.1574 184.134C75.5227 184.134 75.0281 184.335 74.6734 184.736C74.3187 185.128 74.1414 185.697 74.1414 186.444C74.1414 187.191 74.3141 187.76 74.6594 188.152C75.0141 188.544 75.5134 188.74 76.1574 188.74C76.4841 188.74 76.8154 188.675 77.1514 188.544C77.4874 188.413 77.8047 188.227 78.1034 187.984L78.5934 189.216C78.2947 189.496 77.9074 189.715 77.4314 189.874C76.9554 190.033 76.4561 190.112 75.9334 190.112ZM85.9564 186.556H81.0844C81.1217 187.312 81.3084 187.872 81.6444 188.236C81.9897 188.591 82.4984 188.768 83.1704 188.768C83.9451 188.768 84.6637 188.516 85.3264 188.012L85.8304 189.216C85.4944 189.487 85.0791 189.706 84.5844 189.874C84.0991 190.033 83.6044 190.112 83.1004 190.112C81.9431 190.112 81.0331 189.785 80.3704 189.132C79.7077 188.479 79.3764 187.583 79.3764 186.444C79.3764 185.725 79.5211 185.086 79.8104 184.526C80.0997 183.966 80.5057 183.532 81.0284 183.224C81.5511 182.907 82.1437 182.748 82.8064 182.748C83.7771 182.748 84.5424 183.065 85.1024 183.7C85.6717 184.325 85.9564 185.189 85.9564 186.29V186.556ZM82.8484 184.008C82.3817 184.008 81.9991 184.148 81.7004 184.428C81.4111 184.699 81.2244 185.095 81.1404 185.618H84.4304C84.3744 185.086 84.2111 184.685 83.9404 184.414C83.6791 184.143 83.3151 184.008 82.8484 184.008ZM91.2463 182.762C91.517 182.762 91.7503 182.799 91.9463 182.874L91.9323 184.47C91.6337 184.349 91.3257 184.288 91.0083 184.288C90.411 184.288 89.9537 184.461 89.6363 184.806C89.3283 185.151 89.1743 185.609 89.1743 186.178V190H87.4383V184.932C87.4383 184.185 87.401 183.518 87.3263 182.93H88.9643L89.1043 184.176C89.2817 183.719 89.5617 183.369 89.9443 183.126C90.327 182.883 90.761 182.762 91.2463 182.762ZM95.7893 184.246V187.41C95.7893 188.241 96.1767 188.656 96.9513 188.656C97.166 188.656 97.3993 188.619 97.6513 188.544V189.93C97.3433 190.042 96.97 190.098 96.5313 190.098C95.7287 190.098 95.1127 189.874 94.6833 189.426C94.254 188.978 94.0393 188.334 94.0393 187.494V184.246H92.6813V182.93H94.0393V181.208L95.7893 180.62V182.93H97.6653V184.246H95.7893ZM105.63 182.93V190H103.908V188.866C103.693 189.258 103.385 189.566 102.984 189.79C102.583 190.005 102.125 190.112 101.612 190.112C100.996 190.112 100.45 189.963 99.974 189.664C99.498 189.365 99.1293 188.941 98.868 188.39C98.6067 187.839 98.476 187.2 98.476 186.472C98.476 185.744 98.6067 185.1 98.868 184.54C99.1387 183.971 99.512 183.532 99.988 183.224C100.464 182.907 101.005 182.748 101.612 182.748C102.125 182.748 102.583 182.86 102.984 183.084C103.385 183.299 103.693 183.602 103.908 183.994V182.93H105.63ZM102.088 188.74C102.667 188.74 103.115 188.539 103.432 188.138C103.749 187.737 103.908 187.172 103.908 186.444C103.908 185.697 103.749 185.123 103.432 184.722C103.115 184.321 102.662 184.12 102.074 184.12C101.495 184.12 101.043 184.33 100.716 184.75C100.399 185.161 100.24 185.735 100.24 186.472C100.24 187.2 100.399 187.76 100.716 188.152C101.043 188.544 101.5 188.74 102.088 188.74ZM107.536 182.93H109.272V190H107.536V182.93ZM109.37 179.724V181.446H107.424V179.724H109.37ZM115.232 182.748C116.922 182.748 117.766 183.719 117.766 185.66V190H116.016V185.744C116.016 185.184 115.909 184.778 115.694 184.526C115.48 184.265 115.148 184.134 114.7 184.134C114.168 184.134 113.739 184.307 113.412 184.652C113.086 184.988 112.922 185.436 112.922 185.996V190H111.186V184.932C111.186 184.185 111.149 183.518 111.074 182.93H112.712L112.838 184.092C113.081 183.663 113.408 183.331 113.818 183.098C114.238 182.865 114.71 182.748 115.232 182.748ZM121.848 184.246V187.41C121.848 188.241 122.235 188.656 123.01 188.656C123.225 188.656 123.458 188.619 123.71 188.544V189.93C123.402 190.042 123.029 190.098 122.59 190.098C121.787 190.098 121.171 189.874 120.742 189.426C120.313 188.978 120.098 188.334 120.098 187.494V184.246H118.74V182.93H120.098V181.208L121.848 180.62V182.93H123.724V184.246H121.848ZM131.742 182.93L128.452 190.476C128.078 191.353 127.602 191.993 127.024 192.394C126.445 192.795 125.731 193.061 124.882 193.192L124.49 191.848C125.152 191.699 125.647 191.507 125.974 191.274C126.31 191.05 126.58 190.714 126.786 190.266L127.01 189.748L124.07 182.93H125.904L127.934 188.012L130.006 182.93H131.742ZM147.749 182.93L144.977 190H143.451L141.701 185.366L139.993 190H138.453L135.681 182.93H137.473L139.293 187.914L141.127 182.93H142.387L144.221 187.956L146.041 182.93H147.749ZM148.852 182.93H150.588V190H148.852V182.93ZM150.686 179.724V181.446H148.74V179.724H150.686ZM154.729 184.246V187.41C154.729 188.241 155.116 188.656 155.891 188.656C156.105 188.656 156.339 188.619 156.591 188.544V189.93C156.283 190.042 155.909 190.098 155.471 190.098C154.668 190.098 154.052 189.874 153.623 189.426C153.193 188.978 152.979 188.334 152.979 187.494V184.246H151.621V182.93H152.979V181.208L154.729 180.62V182.93H156.605V184.246H154.729ZM161.853 182.748C163.543 182.748 164.387 183.719 164.387 185.66V190H162.637V185.744C162.637 185.184 162.53 184.778 162.315 184.526C162.101 184.265 161.769 184.134 161.321 184.134C160.789 184.134 160.36 184.307 160.033 184.652C159.707 184.988 159.543 185.436 159.543 185.996V190H157.807V179.696H159.543V183.952C159.786 183.569 160.108 183.275 160.509 183.07C160.911 182.855 161.359 182.748 161.853 182.748ZM172.675 190.112C171.396 190.112 170.379 189.813 169.623 189.216L170.113 187.984C170.869 188.544 171.732 188.824 172.703 188.824C173.123 188.824 173.445 188.754 173.669 188.614C173.902 188.474 174.019 188.278 174.019 188.026C174.019 187.811 173.939 187.643 173.781 187.522C173.622 187.391 173.351 187.279 172.969 187.186L171.793 186.92C170.505 186.64 169.861 185.982 169.861 184.946C169.861 184.517 169.982 184.139 170.225 183.812C170.467 183.476 170.808 183.215 171.247 183.028C171.685 182.841 172.194 182.748 172.773 182.748C173.277 182.748 173.762 182.827 174.229 182.986C174.695 183.135 175.106 183.355 175.461 183.644L174.943 184.834C174.233 184.311 173.505 184.05 172.759 184.05C172.357 184.05 172.045 184.125 171.821 184.274C171.597 184.423 171.485 184.629 171.485 184.89C171.485 185.095 171.55 185.259 171.681 185.38C171.821 185.501 172.054 185.604 172.381 185.688L173.585 185.954C174.285 186.113 174.793 186.36 175.111 186.696C175.437 187.023 175.601 187.452 175.601 187.984C175.601 188.637 175.339 189.155 174.817 189.538C174.294 189.921 173.58 190.112 172.675 190.112ZM183.286 186.556H178.414C178.452 187.312 178.638 187.872 178.974 188.236C179.32 188.591 179.828 188.768 180.5 188.768C181.275 188.768 181.994 188.516 182.656 188.012L183.16 189.216C182.824 189.487 182.409 189.706 181.914 189.874C181.429 190.033 180.934 190.112 180.43 190.112C179.273 190.112 178.363 189.785 177.7 189.132C177.038 188.479 176.706 187.583 176.706 186.444C176.706 185.725 176.851 185.086 177.14 184.526C177.43 183.966 177.836 183.532 178.358 183.224C178.881 182.907 179.474 182.748 180.136 182.748C181.107 182.748 181.872 183.065 182.432 183.7C183.002 184.325 183.286 185.189 183.286 186.29V186.556ZM180.178 184.008C179.712 184.008 179.329 184.148 179.03 184.428C178.741 184.699 178.554 185.095 178.47 185.618H181.76C181.704 185.086 181.541 184.685 181.27 184.414C181.009 184.143 180.645 184.008 180.178 184.008ZM187.974 190.112C187.237 190.112 186.598 189.963 186.056 189.664C185.515 189.365 185.1 188.945 184.81 188.404C184.521 187.853 184.376 187.209 184.376 186.472C184.376 185.735 184.526 185.086 184.824 184.526C185.132 183.966 185.562 183.532 186.112 183.224C186.672 182.907 187.316 182.748 188.044 182.748C188.548 182.748 189.034 182.827 189.5 182.986C189.976 183.145 190.354 183.364 190.634 183.644L190.144 184.876C189.846 184.633 189.528 184.451 189.192 184.33C188.856 184.199 188.525 184.134 188.198 184.134C187.564 184.134 187.069 184.335 186.714 184.736C186.36 185.128 186.182 185.697 186.182 186.444C186.182 187.191 186.355 187.76 186.7 188.152C187.055 188.544 187.554 188.74 188.198 188.74C188.525 188.74 188.856 188.675 189.192 188.544C189.528 188.413 189.846 188.227 190.144 187.984L190.634 189.216C190.336 189.496 189.948 189.715 189.472 189.874C188.996 190.033 188.497 190.112 187.974 190.112ZM198.249 182.93V190H196.541V188.908C196.317 189.3 196.019 189.599 195.645 189.804C195.272 190.009 194.843 190.112 194.357 190.112C192.631 190.112 191.767 189.141 191.767 187.2V182.93H193.503V187.214C193.503 187.727 193.606 188.105 193.811 188.348C194.026 188.591 194.353 188.712 194.791 188.712C195.305 188.712 195.715 188.544 196.023 188.208C196.331 187.872 196.485 187.424 196.485 186.864V182.93H198.249ZM203.957 182.762C204.228 182.762 204.461 182.799 204.657 182.874L204.643 184.47C204.345 184.349 204.037 184.288 203.719 184.288C203.122 184.288 202.665 184.461 202.347 184.806C202.039 185.151 201.885 185.609 201.885 186.178V190H200.149V184.932C200.149 184.185 200.112 183.518 200.037 182.93H201.675L201.815 184.176C201.993 183.719 202.273 183.369 202.655 183.126C203.038 182.883 203.472 182.762 203.957 182.762ZM205.632 182.93H207.368V190H205.632V182.93ZM207.466 179.724V181.446H205.52V179.724H207.466ZM211.508 184.246V187.41C211.508 188.241 211.895 188.656 212.67 188.656C212.885 188.656 213.118 188.619 213.37 188.544V189.93C213.062 190.042 212.689 190.098 212.25 190.098C211.447 190.098 210.831 189.874 210.402 189.426C209.973 188.978 209.758 188.334 209.758 187.494V184.246H208.4V182.93H209.758V181.208L211.508 180.62V182.93H213.384V184.246H211.508ZM221.402 182.93L218.112 190.476C217.738 191.353 217.262 191.993 216.684 192.394C216.105 192.795 215.391 193.061 214.542 193.192L214.15 191.848C214.812 191.699 215.307 191.507 215.634 191.274C215.97 191.05 216.24 190.714 216.446 190.266L216.67 189.748L213.73 182.93H215.564L217.594 188.012L219.666 182.93H221.402ZM223.515 188.782V190H222.325V188.782H223.515Z" fill="black"/>
<path d="M140.867 63.24V66H122.547V63.52L132.507 52.48C133.84 50.9867 134.813 49.64 135.427 48.44C136.04 47.24 136.347 46.04 136.347 44.84C136.347 43.2667 135.893 42.0667 134.987 41.24C134.08 40.3867 132.787 39.96 131.107 39.96C128.387 39.96 125.693 41.0533 123.027 43.24L121.787 40.72C122.907 39.6533 124.32 38.8 126.027 38.16C127.733 37.52 129.453 37.2 131.187 37.2C133.8 37.2 135.867 37.88 137.387 39.24C138.907 40.5733 139.667 42.3867 139.667 44.68C139.667 46.3067 139.293 47.88 138.547 49.4C137.827 50.8933 136.613 52.5733 134.907 54.44L126.787 63.24H140.867ZM164.611 37.52V39.96L151.251 66H147.731L161.011 40.28H145.811V37.52H164.611ZM176.275 54.6C174.115 54.6 172.435 53.8667 171.235 52.4C170.035 50.9333 169.435 48.76 169.435 45.88C169.435 43.0267 170.035 40.8667 171.235 39.4C172.435 37.9333 174.115 37.2 176.275 37.2C178.435 37.2 180.115 37.9333 181.315 39.4C182.542 40.8667 183.155 43.0267 183.155 45.88C183.155 48.76 182.542 50.9333 181.315 52.4C180.115 53.8667 178.435 54.6 176.275 54.6ZM176.155 66L192.635 37.52H195.795L179.315 66H176.155ZM176.275 52.28C177.609 52.28 178.582 51.7733 179.195 50.76C179.835 49.72 180.155 48.0933 180.155 45.88C180.155 43.6933 179.835 42.0933 179.195 41.08C178.582 40.04 177.609 39.52 176.275 39.52C174.969 39.52 173.995 40.04 173.355 41.08C172.715 42.0933 172.395 43.6933 172.395 45.88C172.395 48.0933 172.715 49.72 173.355 50.76C173.995 51.7733 174.969 52.28 176.275 52.28ZM195.675 66.28C193.515 66.28 191.835 65.5467 190.635 64.08C189.435 62.6133 188.835 60.44 188.835 57.56C188.835 54.68 189.435 52.52 190.635 51.08C191.835 49.6133 193.515 48.88 195.675 48.88C197.835 48.88 199.515 49.6133 200.715 51.08C201.942 52.52 202.555 54.68 202.555 57.56C202.555 60.44 201.942 62.6133 200.715 64.08C199.515 65.5467 197.835 66.28 195.675 66.28ZM195.675 63.96C197.035 63.96 198.022 63.4533 198.635 62.44C199.275 61.4267 199.595 59.8 199.595 57.56C199.595 55.3733 199.275 53.7733 198.635 52.76C197.995 51.72 197.009 51.2 195.675 51.2C194.342 51.2 193.355 51.72 192.715 52.76C192.102 53.7733 191.795 55.3733 191.795 57.56C191.795 59.7733 192.102 61.4 192.715 62.44C193.355 63.4533 194.342 63.96 195.675 63.96Z" fill="#A44935"/>
<defs>
<filter id="filter0_d" x="0" y="0" width="324" height="270" filterUnits="userSpaceOnUse" color-interpolation-filters="sRGB">
<feFlood flood-opacity="0" result="BackgroundImageFix"/>
<feColorMatrix in="SourceAlpha" type="matrix" values="0 0 0 0 0 0 0 0 0 0 0 0 0 0 0 0 0 0 127 0"/>
<feOffset dy="4"/>
<feGaussianBlur stdDeviation="2"/>
<feColorMatrix type="matrix" values="0 0 0 0 0 0 0 0 0 0 0 0 0 0 0 0 0 0 0.25 0"/>
<feBlend mode="normal" in2="BackgroundImageFix" result="effect1_dropShadow"/>
<feBlend mode="normal" in="SourceGraphic" in2="effect1_dropShadow" result="shape"/>
</filter>
</defs>
</svg>
