<svg width="324" height="270" viewBox="0 0 324 270" fill="none" xmlns="http://www.w3.org/2000/svg">
<g filter="url(#filter0_d)">
<rect x="4" width="316" height="262" rx="10" fill="#F3F3F2"/>
</g>
<path d="M69.98 96.032L66.508 106H65.752L62.756 97.418L59.746 106H59.004L55.532 96.032H56.4L59.396 104.796L62.42 96.032L63.106 96.046L66.116 104.768L69.112 96.032H69.98ZM74.9279 98.818C76.6172 98.818 77.4619 99.7233 77.4619 101.534V106H76.6079V101.59C76.6079 100.89 76.4632 100.377 76.1739 100.05C75.8939 99.7233 75.4506 99.56 74.8439 99.56C74.1439 99.56 73.5792 99.7747 73.1499 100.204C72.7206 100.633 72.5059 101.212 72.5059 101.94V106H71.6659V95.696H72.5059V100.204C72.7299 99.7467 73.0519 99.4013 73.4719 99.168C73.8919 98.9347 74.3772 98.818 74.9279 98.818ZM80.2077 102.388V102.43C80.2077 103.373 80.4223 104.096 80.8517 104.6C81.2903 105.095 81.925 105.342 82.7557 105.342C83.5957 105.342 84.3657 105.053 85.0657 104.474L85.4017 105.146C85.0937 105.435 84.7017 105.669 84.2257 105.846C83.7497 106.014 83.2597 106.098 82.7557 106.098C81.6917 106.098 80.8517 105.776 80.2357 105.132C79.6197 104.488 79.3117 103.601 79.3117 102.472C79.3117 101.753 79.447 101.119 79.7177 100.568C79.9977 100.008 80.385 99.5787 80.8797 99.28C81.3743 98.972 81.9437 98.818 82.5877 98.818C83.5117 98.818 84.2303 99.1167 84.7437 99.714C85.2663 100.311 85.5277 101.142 85.5277 102.206V102.388H80.2077ZM82.5877 99.518C81.9437 99.518 81.421 99.714 81.0197 100.106C80.6183 100.489 80.3663 101.03 80.2637 101.73H84.7157C84.6597 101.011 84.4497 100.465 84.0857 100.092C83.7217 99.7093 83.2223 99.518 82.5877 99.518ZM90.6232 98.818C92.3126 98.818 93.1572 99.7233 93.1572 101.534V106H92.3032V101.59C92.3032 100.89 92.1586 100.377 91.8692 100.05C91.5892 99.7233 91.1459 99.56 90.5392 99.56C89.8392 99.56 89.2746 99.7747 88.8452 100.204C88.4159 100.633 88.2012 101.212 88.2012 101.94V106H87.3612V100.932C87.3612 100.204 87.3239 99.5553 87.2492 98.986H88.0612L88.1732 100.274C88.3879 99.798 88.7099 99.4387 89.1392 99.196C89.5686 98.944 90.0632 98.818 90.6232 98.818ZM104.973 98.986V106H104.119V104.656C103.914 105.123 103.601 105.482 103.181 105.734C102.771 105.977 102.276 106.098 101.697 106.098C101.072 106.098 100.521 105.953 100.045 105.664C99.5787 105.365 99.2147 104.945 98.9533 104.404C98.7013 103.853 98.5753 103.214 98.5753 102.486C98.5753 101.758 98.706 101.119 98.9673 100.568C99.2287 100.008 99.5927 99.5787 100.059 99.28C100.535 98.972 101.081 98.818 101.697 98.818C102.267 98.818 102.757 98.9393 103.167 99.182C103.587 99.4247 103.905 99.7793 104.119 100.246V98.986H104.973ZM101.823 105.342C102.551 105.342 103.116 105.09 103.517 104.586C103.919 104.082 104.119 103.373 104.119 102.458C104.119 101.534 103.919 100.82 103.517 100.316C103.116 99.812 102.547 99.56 101.809 99.56C101.072 99.56 100.498 99.8213 100.087 100.344C99.6767 100.857 99.4713 101.571 99.4713 102.486C99.4713 103.391 99.6767 104.096 100.087 104.6C100.498 105.095 101.077 105.342 101.823 105.342ZM109.577 106.098C108.438 106.098 107.537 105.785 106.875 105.16L107.183 104.502C107.556 104.81 107.929 105.029 108.303 105.16C108.685 105.291 109.124 105.356 109.619 105.356C110.197 105.356 110.636 105.258 110.935 105.062C111.243 104.857 111.397 104.563 111.397 104.18C111.397 103.863 111.294 103.615 111.089 103.438C110.893 103.251 110.566 103.102 110.109 102.99L108.919 102.724C108.359 102.593 107.915 102.36 107.589 102.024C107.271 101.688 107.113 101.296 107.113 100.848C107.113 100.232 107.346 99.742 107.813 99.378C108.289 99.0047 108.919 98.818 109.703 98.818C110.197 98.818 110.655 98.8973 111.075 99.056C111.504 99.2147 111.859 99.4433 112.139 99.742L111.817 100.4C111.173 99.84 110.468 99.56 109.703 99.56C109.161 99.56 108.741 99.6673 108.443 99.882C108.144 100.097 107.995 100.395 107.995 100.778C107.995 101.095 108.088 101.352 108.275 101.548C108.471 101.744 108.769 101.889 109.171 101.982L110.375 102.276C111.635 102.556 112.265 103.177 112.265 104.138C112.265 104.726 112.022 105.202 111.537 105.566C111.051 105.921 110.398 106.098 109.577 106.098ZM118.917 106L115.053 102.584V106H114.213V95.696H115.053V102.248L118.581 98.986H119.687L116.019 102.36L120.079 106H118.917ZM121.497 102.388V102.43C121.497 103.373 121.711 104.096 122.141 104.6C122.579 105.095 123.214 105.342 124.045 105.342C124.885 105.342 125.655 105.053 126.355 104.474L126.691 105.146C126.383 105.435 125.991 105.669 125.515 105.846C125.039 106.014 124.549 106.098 124.045 106.098C122.981 106.098 122.141 105.776 121.525 105.132C120.909 104.488 120.601 103.601 120.601 102.472C120.601 101.753 120.736 101.119 121.007 100.568C121.287 100.008 121.674 99.5787 122.169 99.28C122.663 98.972 123.233 98.818 123.877 98.818C124.801 98.818 125.519 99.1167 126.033 99.714C126.555 100.311 126.817 101.142 126.817 102.206V102.388H121.497ZM123.877 99.518C123.233 99.518 122.71 99.714 122.309 100.106C121.907 100.489 121.655 101.03 121.553 101.73H126.005C125.949 101.011 125.739 100.465 125.375 100.092C125.011 99.7093 124.511 99.518 123.877 99.518ZM134.6 95.696V106H133.746V104.656C133.541 105.123 133.228 105.482 132.808 105.734C132.398 105.977 131.903 106.098 131.324 106.098C130.708 106.098 130.162 105.949 129.686 105.65C129.22 105.342 128.856 104.913 128.594 104.362C128.333 103.802 128.202 103.158 128.202 102.43C128.202 101.702 128.328 101.067 128.58 100.526C128.842 99.9753 129.206 99.5553 129.672 99.266C130.148 98.9673 130.699 98.818 131.324 98.818C131.894 98.818 132.384 98.9393 132.794 99.182C133.214 99.4247 133.532 99.7793 133.746 100.246V95.696H134.6ZM131.436 105.342C132.174 105.342 132.743 105.09 133.144 104.586C133.546 104.082 133.746 103.373 133.746 102.458C133.746 101.543 133.546 100.834 133.144 100.33C132.743 99.8167 132.178 99.56 131.45 99.56C130.704 99.56 130.125 99.812 129.714 100.316C129.304 100.82 129.098 101.525 129.098 102.43C129.098 103.345 129.304 104.059 129.714 104.572C130.125 105.085 130.699 105.342 131.436 105.342ZM150.934 98.986L148.386 106H147.504L145.376 100.078L143.234 106H142.338L139.804 98.986H140.714L142.786 104.978L144.97 98.986H145.824L147.938 104.978L150.066 98.986H150.934ZM155.838 98.818C157.527 98.818 158.372 99.7233 158.372 101.534V106H157.518V101.59C157.518 100.89 157.373 100.377 157.084 100.05C156.804 99.7233 156.361 99.56 155.754 99.56C155.054 99.56 154.489 99.7747 154.06 100.204C153.631 100.633 153.416 101.212 153.416 101.94V106H152.576V95.696H153.416V100.204C153.64 99.7467 153.962 99.4013 154.382 99.168C154.802 98.9347 155.287 98.818 155.838 98.818ZM166.62 98.986V106H165.766V104.656C165.56 105.123 165.248 105.482 164.828 105.734C164.417 105.977 163.922 106.098 163.344 106.098C162.718 106.098 162.168 105.953 161.692 105.664C161.225 105.365 160.861 104.945 160.6 104.404C160.348 103.853 160.222 103.214 160.222 102.486C160.222 101.758 160.352 101.119 160.614 100.568C160.875 100.008 161.239 99.5787 161.706 99.28C162.182 98.972 162.728 98.818 163.344 98.818C163.913 98.818 164.403 98.9393 164.814 99.182C165.234 99.4247 165.551 99.7793 165.766 100.246V98.986H166.62ZM163.47 105.342C164.198 105.342 164.762 105.09 165.164 104.586C165.565 104.082 165.766 103.373 165.766 102.458C165.766 101.534 165.565 100.82 165.164 100.316C164.762 99.812 164.193 99.56 163.456 99.56C162.718 99.56 162.144 99.8213 161.734 100.344C161.323 100.857 161.118 101.571 161.118 102.486C161.118 103.391 161.323 104.096 161.734 104.6C162.144 105.095 162.723 105.342 163.47 105.342ZM170.131 99.672V103.844C170.131 104.404 170.239 104.791 170.453 105.006C170.668 105.221 170.985 105.328 171.405 105.328C171.667 105.328 171.919 105.286 172.161 105.202V105.972C171.863 106.047 171.559 106.084 171.251 106.084C170.635 106.084 170.15 105.911 169.795 105.566C169.45 105.221 169.277 104.703 169.277 104.012V99.672H167.891V98.986H169.277V97.124L170.131 96.802V98.986H172.203V99.672H170.131ZM178.416 99.672V103.844C178.416 104.404 178.524 104.791 178.738 105.006C178.953 105.221 179.27 105.328 179.69 105.328C179.952 105.328 180.204 105.286 180.446 105.202V105.972C180.148 106.047 179.844 106.084 179.536 106.084C178.92 106.084 178.435 105.911 178.08 105.566C177.735 105.221 177.562 104.703 177.562 104.012V99.672H176.176V98.986H177.562V97.124L178.416 96.802V98.986H180.488V99.672H178.416ZM185.205 98.818C186.895 98.818 187.739 99.7233 187.739 101.534V106H186.885V101.59C186.885 100.89 186.741 100.377 186.451 100.05C186.171 99.7233 185.728 99.56 185.121 99.56C184.421 99.56 183.857 99.7747 183.427 100.204C182.998 100.633 182.783 101.212 182.783 101.94V106H181.943V95.696H182.783V100.204C183.007 99.7467 183.329 99.4013 183.749 99.168C184.169 98.9347 184.655 98.818 185.205 98.818ZM190.485 102.388V102.43C190.485 103.373 190.7 104.096 191.129 104.6C191.568 105.095 192.202 105.342 193.033 105.342C193.873 105.342 194.643 105.053 195.343 104.474L195.679 105.146C195.371 105.435 194.979 105.669 194.503 105.846C194.027 106.014 193.537 106.098 193.033 106.098C191.969 106.098 191.129 105.776 190.513 105.132C189.897 104.488 189.589 103.601 189.589 102.472C189.589 101.753 189.724 101.119 189.995 100.568C190.275 100.008 190.662 99.5787 191.157 99.28C191.652 98.972 192.221 98.818 192.865 98.818C193.789 98.818 194.508 99.1167 195.021 99.714C195.544 100.311 195.805 101.142 195.805 102.206V102.388H190.485ZM192.865 99.518C192.221 99.518 191.698 99.714 191.297 100.106C190.896 100.489 190.644 101.03 190.541 101.73H194.993C194.937 101.011 194.727 100.465 194.363 100.092C193.999 99.7093 193.5 99.518 192.865 99.518ZM208.767 98.818C210.316 98.818 211.091 99.7233 211.091 101.534V106H210.237V101.59C210.237 100.881 210.111 100.367 209.859 100.05C209.607 99.7233 209.206 99.56 208.655 99.56C208.011 99.56 207.502 99.7747 207.129 100.204C206.765 100.633 206.583 101.217 206.583 101.954V106H205.729V101.59C205.729 100.881 205.598 100.367 205.337 100.05C205.085 99.7233 204.684 99.56 204.133 99.56C203.498 99.56 202.99 99.7747 202.607 100.204C202.234 100.633 202.047 101.217 202.047 101.954V106H201.207V100.932C201.207 100.204 201.17 99.5553 201.095 98.986H201.907L202.019 100.246C202.215 99.7793 202.504 99.4247 202.887 99.182C203.279 98.9393 203.732 98.818 204.245 98.818C205.374 98.818 206.098 99.2753 206.415 100.19C206.611 99.7607 206.914 99.4247 207.325 99.182C207.745 98.9393 208.226 98.818 208.767 98.818ZM219.325 98.986V106H218.471V104.656C218.266 105.123 217.953 105.482 217.533 105.734C217.122 105.977 216.628 106.098 216.049 106.098C215.424 106.098 214.873 105.953 214.397 105.664C213.93 105.365 213.566 104.945 213.305 104.404C213.053 103.853 212.927 103.214 212.927 102.486C212.927 101.758 213.058 101.119 213.319 100.568C213.58 100.008 213.944 99.5787 214.411 99.28C214.887 98.972 215.433 98.818 216.049 98.818C216.618 98.818 217.108 98.9393 217.519 99.182C217.939 99.4247 218.256 99.7793 218.471 100.246V98.986H219.325ZM216.175 105.342C216.903 105.342 217.468 105.09 217.869 104.586C218.27 104.082 218.471 103.373 218.471 102.458C218.471 101.534 218.27 100.82 217.869 100.316C217.468 99.812 216.898 99.56 216.161 99.56C215.424 99.56 214.85 99.8213 214.439 100.344C214.028 100.857 213.823 101.571 213.823 102.486C213.823 103.391 214.028 104.096 214.439 104.6C214.85 105.095 215.428 105.342 216.175 105.342ZM221.646 98.986H222.486V106H221.646V98.986ZM222.654 96.088V97.18H221.52V96.088H222.654ZM228.094 98.818C229.783 98.818 230.628 99.7233 230.628 101.534V106H229.774V101.59C229.774 100.89 229.629 100.377 229.34 100.05C229.06 99.7233 228.617 99.56 228.01 99.56C227.31 99.56 226.745 99.7747 226.316 100.204C225.887 100.633 225.672 101.212 225.672 101.94V106H224.832V100.932C224.832 100.204 224.795 99.5553 224.72 98.986H225.532L225.644 100.274C225.859 99.798 226.181 99.4387 226.61 99.196C227.039 98.944 227.534 98.818 228.094 98.818ZM62.112 119.986V127H61.258V125.656C61.0527 126.123 60.74 126.482 60.32 126.734C59.9093 126.977 59.4147 127.098 58.836 127.098C58.2107 127.098 57.66 126.953 57.184 126.664C56.7173 126.365 56.3533 125.945 56.092 125.404C55.84 124.853 55.714 124.214 55.714 123.486C55.714 122.758 55.8447 122.119 56.106 121.568C56.3673 121.008 56.7313 120.579 57.198 120.28C57.674 119.972 58.22 119.818 58.836 119.818C59.4053 119.818 59.8953 119.939 60.306 120.182C60.726 120.425 61.0433 120.779 61.258 121.246V119.986H62.112ZM58.962 126.342C59.69 126.342 60.2547 126.09 60.656 125.586C61.0573 125.082 61.258 124.373 61.258 123.458C61.258 122.534 61.0573 121.82 60.656 121.316C60.2547 120.812 59.6853 120.56 58.948 120.56C58.2107 120.56 57.6367 120.821 57.226 121.344C56.8153 121.857 56.61 122.571 56.61 123.486C56.61 124.391 56.8153 125.096 57.226 125.6C57.6367 126.095 58.2153 126.342 58.962 126.342ZM70.3835 116.696V127H69.5295V125.656C69.3242 126.123 69.0115 126.482 68.5915 126.734C68.1808 126.977 67.6862 127.098 67.1075 127.098C66.4915 127.098 65.9455 126.949 65.4695 126.65C65.0028 126.342 64.6388 125.913 64.3775 125.362C64.1162 124.802 63.9855 124.158 63.9855 123.43C63.9855 122.702 64.1115 122.067 64.3635 121.526C64.6248 120.975 64.9888 120.555 65.4555 120.266C65.9315 119.967 66.4822 119.818 67.1075 119.818C67.6768 119.818 68.1668 119.939 68.5775 120.182C68.9975 120.425 69.3148 120.779 69.5295 121.246V116.696H70.3835ZM67.2195 126.342C67.9568 126.342 68.5262 126.09 68.9275 125.586C69.3288 125.082 69.5295 124.373 69.5295 123.458C69.5295 122.543 69.3288 121.834 68.9275 121.33C68.5262 120.817 67.9615 120.56 67.2335 120.56C66.4868 120.56 65.9082 120.812 65.4975 121.316C65.0868 121.82 64.8815 122.525 64.8815 123.43C64.8815 124.345 65.0868 125.059 65.4975 125.572C65.9082 126.085 66.4822 126.342 67.2195 126.342ZM78.655 119.986L75.645 127H74.763L71.795 119.986H72.705L75.239 126.146L77.787 119.986H78.655ZM85.9421 119.986V127H85.0881V125.656C84.8827 126.123 84.5701 126.482 84.1501 126.734C83.7394 126.977 83.2447 127.098 82.6661 127.098C82.0407 127.098 81.4901 126.953 81.0141 126.664C80.5474 126.365 80.1834 125.945 79.9221 125.404C79.6701 124.853 79.5441 124.214 79.5441 123.486C79.5441 122.758 79.6747 122.119 79.9361 121.568C80.1974 121.008 80.5614 120.579 81.0281 120.28C81.5041 119.972 82.0501 119.818 82.6661 119.818C83.2354 119.818 83.7254 119.939 84.1361 120.182C84.5561 120.425 84.8734 120.779 85.0881 121.246V119.986H85.9421ZM82.7921 126.342C83.5201 126.342 84.0847 126.09 84.4861 125.586C84.8874 125.082 85.0881 124.373 85.0881 123.458C85.0881 122.534 84.8874 121.82 84.4861 121.316C84.0847 120.812 83.5154 120.56 82.7781 120.56C82.0407 120.56 81.4667 120.821 81.0561 121.344C80.6454 121.857 80.4401 122.571 80.4401 123.486C80.4401 124.391 80.6454 125.096 81.0561 125.6C81.4667 126.095 82.0454 126.342 82.7921 126.342ZM91.5256 119.818C93.2149 119.818 94.0596 120.723 94.0596 122.534V127H93.2056V122.59C93.2056 121.89 93.0609 121.377 92.7716 121.05C92.4916 120.723 92.0482 120.56 91.4416 120.56C90.7416 120.56 90.1769 120.775 89.7476 121.204C89.3182 121.633 89.1036 122.212 89.1036 122.94V127H88.2636V121.932C88.2636 121.204 88.2262 120.555 88.1516 119.986H88.9636L89.0756 121.274C89.2902 120.798 89.6122 120.439 90.0416 120.196C90.4709 119.944 90.9656 119.818 91.5256 119.818ZM97.5473 120.672V124.844C97.5473 125.404 97.6546 125.791 97.8693 126.006C98.084 126.221 98.4013 126.328 98.8213 126.328C99.0826 126.328 99.3346 126.286 99.5773 126.202V126.972C99.2786 127.047 98.9753 127.084 98.6673 127.084C98.0513 127.084 97.566 126.911 97.2113 126.566C96.866 126.221 96.6933 125.703 96.6933 125.012V120.672H95.3073V119.986H96.6933V118.124L97.5473 117.802V119.986H99.6193V120.672H97.5473ZM107.024 119.986V127H106.17V125.656C105.965 126.123 105.652 126.482 105.232 126.734C104.821 126.977 104.327 127.098 103.748 127.098C103.123 127.098 102.572 126.953 102.096 126.664C101.629 126.365 101.265 125.945 101.004 125.404C100.752 124.853 100.626 124.214 100.626 123.486C100.626 122.758 100.757 122.119 101.018 121.568C101.279 121.008 101.643 120.579 102.11 120.28C102.586 119.972 103.132 119.818 103.748 119.818C104.317 119.818 104.807 119.939 105.218 120.182C105.638 120.425 105.955 120.779 106.17 121.246V119.986H107.024ZM103.874 126.342C104.602 126.342 105.167 126.09 105.568 125.586C105.969 125.082 106.17 124.373 106.17 123.458C106.17 122.534 105.969 121.82 105.568 121.316C105.167 120.812 104.597 120.56 103.86 120.56C103.123 120.56 102.549 120.821 102.138 121.344C101.727 121.857 101.522 122.571 101.522 123.486C101.522 124.391 101.727 125.096 102.138 125.6C102.549 126.095 103.127 126.342 103.874 126.342ZM115.352 119.986V127.028C115.352 128.045 115.1 128.815 114.596 129.338C114.092 129.861 113.35 130.122 112.37 130.122C111.324 130.122 110.414 129.87 109.64 129.366L109.808 128.624C110.265 128.895 110.685 129.086 111.068 129.198C111.45 129.31 111.889 129.366 112.384 129.366C113.084 129.366 113.611 129.175 113.966 128.792C114.33 128.409 114.512 127.849 114.512 127.112V125.306C114.297 125.782 113.98 126.151 113.56 126.412C113.14 126.664 112.636 126.79 112.048 126.79C111.432 126.79 110.886 126.645 110.41 126.356C109.934 126.057 109.56 125.647 109.29 125.124C109.028 124.592 108.898 123.985 108.898 123.304C108.898 122.613 109.028 122.007 109.29 121.484C109.56 120.952 109.934 120.541 110.41 120.252C110.886 119.963 111.432 119.818 112.048 119.818C112.636 119.818 113.135 119.939 113.546 120.182C113.966 120.425 114.283 120.779 114.498 121.246V119.986H115.352ZM112.16 126.02C112.888 126.02 113.457 125.777 113.868 125.292C114.288 124.807 114.498 124.144 114.498 123.304C114.498 122.455 114.288 121.787 113.868 121.302C113.457 120.807 112.888 120.56 112.16 120.56C111.422 120.56 110.844 120.807 110.424 121.302C110.004 121.787 109.794 122.455 109.794 123.304C109.794 124.153 110.004 124.821 110.424 125.306C110.844 125.782 111.422 126.02 112.16 126.02ZM118.12 123.388V123.43C118.12 124.373 118.334 125.096 118.764 125.6C119.202 126.095 119.837 126.342 120.668 126.342C121.508 126.342 122.278 126.053 122.978 125.474L123.314 126.146C123.006 126.435 122.614 126.669 122.138 126.846C121.662 127.014 121.172 127.098 120.668 127.098C119.604 127.098 118.764 126.776 118.148 126.132C117.532 125.488 117.224 124.601 117.224 123.472C117.224 122.753 117.359 122.119 117.63 121.568C117.91 121.008 118.297 120.579 118.792 120.28C119.286 119.972 119.856 119.818 120.5 119.818C121.424 119.818 122.142 120.117 122.656 120.714C123.178 121.311 123.44 122.142 123.44 123.206V123.388H118.12ZM120.5 120.518C119.856 120.518 119.333 120.714 118.932 121.106C118.53 121.489 118.278 122.03 118.176 122.73H122.628C122.572 122.011 122.362 121.465 121.998 121.092C121.634 120.709 121.134 120.518 120.5 120.518ZM139.286 119.986L136.738 127H135.856L133.728 121.078L131.586 127H130.69L128.156 119.986H129.066L131.138 125.978L133.322 119.986H134.176L136.29 125.978L138.418 119.986H139.286ZM146.809 119.986V127H145.955V125.656C145.75 126.123 145.437 126.482 145.017 126.734C144.607 126.977 144.112 127.098 143.533 127.098C142.908 127.098 142.357 126.953 141.881 126.664C141.415 126.365 141.051 125.945 140.789 125.404C140.537 124.853 140.411 124.214 140.411 123.486C140.411 122.758 140.542 122.119 140.803 121.568C141.065 121.008 141.429 120.579 141.895 120.28C142.371 119.972 142.917 119.818 143.533 119.818C144.103 119.818 144.593 119.939 145.003 120.182C145.423 120.425 145.741 120.779 145.955 121.246V119.986H146.809ZM143.659 126.342C144.387 126.342 144.952 126.09 145.353 125.586C145.755 125.082 145.955 124.373 145.955 123.458C145.955 122.534 145.755 121.82 145.353 121.316C144.952 120.812 144.383 120.56 143.645 120.56C142.908 120.56 142.334 120.821 141.923 121.344C141.513 121.857 141.307 122.571 141.307 123.486C141.307 124.391 141.513 125.096 141.923 125.6C142.334 126.095 142.913 126.342 143.659 126.342ZM151.413 127.098C150.274 127.098 149.373 126.785 148.711 126.16L149.019 125.502C149.392 125.81 149.765 126.029 150.139 126.16C150.521 126.291 150.96 126.356 151.455 126.356C152.033 126.356 152.472 126.258 152.771 126.062C153.079 125.857 153.233 125.563 153.233 125.18C153.233 124.863 153.13 124.615 152.925 124.438C152.729 124.251 152.402 124.102 151.945 123.99L150.755 123.724C150.195 123.593 149.751 123.36 149.425 123.024C149.107 122.688 148.949 122.296 148.949 121.848C148.949 121.232 149.182 120.742 149.649 120.378C150.125 120.005 150.755 119.818 151.539 119.818C152.033 119.818 152.491 119.897 152.911 120.056C153.34 120.215 153.695 120.443 153.975 120.742L153.653 121.4C153.009 120.84 152.304 120.56 151.539 120.56C150.997 120.56 150.577 120.667 150.279 120.882C149.98 121.097 149.831 121.395 149.831 121.778C149.831 122.095 149.924 122.352 150.111 122.548C150.307 122.744 150.605 122.889 151.007 122.982L152.211 123.276C153.471 123.556 154.101 124.177 154.101 125.138C154.101 125.726 153.858 126.202 153.373 126.566C152.887 126.921 152.234 127.098 151.413 127.098ZM160.807 120.672V124.844C160.807 125.404 160.914 125.791 161.129 126.006C161.344 126.221 161.661 126.328 162.081 126.328C162.342 126.328 162.594 126.286 162.837 126.202V126.972C162.538 127.047 162.235 127.084 161.927 127.084C161.311 127.084 160.826 126.911 160.471 126.566C160.126 126.221 159.953 125.703 159.953 125.012V120.672H158.567V119.986H159.953V118.124L160.807 117.802V119.986H162.879V120.672H160.807ZM167.12 127.098C166.476 127.098 165.907 126.949 165.412 126.65C164.927 126.351 164.549 125.927 164.278 125.376C164.017 124.825 163.886 124.186 163.886 123.458C163.886 122.73 164.017 122.091 164.278 121.54C164.549 120.989 164.927 120.565 165.412 120.266C165.907 119.967 166.476 119.818 167.12 119.818C167.755 119.818 168.315 119.967 168.8 120.266C169.285 120.565 169.659 120.989 169.92 121.54C170.191 122.091 170.326 122.73 170.326 123.458C170.326 124.186 170.191 124.825 169.92 125.376C169.659 125.927 169.285 126.351 168.8 126.65C168.315 126.949 167.755 127.098 167.12 127.098ZM167.106 126.342C167.853 126.342 168.427 126.095 168.828 125.6C169.239 125.096 169.444 124.382 169.444 123.458C169.444 122.543 169.239 121.834 168.828 121.33C168.417 120.817 167.848 120.56 167.12 120.56C166.383 120.56 165.809 120.817 165.398 121.33C164.987 121.834 164.782 122.543 164.782 123.458C164.782 124.391 164.983 125.105 165.384 125.6C165.785 126.095 166.359 126.342 167.106 126.342ZM181.406 119.986V127H180.58V125.726C180.356 126.174 180.038 126.515 179.628 126.748C179.217 126.981 178.746 127.098 178.214 127.098C177.392 127.098 176.772 126.869 176.352 126.412C175.932 125.955 175.722 125.278 175.722 124.382V119.986H176.562V124.326C176.562 125.017 176.702 125.525 176.982 125.852C177.262 126.179 177.696 126.342 178.284 126.342C178.974 126.342 179.525 126.127 179.936 125.698C180.346 125.259 180.552 124.681 180.552 123.962V119.986H181.406ZM184.924 120.672V124.844C184.924 125.404 185.032 125.791 185.246 126.006C185.461 126.221 185.778 126.328 186.198 126.328C186.46 126.328 186.712 126.286 186.954 126.202V126.972C186.656 127.047 186.352 127.084 186.044 127.084C185.428 127.084 184.943 126.911 184.588 126.566C184.243 126.221 184.07 125.703 184.07 125.012V120.672H182.684V119.986H184.07V118.124L184.924 117.802V119.986H186.996V120.672H184.924ZM188.451 119.986H189.291V127H188.451V119.986ZM189.459 117.088V118.18H188.325V117.088H189.459ZM191.637 116.696H192.477V127H191.637V116.696ZM194.822 119.986H195.662V127H194.822V119.986ZM195.83 117.088V118.18H194.696V117.088H195.83ZM203.412 126.3V127H197.56V126.412L202.222 120.672H197.728V119.986H203.258V120.63L198.652 126.3H203.412ZM205.213 119.986H206.053V127H205.213V119.986ZM206.221 117.088V118.18H205.087V117.088H206.221ZM211.66 119.818C213.35 119.818 214.194 120.723 214.194 122.534V127H213.34V122.59C213.34 121.89 213.196 121.377 212.906 121.05C212.626 120.723 212.183 120.56 211.576 120.56C210.876 120.56 210.312 120.775 209.882 121.204C209.453 121.633 209.238 122.212 209.238 122.94V127H208.398V121.932C208.398 121.204 208.361 120.555 208.286 119.986H209.098L209.21 121.274C209.425 120.798 209.747 120.439 210.176 120.196C210.606 119.944 211.1 119.818 211.66 119.818ZM222.498 119.986V127.028C222.498 128.045 222.246 128.815 221.742 129.338C221.238 129.861 220.496 130.122 219.516 130.122C218.471 130.122 217.561 129.87 216.786 129.366L216.954 128.624C217.411 128.895 217.831 129.086 218.214 129.198C218.597 129.31 219.035 129.366 219.53 129.366C220.23 129.366 220.757 129.175 221.112 128.792C221.476 128.409 221.658 127.849 221.658 127.112V125.306C221.443 125.782 221.126 126.151 220.706 126.412C220.286 126.664 219.782 126.79 219.194 126.79C218.578 126.79 218.032 126.645 217.556 126.356C217.08 126.057 216.707 125.647 216.436 125.124C216.175 124.592 216.044 123.985 216.044 123.304C216.044 122.613 216.175 122.007 216.436 121.484C216.707 120.952 217.08 120.541 217.556 120.252C218.032 119.963 218.578 119.818 219.194 119.818C219.782 119.818 220.281 119.939 220.692 120.182C221.112 120.425 221.429 120.779 221.644 121.246V119.986H222.498ZM219.306 126.02C220.034 126.02 220.603 125.777 221.014 125.292C221.434 124.807 221.644 124.144 221.644 123.304C221.644 122.455 221.434 121.787 221.014 121.302C220.603 120.807 220.034 120.56 219.306 120.56C218.569 120.56 217.99 120.807 217.57 121.302C217.15 121.787 216.94 122.455 216.94 123.304C216.94 124.153 217.15 124.821 217.57 125.306C217.99 125.782 218.569 126.02 219.306 126.02ZM231.229 127.098C230.566 127.098 229.987 126.949 229.493 126.65C228.998 126.351 228.615 125.931 228.345 125.39C228.074 124.839 227.939 124.205 227.939 123.486C227.939 122.758 228.074 122.119 228.345 121.568C228.615 121.008 229.003 120.579 229.507 120.28C230.011 119.972 230.594 119.818 231.257 119.818C231.733 119.818 232.185 119.902 232.615 120.07C233.053 120.229 233.413 120.453 233.693 120.742L233.357 121.414C232.993 121.115 232.643 120.901 232.307 120.77C231.98 120.63 231.639 120.56 231.285 120.56C230.529 120.56 229.931 120.821 229.493 121.344C229.054 121.857 228.835 122.571 228.835 123.486C228.835 124.382 229.049 125.082 229.479 125.586C229.917 126.09 230.519 126.342 231.285 126.342C231.639 126.342 231.98 126.277 232.307 126.146C232.643 126.006 232.993 125.791 233.357 125.502L233.693 126.16C233.394 126.449 233.021 126.678 232.573 126.846C232.134 127.014 231.686 127.098 231.229 127.098ZM235.25 116.696H236.09V127H235.25V116.696ZM241.221 127.098C240.577 127.098 240.008 126.949 239.513 126.65C239.028 126.351 238.65 125.927 238.379 125.376C238.118 124.825 237.987 124.186 237.987 123.458C237.987 122.73 238.118 122.091 238.379 121.54C238.65 120.989 239.028 120.565 239.513 120.266C240.008 119.967 240.577 119.818 241.221 119.818C241.856 119.818 242.416 119.967 242.901 120.266C243.387 120.565 243.76 120.989 244.021 121.54C244.292 122.091 244.427 122.73 244.427 123.458C244.427 124.186 244.292 124.825 244.021 125.376C243.76 125.927 243.387 126.351 242.901 126.65C242.416 126.949 241.856 127.098 241.221 127.098ZM241.207 126.342C241.954 126.342 242.528 126.095 242.929 125.6C243.34 125.096 243.545 124.382 243.545 123.458C243.545 122.543 243.34 121.834 242.929 121.33C242.519 120.817 241.949 120.56 241.221 120.56C240.484 120.56 239.91 120.817 239.499 121.33C239.089 121.834 238.883 122.543 238.883 123.458C238.883 124.391 239.084 125.105 239.485 125.6C239.887 126.095 240.461 126.342 241.207 126.342ZM251.939 119.986V127H251.113V125.726C250.889 126.174 250.571 126.515 250.161 126.748C249.75 126.981 249.279 127.098 248.747 127.098C247.925 127.098 247.305 126.869 246.885 126.412C246.465 125.955 246.255 125.278 246.255 124.382V119.986H247.095V124.326C247.095 125.017 247.235 125.525 247.515 125.852C247.795 126.179 248.229 126.342 248.817 126.342C249.507 126.342 250.058 126.127 250.469 125.698C250.879 125.259 251.085 124.681 251.085 123.962V119.986H251.939ZM260.217 116.696V127H259.363V125.656C259.158 126.123 258.845 126.482 258.425 126.734C258.015 126.977 257.52 127.098 256.941 127.098C256.325 127.098 255.779 126.949 255.303 126.65C254.837 126.342 254.473 125.913 254.211 125.362C253.95 124.802 253.819 124.158 253.819 123.43C253.819 122.702 253.945 122.067 254.197 121.526C254.459 120.975 254.823 120.555 255.289 120.266C255.765 119.967 256.316 119.818 256.941 119.818C257.511 119.818 258.001 119.939 258.411 120.182C258.831 120.425 259.149 120.779 259.363 121.246V116.696H260.217ZM257.053 126.342C257.791 126.342 258.36 126.09 258.761 125.586C259.163 125.082 259.363 124.373 259.363 123.458C259.363 122.543 259.163 121.834 258.761 121.33C258.36 120.817 257.795 120.56 257.067 120.56C256.321 120.56 255.742 120.812 255.331 121.316C254.921 121.82 254.715 122.525 254.715 123.43C254.715 124.345 254.921 125.059 255.331 125.572C255.742 126.085 256.316 126.342 257.053 126.342ZM58.444 148.098C57.3053 148.098 56.4047 147.785 55.742 147.16L56.05 146.502C56.4233 146.81 56.7967 147.029 57.17 147.16C57.5527 147.291 57.9913 147.356 58.486 147.356C59.0647 147.356 59.5033 147.258 59.802 147.062C60.11 146.857 60.264 146.563 60.264 146.18C60.264 145.863 60.1613 145.615 59.956 145.438C59.76 145.251 59.4333 145.102 58.976 144.99L57.786 144.724C57.226 144.593 56.7827 144.36 56.456 144.024C56.1387 143.688 55.98 143.296 55.98 142.848C55.98 142.232 56.2133 141.742 56.68 141.378C57.156 141.005 57.786 140.818 58.57 140.818C59.0647 140.818 59.522 140.897 59.942 141.056C60.3713 141.215 60.726 141.443 61.006 141.742L60.684 142.4C60.04 141.84 59.3353 141.56 58.57 141.56C58.0287 141.56 57.6087 141.667 57.31 141.882C57.0113 142.097 56.862 142.395 56.862 142.778C56.862 143.095 56.9553 143.352 57.142 143.548C57.338 143.744 57.6367 143.889 58.038 143.982L59.242 144.276C60.502 144.556 61.132 145.177 61.132 146.138C61.132 146.726 60.8893 147.202 60.404 147.566C59.9187 147.921 59.2653 148.098 58.444 148.098ZM64.2016 141.672V145.844C64.2016 146.404 64.3089 146.791 64.5236 147.006C64.7383 147.221 65.0556 147.328 65.4756 147.328C65.7369 147.328 65.9889 147.286 66.2316 147.202V147.972C65.9329 148.047 65.6296 148.084 65.3216 148.084C64.7056 148.084 64.2203 147.911 63.8656 147.566C63.5203 147.221 63.3476 146.703 63.3476 146.012V141.672H61.9616V140.986H63.3476V139.124L64.2016 138.802V140.986H66.2736V141.672H64.2016ZM70.5144 148.098C69.8704 148.098 69.3011 147.949 68.8064 147.65C68.3211 147.351 67.9431 146.927 67.6724 146.376C67.4111 145.825 67.2804 145.186 67.2804 144.458C67.2804 143.73 67.4111 143.091 67.6724 142.54C67.9431 141.989 68.3211 141.565 68.8064 141.266C69.3011 140.967 69.8704 140.818 70.5144 140.818C71.1491 140.818 71.7091 140.967 72.1944 141.266C72.6797 141.565 73.0531 141.989 73.3144 142.54C73.5851 143.091 73.7204 143.73 73.7204 144.458C73.7204 145.186 73.5851 145.825 73.3144 146.376C73.0531 146.927 72.6797 147.351 72.1944 147.65C71.7091 147.949 71.1491 148.098 70.5144 148.098ZM70.5004 147.342C71.2471 147.342 71.8211 147.095 72.2224 146.6C72.6331 146.096 72.8384 145.382 72.8384 144.458C72.8384 143.543 72.6331 142.834 72.2224 142.33C71.8117 141.817 71.2424 141.56 70.5144 141.56C69.7771 141.56 69.2031 141.817 68.7924 142.33C68.3817 142.834 68.1764 143.543 68.1764 144.458C68.1764 145.391 68.3771 146.105 68.7784 146.6C69.1797 147.095 69.7537 147.342 70.5004 147.342ZM78.6137 140.818C78.8471 140.818 79.0524 140.837 79.2297 140.874L79.1877 141.644C79.0104 141.607 78.7957 141.588 78.5437 141.588C77.8344 141.588 77.3024 141.817 76.9477 142.274C76.6024 142.722 76.4297 143.259 76.4297 143.884V148H75.5897V142.932C75.5897 142.204 75.5524 141.555 75.4777 140.986H76.2897L76.4017 142.288C76.5791 141.812 76.8637 141.448 77.2557 141.196C77.6571 140.944 78.1097 140.818 78.6137 140.818ZM86.3399 140.986V148.028C86.3399 149.045 86.0879 149.815 85.5839 150.338C85.0799 150.861 84.3379 151.122 83.3579 151.122C82.3125 151.122 81.4025 150.87 80.6279 150.366L80.7959 149.624C81.2532 149.895 81.6732 150.086 82.0559 150.198C82.4385 150.31 82.8772 150.366 83.3719 150.366C84.0719 150.366 84.5992 150.175 84.9539 149.792C85.3179 149.409 85.4999 148.849 85.4999 148.112V146.306C85.2852 146.782 84.9679 147.151 84.5479 147.412C84.1279 147.664 83.6239 147.79 83.0359 147.79C82.4199 147.79 81.8739 147.645 81.3979 147.356C80.9219 147.057 80.5485 146.647 80.2779 146.124C80.0165 145.592 79.8859 144.985 79.8859 144.304C79.8859 143.613 80.0165 143.007 80.2779 142.484C80.5485 141.952 80.9219 141.541 81.3979 141.252C81.8739 140.963 82.4199 140.818 83.0359 140.818C83.6239 140.818 84.1232 140.939 84.5339 141.182C84.9539 141.425 85.2712 141.779 85.4859 142.246V140.986H86.3399ZM83.1479 147.02C83.8759 147.02 84.4452 146.777 84.8559 146.292C85.2759 145.807 85.4859 145.144 85.4859 144.304C85.4859 143.455 85.2759 142.787 84.8559 142.302C84.4452 141.807 83.8759 141.56 83.1479 141.56C82.4105 141.56 81.8319 141.807 81.4119 142.302C80.9919 142.787 80.7819 143.455 80.7819 144.304C80.7819 145.153 80.9919 145.821 81.4119 146.306C81.8319 146.782 82.4105 147.02 83.1479 147.02ZM89.108 144.388V144.43C89.108 145.373 89.3227 146.096 89.752 146.6C90.1907 147.095 90.8254 147.342 91.656 147.342C92.496 147.342 93.266 147.053 93.966 146.474L94.302 147.146C93.994 147.435 93.602 147.669 93.126 147.846C92.65 148.014 92.16 148.098 91.656 148.098C90.592 148.098 89.752 147.776 89.136 147.132C88.52 146.488 88.212 145.601 88.212 144.472C88.212 143.753 88.3474 143.119 88.618 142.568C88.898 142.008 89.2854 141.579 89.78 141.28C90.2747 140.972 90.844 140.818 91.488 140.818C92.412 140.818 93.1307 141.117 93.644 141.714C94.1667 142.311 94.428 143.142 94.428 144.206V144.388H89.108ZM91.488 141.518C90.844 141.518 90.3214 141.714 89.92 142.106C89.5187 142.489 89.2667 143.03 89.164 143.73H93.616C93.56 143.011 93.35 142.465 92.986 142.092C92.622 141.709 92.1227 141.518 91.488 141.518ZM97.2556 146.782V147.678C97.2556 148.033 97.1996 148.359 97.0876 148.658C96.9756 148.957 96.7889 149.237 96.5276 149.498L96.0796 149.148C96.3969 148.793 96.5743 148.411 96.6116 148H96.0656V146.782H97.2556ZM109.177 138.032V138.676L104.445 148H103.507L108.211 138.788H102.765V138.032H109.177ZM117.684 147.244V148H111.398V147.356L114.94 143.394C115.444 142.815 115.808 142.307 116.032 141.868C116.256 141.42 116.368 140.977 116.368 140.538C116.368 139.941 116.195 139.483 115.85 139.166C115.514 138.839 115.029 138.676 114.394 138.676C113.414 138.676 112.457 139.077 111.524 139.88L111.16 139.194C111.552 138.811 112.042 138.503 112.63 138.27C113.218 138.037 113.806 137.92 114.394 137.92C115.281 137.92 115.976 138.153 116.48 138.62C116.993 139.077 117.25 139.703 117.25 140.496C117.25 141.065 117.115 141.621 116.844 142.162C116.583 142.703 116.153 143.305 115.556 143.968L112.56 147.244H117.684ZM121.753 144.024C121.015 144.024 120.441 143.767 120.031 143.254C119.62 142.741 119.415 141.98 119.415 140.972C119.415 139.964 119.62 139.208 120.031 138.704C120.441 138.191 121.015 137.934 121.753 137.934C122.499 137.934 123.078 138.191 123.489 138.704C123.909 139.208 124.119 139.964 124.119 140.972C124.119 141.98 123.909 142.741 123.489 143.254C123.069 143.767 122.49 144.024 121.753 144.024ZM121.767 148L127.521 138.032H128.417L122.663 148H121.767ZM121.753 143.352C122.275 143.352 122.658 143.161 122.901 142.778C123.153 142.395 123.279 141.793 123.279 140.972C123.279 140.16 123.153 139.563 122.901 139.18C122.658 138.788 122.275 138.592 121.753 138.592C121.249 138.592 120.871 138.788 120.619 139.18C120.367 139.563 120.241 140.16 120.241 140.972C120.241 141.793 120.362 142.395 120.605 142.778C120.857 143.161 121.239 143.352 121.753 143.352ZM128.417 148.098C127.679 148.098 127.101 147.841 126.681 147.328C126.27 146.815 126.065 146.054 126.065 145.046C126.065 144.029 126.27 143.268 126.681 142.764C127.091 142.26 127.67 142.008 128.417 142.008C129.163 142.008 129.742 142.26 130.153 142.764C130.563 143.268 130.769 144.029 130.769 145.046C130.769 146.054 130.559 146.815 130.139 147.328C129.728 147.841 129.154 148.098 128.417 148.098ZM128.417 147.426C128.93 147.426 129.308 147.235 129.551 146.852C129.803 146.469 129.929 145.867 129.929 145.046C129.929 144.234 129.803 143.637 129.551 143.254C129.308 142.871 128.93 142.68 128.417 142.68C127.903 142.68 127.521 142.871 127.269 143.254C127.026 143.637 126.905 144.234 126.905 145.046C126.905 145.867 127.026 146.469 127.269 146.852C127.521 147.235 127.903 147.426 128.417 147.426ZM139.12 148.098C138.476 148.098 137.907 147.949 137.412 147.65C136.927 147.351 136.549 146.927 136.278 146.376C136.017 145.825 135.886 145.186 135.886 144.458C135.886 143.73 136.017 143.091 136.278 142.54C136.549 141.989 136.927 141.565 137.412 141.266C137.907 140.967 138.476 140.818 139.12 140.818C139.755 140.818 140.315 140.967 140.8 141.266C141.285 141.565 141.659 141.989 141.92 142.54C142.191 143.091 142.326 143.73 142.326 144.458C142.326 145.186 142.191 145.825 141.92 146.376C141.659 146.927 141.285 147.351 140.8 147.65C140.315 147.949 139.755 148.098 139.12 148.098ZM139.106 147.342C139.853 147.342 140.427 147.095 140.828 146.6C141.239 146.096 141.444 145.382 141.444 144.458C141.444 143.543 141.239 142.834 140.828 142.33C140.417 141.817 139.848 141.56 139.12 141.56C138.383 141.56 137.809 141.817 137.398 142.33C136.987 142.834 136.782 143.543 136.782 144.458C136.782 145.391 136.983 146.105 137.384 146.6C137.785 147.095 138.359 147.342 139.106 147.342ZM146.617 138.41C146.216 138.41 145.908 138.517 145.693 138.732C145.479 138.947 145.371 139.329 145.371 139.88V140.986H147.177V141.672H145.371V148H144.517V141.672H143.145V140.986H144.517V139.726C144.517 139.026 144.69 138.503 145.035 138.158C145.381 137.813 145.857 137.64 146.463 137.64C146.743 137.64 147.033 137.677 147.331 137.752V138.522C147.079 138.447 146.841 138.41 146.617 138.41ZM155.579 140.818C156.195 140.818 156.736 140.972 157.203 141.28C157.679 141.579 158.047 142.008 158.309 142.568C158.57 143.119 158.701 143.758 158.701 144.486C158.701 145.214 158.57 145.849 158.309 146.39C158.057 146.931 157.693 147.351 157.217 147.65C156.741 147.949 156.195 148.098 155.579 148.098C154.991 148.098 154.487 147.972 154.067 147.72C153.656 147.459 153.348 147.085 153.143 146.6V151.024H152.303V142.932C152.303 142.204 152.265 141.555 152.191 140.986H153.003L153.115 142.358C153.32 141.863 153.633 141.485 154.053 141.224C154.482 140.953 154.991 140.818 155.579 140.818ZM155.467 147.342C156.204 147.342 156.778 147.095 157.189 146.6C157.599 146.096 157.805 145.391 157.805 144.486C157.805 143.571 157.599 142.857 157.189 142.344C156.778 141.821 156.209 141.56 155.481 141.56C154.734 141.56 154.16 141.812 153.759 142.316C153.357 142.82 153.157 143.534 153.157 144.458C153.157 145.373 153.357 146.082 153.759 146.586C154.16 147.09 154.729 147.342 155.467 147.342ZM166.524 140.986V148H165.67V146.656C165.465 147.123 165.152 147.482 164.732 147.734C164.321 147.977 163.827 148.098 163.248 148.098C162.623 148.098 162.072 147.953 161.596 147.664C161.129 147.365 160.765 146.945 160.504 146.404C160.252 145.853 160.126 145.214 160.126 144.486C160.126 143.758 160.257 143.119 160.518 142.568C160.779 142.008 161.143 141.579 161.61 141.28C162.086 140.972 162.632 140.818 163.248 140.818C163.817 140.818 164.307 140.939 164.718 141.182C165.138 141.425 165.455 141.779 165.67 142.246V140.986H166.524ZM163.374 147.342C164.102 147.342 164.667 147.09 165.068 146.586C165.469 146.082 165.67 145.373 165.67 144.458C165.67 143.534 165.469 142.82 165.068 142.316C164.667 141.812 164.097 141.56 163.36 141.56C162.623 141.56 162.049 141.821 161.638 142.344C161.227 142.857 161.022 143.571 161.022 144.486C161.022 145.391 161.227 146.096 161.638 146.6C162.049 147.095 162.627 147.342 163.374 147.342ZM171.87 140.818C172.103 140.818 172.308 140.837 172.486 140.874L172.444 141.644C172.266 141.607 172.052 141.588 171.8 141.588C171.09 141.588 170.558 141.817 170.204 142.274C169.858 142.722 169.686 143.259 169.686 143.884V148H168.846V142.932C168.846 142.204 168.808 141.555 168.734 140.986H169.546L169.658 142.288C169.835 141.812 170.12 141.448 170.512 141.196C170.913 140.944 171.366 140.818 171.87 140.818ZM175.422 141.672V145.844C175.422 146.404 175.53 146.791 175.744 147.006C175.959 147.221 176.276 147.328 176.696 147.328C176.958 147.328 177.21 147.286 177.452 147.202V147.972C177.154 148.047 176.85 148.084 176.542 148.084C175.926 148.084 175.441 147.911 175.086 147.566C174.741 147.221 174.568 146.703 174.568 146.012V141.672H173.182V140.986H174.568V139.124L175.422 138.802V140.986H177.494V141.672H175.422ZM178.949 140.986H179.789V148H178.949V140.986ZM179.957 138.088V139.18H178.823V138.088H179.957ZM184.977 148.098C184.314 148.098 183.735 147.949 183.241 147.65C182.746 147.351 182.363 146.931 182.093 146.39C181.822 145.839 181.687 145.205 181.687 144.486C181.687 143.758 181.822 143.119 182.093 142.568C182.363 142.008 182.751 141.579 183.255 141.28C183.759 140.972 184.342 140.818 185.005 140.818C185.481 140.818 185.933 140.902 186.363 141.07C186.801 141.229 187.161 141.453 187.441 141.742L187.105 142.414C186.741 142.115 186.391 141.901 186.055 141.77C185.728 141.63 185.387 141.56 185.033 141.56C184.277 141.56 183.679 141.821 183.241 142.344C182.802 142.857 182.583 143.571 182.583 144.486C182.583 145.382 182.797 146.082 183.227 146.586C183.665 147.09 184.267 147.342 185.033 147.342C185.387 147.342 185.728 147.277 186.055 147.146C186.391 147.006 186.741 146.791 187.105 146.502L187.441 147.16C187.142 147.449 186.769 147.678 186.321 147.846C185.882 148.014 185.434 148.098 184.977 148.098ZM188.998 140.986H189.838V148H188.998V140.986ZM190.006 138.088V139.18H188.872V138.088H190.006ZM195.459 140.818C196.075 140.818 196.617 140.972 197.083 141.28C197.559 141.579 197.928 142.008 198.189 142.568C198.451 143.119 198.581 143.758 198.581 144.486C198.581 145.214 198.451 145.849 198.189 146.39C197.937 146.931 197.573 147.351 197.097 147.65C196.621 147.949 196.075 148.098 195.459 148.098C194.871 148.098 194.367 147.972 193.947 147.72C193.537 147.459 193.229 147.085 193.023 146.6V151.024H192.183V142.932C192.183 142.204 192.146 141.555 192.071 140.986H192.883L192.995 142.358C193.201 141.863 193.513 141.485 193.933 141.224C194.363 140.953 194.871 140.818 195.459 140.818ZM195.347 147.342C196.085 147.342 196.659 147.095 197.069 146.6C197.48 146.096 197.685 145.391 197.685 144.486C197.685 143.571 197.48 142.857 197.069 142.344C196.659 141.821 196.089 141.56 195.361 141.56C194.615 141.56 194.041 141.812 193.639 142.316C193.238 142.82 193.037 143.534 193.037 144.458C193.037 145.373 193.238 146.082 193.639 146.586C194.041 147.09 194.61 147.342 195.347 147.342ZM206.405 140.986V148H205.551V146.656C205.346 147.123 205.033 147.482 204.613 147.734C204.202 147.977 203.708 148.098 203.129 148.098C202.504 148.098 201.953 147.953 201.477 147.664C201.01 147.365 200.646 146.945 200.385 146.404C200.133 145.853 200.007 145.214 200.007 144.486C200.007 143.758 200.138 143.119 200.399 142.568C200.66 142.008 201.024 141.579 201.491 141.28C201.967 140.972 202.513 140.818 203.129 140.818C203.698 140.818 204.188 140.939 204.599 141.182C205.019 141.425 205.336 141.779 205.551 142.246V140.986H206.405ZM203.255 147.342C203.983 147.342 204.548 147.09 204.949 146.586C205.35 146.082 205.551 145.373 205.551 144.458C205.551 143.534 205.35 142.82 204.949 142.316C204.548 141.812 203.978 141.56 203.241 141.56C202.504 141.56 201.93 141.821 201.519 142.344C201.108 142.857 200.903 143.571 200.903 144.486C200.903 145.391 201.108 146.096 201.519 146.6C201.93 147.095 202.508 147.342 203.255 147.342ZM211.988 140.818C213.678 140.818 214.522 141.723 214.522 143.534V148H213.668V143.59C213.668 142.89 213.524 142.377 213.234 142.05C212.954 141.723 212.511 141.56 211.904 141.56C211.204 141.56 210.64 141.775 210.21 142.204C209.781 142.633 209.566 143.212 209.566 143.94V148H208.726V142.932C208.726 142.204 208.689 141.555 208.614 140.986H209.426L209.538 142.274C209.753 141.798 210.075 141.439 210.504 141.196C210.934 140.944 211.428 140.818 211.988 140.818ZM218.01 141.672V145.844C218.01 146.404 218.118 146.791 218.332 147.006C218.547 147.221 218.864 147.328 219.284 147.328C219.546 147.328 219.798 147.286 220.04 147.202V147.972C219.742 148.047 219.438 148.084 219.13 148.084C218.514 148.084 218.029 147.911 217.674 147.566C217.329 147.221 217.156 146.703 217.156 146.012V141.672H215.77V140.986H217.156V139.124L218.01 138.802V140.986H220.082V141.672H218.01ZM223.819 148.098C222.68 148.098 221.78 147.785 221.117 147.16L221.425 146.502C221.798 146.81 222.172 147.029 222.545 147.16C222.928 147.291 223.366 147.356 223.861 147.356C224.44 147.356 224.878 147.258 225.177 147.062C225.485 146.857 225.639 146.563 225.639 146.18C225.639 145.863 225.536 145.615 225.331 145.438C225.135 145.251 224.808 145.102 224.351 144.99L223.161 144.724C222.601 144.593 222.158 144.36 221.831 144.024C221.514 143.688 221.355 143.296 221.355 142.848C221.355 142.232 221.588 141.742 222.055 141.378C222.531 141.005 223.161 140.818 223.945 140.818C224.44 140.818 224.897 140.897 225.317 141.056C225.746 141.215 226.101 141.443 226.381 141.742L226.059 142.4C225.415 141.84 224.71 141.56 223.945 141.56C223.404 141.56 222.984 141.667 222.685 141.882C222.386 142.097 222.237 142.395 222.237 142.778C222.237 143.095 222.33 143.352 222.517 143.548C222.713 143.744 223.012 143.889 223.413 143.982L224.617 144.276C225.877 144.556 226.507 145.177 226.507 146.138C226.507 146.726 226.264 147.202 225.779 147.566C225.294 147.921 224.64 148.098 223.819 148.098ZM62.112 161.986V169H61.258V167.656C61.0527 168.123 60.74 168.482 60.32 168.734C59.9093 168.977 59.4147 169.098 58.836 169.098C58.2107 169.098 57.66 168.953 57.184 168.664C56.7173 168.365 56.3533 167.945 56.092 167.404C55.84 166.853 55.714 166.214 55.714 165.486C55.714 164.758 55.8447 164.119 56.106 163.568C56.3673 163.008 56.7313 162.579 57.198 162.28C57.674 161.972 58.22 161.818 58.836 161.818C59.4053 161.818 59.8953 161.939 60.306 162.182C60.726 162.425 61.0433 162.779 61.258 163.246V161.986H62.112ZM58.962 168.342C59.69 168.342 60.2547 168.09 60.656 167.586C61.0573 167.082 61.258 166.373 61.258 165.458C61.258 164.534 61.0573 163.82 60.656 163.316C60.2547 162.812 59.6853 162.56 58.948 162.56C58.2107 162.56 57.6367 162.821 57.226 163.344C56.8153 163.857 56.61 164.571 56.61 165.486C56.61 166.391 56.8153 167.096 57.226 167.6C57.6367 168.095 58.2153 168.342 58.962 168.342ZM67.6955 161.818C69.3848 161.818 70.2295 162.723 70.2295 164.534V169H69.3755V164.59C69.3755 163.89 69.2308 163.377 68.9415 163.05C68.6615 162.723 68.2182 162.56 67.6115 162.56C66.9115 162.56 66.3468 162.775 65.9175 163.204C65.4882 163.633 65.2735 164.212 65.2735 164.94V169H64.4335V163.932C64.4335 163.204 64.3962 162.555 64.3215 161.986H65.1335L65.2455 163.274C65.4602 162.798 65.7822 162.439 66.2115 162.196C66.6408 161.944 67.1355 161.818 67.6955 161.818ZM74.8092 169.098C73.6706 169.098 72.7699 168.785 72.1072 168.16L72.4152 167.502C72.7886 167.81 73.1619 168.029 73.5352 168.16C73.9179 168.291 74.3566 168.356 74.8512 168.356C75.4299 168.356 75.8686 168.258 76.1672 168.062C76.4752 167.857 76.6292 167.563 76.6292 167.18C76.6292 166.863 76.5266 166.615 76.3212 166.438C76.1252 166.251 75.7986 166.102 75.3412 165.99L74.1512 165.724C73.5912 165.593 73.1479 165.36 72.8212 165.024C72.5039 164.688 72.3452 164.296 72.3452 163.848C72.3452 163.232 72.5786 162.742 73.0452 162.378C73.5212 162.005 74.1512 161.818 74.9352 161.818C75.4299 161.818 75.8872 161.897 76.3072 162.056C76.7366 162.215 77.0912 162.443 77.3712 162.742L77.0492 163.4C76.4052 162.84 75.7006 162.56 74.9352 162.56C74.3939 162.56 73.9739 162.667 73.6752 162.882C73.3766 163.097 73.2272 163.395 73.2272 163.778C73.2272 164.095 73.3206 164.352 73.5072 164.548C73.7032 164.744 74.0019 164.889 74.4032 164.982L75.6072 165.276C76.8672 165.556 77.4972 166.177 77.4972 167.138C77.4972 167.726 77.2546 168.202 76.7692 168.566C76.2839 168.921 75.6306 169.098 74.8092 169.098ZM89.7525 161.986L87.2045 169H86.3225L84.1945 163.078L82.0525 169H81.1565L78.6225 161.986H79.5325L81.6045 167.978L83.7885 161.986H84.6425L86.7565 167.978L88.8845 161.986H89.7525ZM91.7741 165.388V165.43C91.7741 166.373 91.9887 167.096 92.4181 167.6C92.8567 168.095 93.4914 168.342 94.3221 168.342C95.1621 168.342 95.9321 168.053 96.6321 167.474L96.9681 168.146C96.6601 168.435 96.2681 168.669 95.7921 168.846C95.3161 169.014 94.8261 169.098 94.3221 169.098C93.2581 169.098 92.4181 168.776 91.8021 168.132C91.1861 167.488 90.8781 166.601 90.8781 165.472C90.8781 164.753 91.0134 164.119 91.2841 163.568C91.5641 163.008 91.9514 162.579 92.4461 162.28C92.9407 161.972 93.5101 161.818 94.1541 161.818C95.0781 161.818 95.7967 162.117 96.3101 162.714C96.8327 163.311 97.0941 164.142 97.0941 165.206V165.388H91.7741ZM94.1541 162.518C93.5101 162.518 92.9874 162.714 92.5861 163.106C92.1847 163.489 91.9327 164.03 91.8301 164.73H96.2821C96.2261 164.011 96.0161 163.465 95.6521 163.092C95.2881 162.709 94.7887 162.518 94.1541 162.518ZM101.952 161.818C102.185 161.818 102.39 161.837 102.568 161.874L102.526 162.644C102.348 162.607 102.134 162.588 101.882 162.588C101.172 162.588 100.64 162.817 100.286 163.274C99.9403 163.722 99.7676 164.259 99.7676 164.884V169H98.9276V163.932C98.9276 163.204 98.8903 162.555 98.8156 161.986H99.6276L99.7396 163.288C99.917 162.812 100.202 162.448 100.594 162.196C100.995 161.944 101.448 161.818 101.952 161.818ZM104.12 165.388V165.43C104.12 166.373 104.334 167.096 104.764 167.6C105.202 168.095 105.837 168.342 106.668 168.342C107.508 168.342 108.278 168.053 108.978 167.474L109.314 168.146C109.006 168.435 108.614 168.669 108.138 168.846C107.662 169.014 107.172 169.098 106.668 169.098C105.604 169.098 104.764 168.776 104.148 168.132C103.532 167.488 103.224 166.601 103.224 165.472C103.224 164.753 103.359 164.119 103.63 163.568C103.91 163.008 104.297 162.579 104.792 162.28C105.286 161.972 105.856 161.818 106.5 161.818C107.424 161.818 108.142 162.117 108.656 162.714C109.178 163.311 109.44 164.142 109.44 165.206V165.388H104.12ZM106.5 162.518C105.856 162.518 105.333 162.714 104.932 163.106C104.53 163.489 104.278 164.03 104.176 164.73H108.628C108.572 164.011 108.362 163.465 107.998 163.092C107.634 162.709 107.134 162.518 106.5 162.518ZM117.223 158.696V169H116.369V167.656C116.164 168.123 115.851 168.482 115.431 168.734C115.021 168.977 114.526 169.098 113.947 169.098C113.331 169.098 112.785 168.949 112.309 168.65C111.843 168.342 111.479 167.913 111.217 167.362C110.956 166.802 110.825 166.158 110.825 165.43C110.825 164.702 110.951 164.067 111.203 163.526C111.465 162.975 111.829 162.555 112.295 162.266C112.771 161.967 113.322 161.818 113.947 161.818C114.517 161.818 115.007 161.939 115.417 162.182C115.837 162.425 116.155 162.779 116.369 163.246V158.696H117.223ZM114.059 168.342C114.797 168.342 115.366 168.09 115.767 167.586C116.169 167.082 116.369 166.373 116.369 165.458C116.369 164.543 116.169 163.834 115.767 163.33C115.366 162.817 114.801 162.56 114.073 162.56C113.327 162.56 112.748 162.812 112.337 163.316C111.927 163.82 111.721 164.525 111.721 165.43C111.721 166.345 111.927 167.059 112.337 167.572C112.748 168.085 113.322 168.342 114.059 168.342ZM124.303 162.672V166.844C124.303 167.404 124.411 167.791 124.625 168.006C124.84 168.221 125.157 168.328 125.577 168.328C125.839 168.328 126.091 168.286 126.333 168.202V168.972C126.035 169.047 125.731 169.084 125.423 169.084C124.807 169.084 124.322 168.911 123.967 168.566C123.622 168.221 123.449 167.703 123.449 167.012V162.672H122.063V161.986H123.449V160.124L124.303 159.802V161.986H126.375V162.672H124.303ZM131.092 161.818C132.781 161.818 133.626 162.723 133.626 164.534V169H132.772V164.59C132.772 163.89 132.627 163.377 132.338 163.05C132.058 162.723 131.615 162.56 131.008 162.56C130.308 162.56 129.743 162.775 129.314 163.204C128.885 163.633 128.67 164.212 128.67 164.94V169H127.83V158.696H128.67V163.204C128.894 162.747 129.216 162.401 129.636 162.168C130.056 161.935 130.541 161.818 131.092 161.818ZM136.372 165.388V165.43C136.372 166.373 136.586 167.096 137.016 167.6C137.454 168.095 138.089 168.342 138.92 168.342C139.76 168.342 140.53 168.053 141.23 167.474L141.566 168.146C141.258 168.435 140.866 168.669 140.39 168.846C139.914 169.014 139.424 169.098 138.92 169.098C137.856 169.098 137.016 168.776 136.4 168.132C135.784 167.488 135.476 166.601 135.476 165.472C135.476 164.753 135.611 164.119 135.882 163.568C136.162 163.008 136.549 162.579 137.044 162.28C137.538 161.972 138.108 161.818 138.752 161.818C139.676 161.818 140.394 162.117 140.908 162.714C141.43 163.311 141.692 164.142 141.692 165.206V165.388H136.372ZM138.752 162.518C138.108 162.518 137.585 162.714 137.184 163.106C136.782 163.489 136.53 164.03 136.428 164.73H140.88C140.824 164.011 140.614 163.465 140.25 163.092C139.886 162.709 139.386 162.518 138.752 162.518ZM150.09 169.112C149.352 169.112 148.713 168.963 148.172 168.664C147.63 168.365 147.215 167.945 146.926 167.404C146.636 166.853 146.492 166.209 146.492 165.472C146.492 164.735 146.641 164.086 146.94 163.526C147.248 162.966 147.677 162.532 148.228 162.224C148.788 161.907 149.432 161.748 150.16 161.748C150.664 161.748 151.149 161.827 151.616 161.986C152.092 162.145 152.47 162.364 152.75 162.644L152.26 163.876C151.961 163.633 151.644 163.451 151.308 163.33C150.972 163.199 150.64 163.134 150.314 163.134C149.679 163.134 149.184 163.335 148.83 163.736C148.475 164.128 148.298 164.697 148.298 165.444C148.298 166.191 148.47 166.76 148.816 167.152C149.17 167.544 149.67 167.74 150.314 167.74C150.64 167.74 150.972 167.675 151.308 167.544C151.644 167.413 151.961 167.227 152.26 166.984L152.75 168.216C152.451 168.496 152.064 168.715 151.588 168.874C151.112 169.033 150.612 169.112 150.09 169.112ZM157.131 169.112C156.412 169.112 155.777 168.963 155.227 168.664C154.685 168.365 154.265 167.941 153.967 167.39C153.677 166.83 153.533 166.177 153.533 165.43C153.533 164.683 153.677 164.035 153.967 163.484C154.265 162.924 154.685 162.495 155.227 162.196C155.777 161.897 156.412 161.748 157.131 161.748C157.84 161.748 158.465 161.897 159.007 162.196C159.548 162.495 159.963 162.924 160.253 163.484C160.551 164.035 160.701 164.683 160.701 165.43C160.701 166.177 160.551 166.83 160.253 167.39C159.963 167.941 159.548 168.365 159.007 168.664C158.465 168.963 157.84 169.112 157.131 169.112ZM157.117 167.74C157.714 167.74 158.167 167.549 158.475 167.166C158.792 166.774 158.951 166.195 158.951 165.43C158.951 164.674 158.792 164.1 158.475 163.708C158.157 163.307 157.709 163.106 157.131 163.106C156.543 163.106 156.09 163.307 155.773 163.708C155.455 164.1 155.297 164.674 155.297 165.43C155.297 166.195 155.451 166.774 155.759 167.166C156.076 167.549 156.529 167.74 157.117 167.74ZM166.256 161.748C167.945 161.748 168.79 162.719 168.79 164.66V169H167.04V164.744C167.04 164.184 166.932 163.778 166.718 163.526C166.503 163.265 166.172 163.134 165.724 163.134C165.192 163.134 164.762 163.307 164.436 163.652C164.109 163.988 163.946 164.436 163.946 164.996V169H162.21V163.932C162.21 163.185 162.172 162.518 162.098 161.93H163.736L163.862 163.092C164.104 162.663 164.431 162.331 164.842 162.098C165.262 161.865 165.733 161.748 166.256 161.748ZM177.337 161.944L174.243 169H172.717L169.665 161.944H171.499L173.529 167.012L175.601 161.944H177.337ZM184.312 165.556H179.44C179.477 166.312 179.664 166.872 180 167.236C180.345 167.591 180.854 167.768 181.526 167.768C182.301 167.768 183.019 167.516 183.682 167.012L184.186 168.216C183.85 168.487 183.435 168.706 182.94 168.874C182.455 169.033 181.96 169.112 181.456 169.112C180.299 169.112 179.389 168.785 178.726 168.132C178.063 167.479 177.732 166.583 177.732 165.444C177.732 164.725 177.877 164.086 178.166 163.526C178.455 162.966 178.861 162.532 179.384 162.224C179.907 161.907 180.499 161.748 181.162 161.748C182.133 161.748 182.898 162.065 183.458 162.7C184.027 163.325 184.312 164.189 184.312 165.29V165.556ZM181.204 163.008C180.737 163.008 180.355 163.148 180.056 163.428C179.767 163.699 179.58 164.095 179.496 164.618H182.786C182.73 164.086 182.567 163.685 182.296 163.414C182.035 163.143 181.671 163.008 181.204 163.008ZM189.84 161.748C191.529 161.748 192.374 162.719 192.374 164.66V169H190.624V164.744C190.624 164.184 190.516 163.778 190.302 163.526C190.087 163.265 189.756 163.134 189.308 163.134C188.776 163.134 188.346 163.307 188.02 163.652C187.693 163.988 187.53 164.436 187.53 164.996V169H185.794V163.932C185.794 163.185 185.756 162.518 185.682 161.93H187.32L187.446 163.092C187.688 162.663 188.015 162.331 188.426 162.098C188.846 161.865 189.317 161.748 189.84 161.748ZM194.229 161.93H195.965V169H194.229V161.93ZM196.063 158.724V160.446H194.117V158.724H196.063ZM204.068 165.556H199.196C199.233 166.312 199.42 166.872 199.756 167.236C200.101 167.591 200.61 167.768 201.282 167.768C202.056 167.768 202.775 167.516 203.438 167.012L203.942 168.216C203.606 168.487 203.19 168.706 202.696 168.874C202.21 169.033 201.716 169.112 201.212 169.112C200.054 169.112 199.144 168.785 198.482 168.132C197.819 167.479 197.488 166.583 197.488 165.444C197.488 164.725 197.632 164.086 197.922 163.526C198.211 162.966 198.617 162.532 199.14 162.224C199.662 161.907 200.255 161.748 200.918 161.748C201.888 161.748 202.654 162.065 203.214 162.7C203.783 163.325 204.068 164.189 204.068 165.29V165.556ZM200.96 163.008C200.493 163.008 200.11 163.148 199.812 163.428C199.522 163.699 199.336 164.095 199.252 164.618H202.542C202.486 164.086 202.322 163.685 202.052 163.414C201.79 163.143 201.426 163.008 200.96 163.008ZM209.596 161.748C211.285 161.748 212.13 162.719 212.13 164.66V169H210.38V164.744C210.38 164.184 210.272 163.778 210.058 163.526C209.843 163.265 209.512 163.134 209.064 163.134C208.532 163.134 208.102 163.307 207.776 163.652C207.449 163.988 207.286 164.436 207.286 164.996V169H205.55V163.932C205.55 163.185 205.512 162.518 205.438 161.93H207.076L207.202 163.092C207.444 162.663 207.771 162.331 208.182 162.098C208.602 161.865 209.073 161.748 209.596 161.748ZM217.191 169.112C216.454 169.112 215.815 168.963 215.273 168.664C214.732 168.365 214.317 167.945 214.027 167.404C213.738 166.853 213.593 166.209 213.593 165.472C213.593 164.735 213.743 164.086 214.041 163.526C214.349 162.966 214.779 162.532 215.329 162.224C215.889 161.907 216.533 161.748 217.261 161.748C217.765 161.748 218.251 161.827 218.717 161.986C219.193 162.145 219.571 162.364 219.851 162.644L219.361 163.876C219.063 163.633 218.745 163.451 218.409 163.33C218.073 163.199 217.742 163.134 217.415 163.134C216.781 163.134 216.286 163.335 215.931 163.736C215.577 164.128 215.399 164.697 215.399 165.444C215.399 166.191 215.572 166.76 215.917 167.152C216.272 167.544 216.771 167.74 217.415 167.74C217.742 167.74 218.073 167.675 218.409 167.544C218.745 167.413 219.063 167.227 219.361 166.984L219.851 168.216C219.553 168.496 219.165 168.715 218.689 168.874C218.213 169.033 217.714 169.112 217.191 169.112ZM227.214 165.556H222.342C222.38 166.312 222.566 166.872 222.902 167.236C223.248 167.591 223.756 167.768 224.428 167.768C225.203 167.768 225.922 167.516 226.584 167.012L227.088 168.216C226.752 168.487 226.337 168.706 225.842 168.874C225.357 169.033 224.862 169.112 224.358 169.112C223.201 169.112 222.291 168.785 221.628 168.132C220.966 167.479 220.634 166.583 220.634 165.444C220.634 164.725 220.779 164.086 221.068 163.526C221.358 162.966 221.764 162.532 222.286 162.224C222.809 161.907 223.402 161.748 224.064 161.748C225.035 161.748 225.8 162.065 226.36 162.7C226.93 163.325 227.214 164.189 227.214 165.29V165.556ZM224.106 163.008C223.64 163.008 223.257 163.148 222.958 163.428C222.669 163.699 222.482 164.095 222.398 164.618H225.688C225.632 164.086 225.469 163.685 225.198 163.414C224.937 163.143 224.573 163.008 224.106 163.008ZM235.261 169.098C234.617 169.098 234.047 168.949 233.553 168.65C233.067 168.351 232.689 167.927 232.419 167.376C232.157 166.825 232.027 166.186 232.027 165.458C232.027 164.73 232.157 164.091 232.419 163.54C232.689 162.989 233.067 162.565 233.553 162.266C234.047 161.967 234.617 161.818 235.261 161.818C235.895 161.818 236.455 161.967 236.941 162.266C237.426 162.565 237.799 162.989 238.061 163.54C238.331 164.091 238.467 164.73 238.467 165.458C238.467 166.186 238.331 166.825 238.061 167.376C237.799 167.927 237.426 168.351 236.941 168.65C236.455 168.949 235.895 169.098 235.261 169.098ZM235.247 168.342C235.993 168.342 236.567 168.095 236.969 167.6C237.379 167.096 237.585 166.382 237.585 165.458C237.585 164.543 237.379 163.834 236.969 163.33C236.558 162.817 235.989 162.56 235.261 162.56C234.523 162.56 233.949 162.817 233.539 163.33C233.128 163.834 232.923 164.543 232.923 165.458C232.923 166.391 233.123 167.105 233.525 167.6C233.926 168.095 234.5 168.342 235.247 168.342ZM242.758 159.41C242.356 159.41 242.048 159.517 241.834 159.732C241.619 159.947 241.512 160.329 241.512 160.88V161.986H243.318V162.672H241.512V169H240.658V162.672H239.286V161.986H240.658V160.726C240.658 160.026 240.83 159.503 241.176 159.158C241.521 158.813 241.997 158.64 242.604 158.64C242.884 158.64 243.173 158.677 243.472 158.752V159.522C243.22 159.447 242.982 159.41 242.758 159.41ZM62.112 182.986V190H61.258V188.656C61.0527 189.123 60.74 189.482 60.32 189.734C59.9093 189.977 59.4147 190.098 58.836 190.098C58.2107 190.098 57.66 189.953 57.184 189.664C56.7173 189.365 56.3533 188.945 56.092 188.404C55.84 187.853 55.714 187.214 55.714 186.486C55.714 185.758 55.8447 185.119 56.106 184.568C56.3673 184.008 56.7313 183.579 57.198 183.28C57.674 182.972 58.22 182.818 58.836 182.818C59.4053 182.818 59.8953 182.939 60.306 183.182C60.726 183.425 61.0433 183.779 61.258 184.246V182.986H62.112ZM58.962 189.342C59.69 189.342 60.2547 189.09 60.656 188.586C61.0573 188.082 61.258 187.373 61.258 186.458C61.258 185.534 61.0573 184.82 60.656 184.316C60.2547 183.812 59.6853 183.56 58.948 183.56C58.2107 183.56 57.6367 183.821 57.226 184.344C56.8153 184.857 56.61 185.571 56.61 186.486C56.61 187.391 56.8153 188.096 57.226 188.6C57.6367 189.095 58.2153 189.342 58.962 189.342ZM67.2755 190.098C66.6128 190.098 66.0342 189.949 65.5395 189.65C65.0448 189.351 64.6622 188.931 64.3915 188.39C64.1208 187.839 63.9855 187.205 63.9855 186.486C63.9855 185.758 64.1208 185.119 64.3915 184.568C64.6622 184.008 65.0495 183.579 65.5535 183.28C66.0575 182.972 66.6408 182.818 67.3035 182.818C67.7795 182.818 68.2322 182.902 68.6615 183.07C69.1002 183.229 69.4595 183.453 69.7395 183.742L69.4035 184.414C69.0395 184.115 68.6895 183.901 68.3535 183.77C68.0268 183.63 67.6862 183.56 67.3315 183.56C66.5755 183.56 65.9782 183.821 65.5395 184.344C65.1008 184.857 64.8815 185.571 64.8815 186.486C64.8815 187.382 65.0962 188.082 65.5255 188.586C65.9642 189.09 66.5662 189.342 67.3315 189.342C67.6862 189.342 68.0268 189.277 68.3535 189.146C68.6895 189.006 69.0395 188.791 69.4035 188.502L69.7395 189.16C69.4408 189.449 69.0675 189.678 68.6195 189.846C68.1808 190.014 67.7328 190.098 67.2755 190.098ZM74.1388 190.098C73.4761 190.098 72.8974 189.949 72.4028 189.65C71.9081 189.351 71.5254 188.931 71.2548 188.39C70.9841 187.839 70.8488 187.205 70.8488 186.486C70.8488 185.758 70.9841 185.119 71.2548 184.568C71.5254 184.008 71.9128 183.579 72.4168 183.28C72.9208 182.972 73.5041 182.818 74.1668 182.818C74.6428 182.818 75.0954 182.902 75.5248 183.07C75.9634 183.229 76.3228 183.453 76.6028 183.742L76.2668 184.414C75.9028 184.115 75.5528 183.901 75.2168 183.77C74.8901 183.63 74.5494 183.56 74.1948 183.56C73.4388 183.56 72.8414 183.821 72.4028 184.344C71.9641 184.857 71.7448 185.571 71.7448 186.486C71.7448 187.382 71.9594 188.082 72.3888 188.586C72.8274 189.09 73.4294 189.342 74.1948 189.342C74.5494 189.342 74.8901 189.277 75.2168 189.146C75.5528 189.006 75.9028 188.791 76.2668 188.502L76.6028 189.16C76.3041 189.449 75.9308 189.678 75.4828 189.846C75.0441 190.014 74.5961 190.098 74.1388 190.098ZM78.608 186.388V186.43C78.608 187.373 78.8227 188.096 79.252 188.6C79.6907 189.095 80.3254 189.342 81.156 189.342C81.996 189.342 82.766 189.053 83.466 188.474L83.802 189.146C83.494 189.435 83.102 189.669 82.626 189.846C82.15 190.014 81.66 190.098 81.156 190.098C80.092 190.098 79.252 189.776 78.636 189.132C78.02 188.488 77.712 187.601 77.712 186.472C77.712 185.753 77.8474 185.119 78.118 184.568C78.398 184.008 78.7854 183.579 79.28 183.28C79.7747 182.972 80.344 182.818 80.988 182.818C81.912 182.818 82.6307 183.117 83.144 183.714C83.6667 184.311 83.928 185.142 83.928 186.206V186.388H78.608ZM80.988 183.518C80.344 183.518 79.8214 183.714 79.42 184.106C79.0187 184.489 78.7667 185.03 78.664 185.73H83.116C83.06 185.011 82.85 184.465 82.486 184.092C82.122 183.709 81.6227 183.518 80.988 183.518ZM88.0436 190.098C86.9049 190.098 86.0043 189.785 85.3416 189.16L85.6496 188.502C86.0229 188.81 86.3963 189.029 86.7696 189.16C87.1523 189.291 87.5909 189.356 88.0856 189.356C88.6643 189.356 89.1029 189.258 89.4016 189.062C89.7096 188.857 89.8636 188.563 89.8636 188.18C89.8636 187.863 89.7609 187.615 89.5556 187.438C89.3596 187.251 89.0329 187.102 88.5756 186.99L87.3856 186.724C86.8256 186.593 86.3823 186.36 86.0556 186.024C85.7383 185.688 85.5796 185.296 85.5796 184.848C85.5796 184.232 85.8129 183.742 86.2796 183.378C86.7556 183.005 87.3856 182.818 88.1696 182.818C88.6643 182.818 89.1216 182.897 89.5416 183.056C89.9709 183.215 90.3256 183.443 90.6056 183.742L90.2836 184.4C89.6396 183.84 88.9349 183.56 88.1696 183.56C87.6283 183.56 87.2083 183.667 86.9096 183.882C86.6109 184.097 86.4616 184.395 86.4616 184.778C86.4616 185.095 86.5549 185.352 86.7416 185.548C86.9376 185.744 87.2363 185.889 87.6376 185.982L88.8416 186.276C90.1016 186.556 90.7316 187.177 90.7316 188.138C90.7316 188.726 90.4889 189.202 90.0036 189.566C89.5183 189.921 88.8649 190.098 88.0436 190.098ZM94.9616 190.098C93.8229 190.098 92.9222 189.785 92.2596 189.16L92.5676 188.502C92.9409 188.81 93.3142 189.029 93.6876 189.16C94.0702 189.291 94.5089 189.356 95.0036 189.356C95.5822 189.356 96.0209 189.258 96.3196 189.062C96.6276 188.857 96.7816 188.563 96.7816 188.18C96.7816 187.863 96.6789 187.615 96.4736 187.438C96.2776 187.251 95.9509 187.102 95.4936 186.99L94.3036 186.724C93.7436 186.593 93.3002 186.36 92.9736 186.024C92.6562 185.688 92.4976 185.296 92.4976 184.848C92.4976 184.232 92.7309 183.742 93.1976 183.378C93.6736 183.005 94.3036 182.818 95.0876 182.818C95.5822 182.818 96.0396 182.897 96.4596 183.056C96.8889 183.215 97.2436 183.443 97.5236 183.742L97.2016 184.4C96.5576 183.84 95.8529 183.56 95.0876 183.56C94.5462 183.56 94.1262 183.667 93.8276 183.882C93.5289 184.097 93.3796 184.395 93.3796 184.778C93.3796 185.095 93.4729 185.352 93.6596 185.548C93.8556 185.744 94.1542 185.889 94.5556 185.982L95.7596 186.276C97.0196 186.556 97.6496 187.177 97.6496 188.138C97.6496 188.726 97.4069 189.202 96.9216 189.566C96.4362 189.921 95.7829 190.098 94.9616 190.098ZM99.5975 182.986H100.438V190H99.5975V182.986ZM100.606 180.088V181.18H99.4715V180.088H100.606ZM106.045 182.818C107.734 182.818 108.579 183.723 108.579 185.534V190H107.725V185.59C107.725 184.89 107.58 184.377 107.291 184.05C107.011 183.723 106.568 183.56 105.961 183.56C105.261 183.56 104.696 183.775 104.267 184.204C103.838 184.633 103.623 185.212 103.623 185.94V190H102.783V184.932C102.783 184.204 102.746 183.555 102.671 182.986H103.483L103.595 184.274C103.81 183.798 104.132 183.439 104.561 183.196C104.99 182.944 105.485 182.818 106.045 182.818ZM116.883 182.986V190.028C116.883 191.045 116.631 191.815 116.127 192.338C115.623 192.861 114.881 193.122 113.901 193.122C112.856 193.122 111.946 192.87 111.171 192.366L111.339 191.624C111.796 191.895 112.216 192.086 112.599 192.198C112.982 192.31 113.42 192.366 113.915 192.366C114.615 192.366 115.142 192.175 115.497 191.792C115.861 191.409 116.043 190.849 116.043 190.112V188.306C115.828 188.782 115.511 189.151 115.091 189.412C114.671 189.664 114.167 189.79 113.579 189.79C112.963 189.79 112.417 189.645 111.941 189.356C111.465 189.057 111.092 188.647 110.821 188.124C110.56 187.592 110.429 186.985 110.429 186.304C110.429 185.613 110.56 185.007 110.821 184.484C111.092 183.952 111.465 183.541 111.941 183.252C112.417 182.963 112.963 182.818 113.579 182.818C114.167 182.818 114.666 182.939 115.077 183.182C115.497 183.425 115.814 183.779 116.029 184.246V182.986H116.883ZM113.691 189.02C114.419 189.02 114.988 188.777 115.399 188.292C115.819 187.807 116.029 187.144 116.029 186.304C116.029 185.455 115.819 184.787 115.399 184.302C114.988 183.807 114.419 183.56 113.691 183.56C112.954 183.56 112.375 183.807 111.955 184.302C111.535 184.787 111.325 185.455 111.325 186.304C111.325 187.153 111.535 187.821 111.955 188.306C112.375 188.782 112.954 189.02 113.691 189.02ZM125.613 190.098C124.951 190.098 124.372 189.949 123.877 189.65C123.383 189.351 123 188.931 122.729 188.39C122.459 187.839 122.323 187.205 122.323 186.486C122.323 185.758 122.459 185.119 122.729 184.568C123 184.008 123.387 183.579 123.891 183.28C124.395 182.972 124.979 182.818 125.641 182.818C126.117 182.818 126.57 182.902 126.999 183.07C127.438 183.229 127.797 183.453 128.077 183.742L127.741 184.414C127.377 184.115 127.027 183.901 126.691 183.77C126.365 183.63 126.024 183.56 125.669 183.56C124.913 183.56 124.316 183.821 123.877 184.344C123.439 184.857 123.219 185.571 123.219 186.486C123.219 187.382 123.434 188.082 123.863 188.586C124.302 189.09 124.904 189.342 125.669 189.342C126.024 189.342 126.365 189.277 126.691 189.146C127.027 189.006 127.377 188.791 127.741 188.502L128.077 189.16C127.779 189.449 127.405 189.678 126.957 189.846C126.519 190.014 126.071 190.098 125.613 190.098ZM132.421 190.098C131.777 190.098 131.207 189.949 130.713 189.65C130.227 189.351 129.849 188.927 129.579 188.376C129.317 187.825 129.187 187.186 129.187 186.458C129.187 185.73 129.317 185.091 129.579 184.54C129.849 183.989 130.227 183.565 130.713 183.266C131.207 182.967 131.777 182.818 132.421 182.818C133.055 182.818 133.615 182.967 134.101 183.266C134.586 183.565 134.959 183.989 135.221 184.54C135.491 185.091 135.627 185.73 135.627 186.458C135.627 187.186 135.491 187.825 135.221 188.376C134.959 188.927 134.586 189.351 134.101 189.65C133.615 189.949 133.055 190.098 132.421 190.098ZM132.407 189.342C133.153 189.342 133.727 189.095 134.129 188.6C134.539 188.096 134.745 187.382 134.745 186.458C134.745 185.543 134.539 184.834 134.129 184.33C133.718 183.817 133.149 183.56 132.421 183.56C131.683 183.56 131.109 183.817 130.699 184.33C130.288 184.834 130.083 185.543 130.083 186.458C130.083 187.391 130.283 188.105 130.685 188.6C131.086 189.095 131.66 189.342 132.407 189.342ZM140.758 182.818C142.447 182.818 143.292 183.723 143.292 185.534V190H142.438V185.59C142.438 184.89 142.293 184.377 142.004 184.05C141.724 183.723 141.281 183.56 140.674 183.56C139.974 183.56 139.409 183.775 138.98 184.204C138.551 184.633 138.336 185.212 138.336 185.94V190H137.496V184.932C137.496 184.204 137.459 183.555 137.384 182.986H138.196L138.308 184.274C138.523 183.798 138.845 183.439 139.274 183.196C139.703 182.944 140.198 182.818 140.758 182.818ZM146.78 183.672V187.844C146.78 188.404 146.887 188.791 147.102 189.006C147.316 189.221 147.634 189.328 148.054 189.328C148.315 189.328 148.567 189.286 148.81 189.202V189.972C148.511 190.047 148.208 190.084 147.9 190.084C147.284 190.084 146.798 189.911 146.444 189.566C146.098 189.221 145.926 188.703 145.926 188.012V183.672H144.54V182.986H145.926V181.124L146.78 180.802V182.986H148.852V183.672H146.78ZM150.755 186.388V186.43C150.755 187.373 150.969 188.096 151.399 188.6C151.837 189.095 152.472 189.342 153.303 189.342C154.143 189.342 154.913 189.053 155.613 188.474L155.949 189.146C155.641 189.435 155.249 189.669 154.773 189.846C154.297 190.014 153.807 190.098 153.303 190.098C152.239 190.098 151.399 189.776 150.783 189.132C150.167 188.488 149.859 187.601 149.859 186.472C149.859 185.753 149.994 185.119 150.265 184.568C150.545 184.008 150.932 183.579 151.427 183.28C151.921 182.972 152.491 182.818 153.135 182.818C154.059 182.818 154.777 183.117 155.291 183.714C155.813 184.311 156.075 185.142 156.075 186.206V186.388H150.755ZM153.135 183.518C152.491 183.518 151.968 183.714 151.567 184.106C151.165 184.489 150.913 185.03 150.811 185.73H155.263C155.207 185.011 154.997 184.465 154.633 184.092C154.269 183.709 153.769 183.518 153.135 183.518ZM161.17 182.818C162.859 182.818 163.704 183.723 163.704 185.534V190H162.85V185.59C162.85 184.89 162.705 184.377 162.416 184.05C162.136 183.723 161.693 183.56 161.086 183.56C160.386 183.56 159.821 183.775 159.392 184.204C158.963 184.633 158.748 185.212 158.748 185.94V190H157.908V184.932C157.908 184.204 157.871 183.555 157.796 182.986H158.608L158.72 184.274C158.935 183.798 159.257 183.439 159.686 183.196C160.115 182.944 160.61 182.818 161.17 182.818ZM167.192 183.672V187.844C167.192 188.404 167.299 188.791 167.514 189.006C167.729 189.221 168.046 189.328 168.466 189.328C168.727 189.328 168.979 189.286 169.222 189.202V189.972C168.923 190.047 168.62 190.084 168.312 190.084C167.696 190.084 167.211 189.911 166.856 189.566C166.511 189.221 166.338 188.703 166.338 188.012V183.672H164.952V182.986H166.338V181.124L167.192 180.802V182.986H169.264V183.672H167.192ZM176.709 180.41C176.308 180.41 176 180.517 175.785 180.732C175.57 180.947 175.463 181.329 175.463 181.88V182.986H177.269V183.672H175.463V190H174.609V183.672H173.237V182.986H174.609V181.726C174.609 181.026 174.782 180.503 175.127 180.158C175.472 179.813 175.948 179.64 176.555 179.64C176.835 179.64 177.124 179.677 177.423 179.752V180.522C177.171 180.447 176.933 180.41 176.709 180.41ZM181.85 182.818C182.083 182.818 182.289 182.837 182.466 182.874L182.424 183.644C182.247 183.607 182.032 183.588 181.78 183.588C181.071 183.588 180.539 183.817 180.184 184.274C179.839 184.722 179.666 185.259 179.666 185.884V190H178.826V184.932C178.826 184.204 178.789 183.555 178.714 182.986H179.526L179.638 184.288C179.815 183.812 180.1 183.448 180.492 183.196C180.893 182.944 181.346 182.818 181.85 182.818ZM186.356 190.098C185.712 190.098 185.143 189.949 184.648 189.65C184.163 189.351 183.785 188.927 183.514 188.376C183.253 187.825 183.122 187.186 183.122 186.458C183.122 185.73 183.253 185.091 183.514 184.54C183.785 183.989 184.163 183.565 184.648 183.266C185.143 182.967 185.712 182.818 186.356 182.818C186.991 182.818 187.551 182.967 188.036 183.266C188.522 183.565 188.895 183.989 189.156 184.54C189.427 185.091 189.562 185.73 189.562 186.458C189.562 187.186 189.427 187.825 189.156 188.376C188.895 188.927 188.522 189.351 188.036 189.65C187.551 189.949 186.991 190.098 186.356 190.098ZM186.342 189.342C187.089 189.342 187.663 189.095 188.064 188.6C188.475 188.096 188.68 187.382 188.68 186.458C188.68 185.543 188.475 184.834 188.064 184.33C187.654 183.817 187.084 183.56 186.356 183.56C185.619 183.56 185.045 183.817 184.634 184.33C184.224 184.834 184.018 185.543 184.018 186.458C184.018 187.391 184.219 188.105 184.62 188.6C185.022 189.095 185.596 189.342 186.342 189.342ZM198.992 182.818C200.541 182.818 201.316 183.723 201.316 185.534V190H200.462V185.59C200.462 184.881 200.336 184.367 200.084 184.05C199.832 183.723 199.43 183.56 198.88 183.56C198.236 183.56 197.727 183.775 197.354 184.204C196.99 184.633 196.808 185.217 196.808 185.954V190H195.954V185.59C195.954 184.881 195.823 184.367 195.562 184.05C195.31 183.723 194.908 183.56 194.358 183.56C193.723 183.56 193.214 183.775 192.832 184.204C192.458 184.633 192.272 185.217 192.272 185.954V190H191.432V184.932C191.432 184.204 191.394 183.555 191.32 182.986H192.132L192.244 184.246C192.44 183.779 192.729 183.425 193.112 183.182C193.504 182.939 193.956 182.818 194.47 182.818C195.599 182.818 196.322 183.275 196.64 184.19C196.836 183.761 197.139 183.425 197.55 183.182C197.97 182.939 198.45 182.818 198.992 182.818ZM62.112 203.986V211H61.258V209.656C61.0527 210.123 60.74 210.482 60.32 210.734C59.9093 210.977 59.4147 211.098 58.836 211.098C58.2107 211.098 57.66 210.953 57.184 210.664C56.7173 210.365 56.3533 209.945 56.092 209.404C55.84 208.853 55.714 208.214 55.714 207.486C55.714 206.758 55.8447 206.119 56.106 205.568C56.3673 205.008 56.7313 204.579 57.198 204.28C57.674 203.972 58.22 203.818 58.836 203.818C59.4053 203.818 59.8953 203.939 60.306 204.182C60.726 204.425 61.0433 204.779 61.258 205.246V203.986H62.112ZM58.962 210.342C59.69 210.342 60.2547 210.09 60.656 209.586C61.0573 209.082 61.258 208.373 61.258 207.458C61.258 206.534 61.0573 205.82 60.656 205.316C60.2547 204.812 59.6853 204.56 58.948 204.56C58.2107 204.56 57.6367 204.821 57.226 205.344C56.8153 205.857 56.61 206.571 56.61 207.486C56.61 208.391 56.8153 209.096 57.226 209.6C57.6367 210.095 58.2153 210.342 58.962 210.342ZM67.6955 203.818C69.3848 203.818 70.2295 204.723 70.2295 206.534V211H69.3755V206.59C69.3755 205.89 69.2308 205.377 68.9415 205.05C68.6615 204.723 68.2182 204.56 67.6115 204.56C66.9115 204.56 66.3468 204.775 65.9175 205.204C65.4882 205.633 65.2735 206.212 65.2735 206.94V211H64.4335V205.932C64.4335 205.204 64.3962 204.555 64.3215 203.986H65.1335L65.2455 205.274C65.4602 204.798 65.7822 204.439 66.2115 204.196C66.6408 203.944 67.1355 203.818 67.6955 203.818ZM78.4772 203.986L75.1732 211.728C74.8466 212.493 74.4359 213.053 73.9412 213.408C73.4559 213.772 72.8446 214.029 72.1072 214.178L71.9392 213.506C72.6112 213.347 73.1152 213.142 73.4512 212.89C73.7966 212.638 74.0859 212.241 74.3192 211.7L74.6132 211.014L71.6172 203.986H72.5272L75.0612 210.146L77.6092 203.986H78.4772ZM90.3267 203.986L87.7787 211H86.8967L84.7687 205.078L82.6267 211H81.7307L79.1967 203.986H80.1067L82.1787 209.978L84.3627 203.986H85.2167L87.3307 209.978L89.4587 203.986H90.3267ZM95.2306 203.818C96.92 203.818 97.7646 204.723 97.7646 206.534V211H96.9106V206.59C96.9106 205.89 96.766 205.377 96.4766 205.05C96.1966 204.723 95.7533 204.56 95.1466 204.56C94.4466 204.56 93.882 204.775 93.4526 205.204C93.0233 205.633 92.8086 206.212 92.8086 206.94V211H91.9686V200.696H92.8086V205.204C93.0326 204.747 93.3546 204.401 93.7746 204.168C94.1946 203.935 94.68 203.818 95.2306 203.818ZM100.51 207.388V207.43C100.51 208.373 100.725 209.096 101.154 209.6C101.593 210.095 102.228 210.342 103.058 210.342C103.898 210.342 104.668 210.053 105.368 209.474L105.704 210.146C105.396 210.435 105.004 210.669 104.528 210.846C104.052 211.014 103.562 211.098 103.058 211.098C101.994 211.098 101.154 210.776 100.538 210.132C99.9224 209.488 99.6144 208.601 99.6144 207.472C99.6144 206.753 99.7497 206.119 100.02 205.568C100.3 205.008 100.688 204.579 101.182 204.28C101.677 203.972 102.246 203.818 102.89 203.818C103.814 203.818 104.533 204.117 105.046 204.714C105.569 205.311 105.83 206.142 105.83 207.206V207.388H100.51ZM102.89 204.518C102.246 204.518 101.724 204.714 101.322 205.106C100.921 205.489 100.669 206.03 100.566 206.73H105.018C104.962 206.011 104.752 205.465 104.388 205.092C104.024 204.709 103.525 204.518 102.89 204.518ZM110.688 203.818C110.921 203.818 111.127 203.837 111.304 203.874L111.262 204.644C111.085 204.607 110.87 204.588 110.618 204.588C109.909 204.588 109.377 204.817 109.022 205.274C108.677 205.722 108.504 206.259 108.504 206.884V211H107.664V205.932C107.664 205.204 107.627 204.555 107.552 203.986H108.364L108.476 205.288C108.653 204.812 108.938 204.448 109.33 204.196C109.731 203.944 110.184 203.818 110.688 203.818ZM112.856 207.388V207.43C112.856 208.373 113.071 209.096 113.5 209.6C113.939 210.095 114.573 210.342 115.404 210.342C116.244 210.342 117.014 210.053 117.714 209.474L118.05 210.146C117.742 210.435 117.35 210.669 116.874 210.846C116.398 211.014 115.908 211.098 115.404 211.098C114.34 211.098 113.5 210.776 112.884 210.132C112.268 209.488 111.96 208.601 111.96 207.472C111.96 206.753 112.095 206.119 112.366 205.568C112.646 205.008 113.033 204.579 113.528 204.28C114.023 203.972 114.592 203.818 115.236 203.818C116.16 203.818 116.879 204.117 117.392 204.714C117.915 205.311 118.176 206.142 118.176 207.206V207.388H112.856ZM115.236 204.518C114.592 204.518 114.069 204.714 113.668 205.106C113.267 205.489 113.015 206.03 112.912 206.73H117.364C117.308 206.011 117.098 205.465 116.734 205.092C116.37 204.709 115.871 204.518 115.236 204.518ZM134.022 203.986L131.474 211H130.592L128.464 205.078L126.322 211H125.426L122.892 203.986H123.802L125.874 209.978L128.058 203.986H128.912L131.026 209.978L133.154 203.986H134.022ZM135.664 203.986H136.504V211H135.664V203.986ZM136.672 201.088V202.18H135.538V201.088H136.672ZM140.04 204.672V208.844C140.04 209.404 140.147 209.791 140.362 210.006C140.576 210.221 140.894 210.328 141.314 210.328C141.575 210.328 141.827 210.286 142.07 210.202V210.972C141.771 211.047 141.468 211.084 141.16 211.084C140.544 211.084 140.058 210.911 139.704 210.566C139.358 210.221 139.186 209.703 139.186 209.012V204.672H137.8V203.986H139.186V202.124L140.04 201.802V203.986H142.112V204.672H140.04ZM146.828 203.818C148.518 203.818 149.362 204.723 149.362 206.534V211H148.508V206.59C148.508 205.89 148.364 205.377 148.074 205.05C147.794 204.723 147.351 204.56 146.744 204.56C146.044 204.56 145.48 204.775 145.05 205.204C144.621 205.633 144.406 206.212 144.406 206.94V211H143.566V200.696H144.406V205.204C144.63 204.747 144.952 204.401 145.372 204.168C145.792 203.935 146.278 203.818 146.828 203.818ZM155.228 203.986H156.068V211H155.228V203.986ZM156.236 201.088V202.18H155.102V201.088H156.236ZM161.676 203.818C163.365 203.818 164.21 204.723 164.21 206.534V211H163.356V206.59C163.356 205.89 163.211 205.377 162.922 205.05C162.642 204.723 162.199 204.56 161.592 204.56C160.892 204.56 160.327 204.775 159.898 205.204C159.469 205.633 159.254 206.212 159.254 206.94V211H158.414V205.932C158.414 205.204 158.377 204.555 158.302 203.986H159.114L159.226 205.274C159.441 204.798 159.763 204.439 160.192 204.196C160.621 203.944 161.116 203.818 161.676 203.818ZM167.698 204.672V208.844C167.698 209.404 167.805 209.791 168.02 210.006C168.234 210.221 168.552 210.328 168.972 210.328C169.233 210.328 169.485 210.286 169.728 210.202V210.972C169.429 211.047 169.126 211.084 168.818 211.084C168.202 211.084 167.716 210.911 167.362 210.566C167.016 210.221 166.844 209.703 166.844 209.012V204.672H165.458V203.986H166.844V202.124L167.698 201.802V203.986H169.77V204.672H167.698ZM171.673 207.388V207.43C171.673 208.373 171.887 209.096 172.317 209.6C172.755 210.095 173.39 210.342 174.221 210.342C175.061 210.342 175.831 210.053 176.531 209.474L176.867 210.146C176.559 210.435 176.167 210.669 175.691 210.846C175.215 211.014 174.725 211.098 174.221 211.098C173.157 211.098 172.317 210.776 171.701 210.132C171.085 209.488 170.777 208.601 170.777 207.472C170.777 206.753 170.912 206.119 171.183 205.568C171.463 205.008 171.85 204.579 172.345 204.28C172.839 203.972 173.409 203.818 174.053 203.818C174.977 203.818 175.695 204.117 176.209 204.714C176.731 205.311 176.993 206.142 176.993 207.206V207.388H171.673ZM174.053 204.518C173.409 204.518 172.886 204.714 172.485 205.106C172.083 205.489 171.831 206.03 171.729 206.73H176.181C176.125 206.011 175.915 205.465 175.551 205.092C175.187 204.709 174.687 204.518 174.053 204.518ZM181.85 203.818C182.083 203.818 182.289 203.837 182.466 203.874L182.424 204.644C182.247 204.607 182.032 204.588 181.78 204.588C181.071 204.588 180.539 204.817 180.184 205.274C179.839 205.722 179.666 206.259 179.666 206.884V211H178.826V205.932C178.826 205.204 178.789 204.555 178.714 203.986H179.526L179.638 205.288C179.815 204.812 180.1 204.448 180.492 204.196C180.893 203.944 181.346 203.818 181.85 203.818ZM186.969 203.818C188.658 203.818 189.503 204.723 189.503 206.534V211H188.649V206.59C188.649 205.89 188.504 205.377 188.215 205.05C187.935 204.723 187.492 204.56 186.885 204.56C186.185 204.56 185.62 204.775 185.191 205.204C184.762 205.633 184.547 206.212 184.547 206.94V211H183.707V205.932C183.707 205.204 183.67 204.555 183.595 203.986H184.407L184.519 205.274C184.734 204.798 185.056 204.439 185.485 204.196C185.914 203.944 186.409 203.818 186.969 203.818ZM192.249 207.388V207.43C192.249 208.373 192.463 209.096 192.893 209.6C193.331 210.095 193.966 210.342 194.797 210.342C195.637 210.342 196.407 210.053 197.107 209.474L197.443 210.146C197.135 210.435 196.743 210.669 196.267 210.846C195.791 211.014 195.301 211.098 194.797 211.098C193.733 211.098 192.893 210.776 192.277 210.132C191.661 209.488 191.353 208.601 191.353 207.472C191.353 206.753 191.488 206.119 191.759 205.568C192.039 205.008 192.426 204.579 192.921 204.28C193.415 203.972 193.985 203.818 194.629 203.818C195.553 203.818 196.271 204.117 196.785 204.714C197.307 205.311 197.569 206.142 197.569 207.206V207.388H192.249ZM194.629 204.518C193.985 204.518 193.462 204.714 193.061 205.106C192.659 205.489 192.407 206.03 192.305 206.73H196.757C196.701 206.011 196.491 205.465 196.127 205.092C195.763 204.709 195.263 204.518 194.629 204.518ZM200.579 204.672V208.844C200.579 209.404 200.686 209.791 200.901 210.006C201.115 210.221 201.433 210.328 201.853 210.328C202.114 210.328 202.366 210.286 202.609 210.202V210.972C202.31 211.047 202.007 211.084 201.699 211.084C201.083 211.084 200.597 210.911 200.243 210.566C199.897 210.221 199.725 209.703 199.725 209.012V204.672H198.339V203.986H199.725V202.124L200.579 201.802V203.986H202.651V204.672H200.579ZM205.25 209.782V211H204.06V209.782H205.25Z" fill="black"/>
<path d="M136.627 37.52V39.96L123.267 66H119.747L133.027 40.28H117.827V37.52H136.627ZM160.851 63.24V66H142.531V63.52L152.491 52.48C153.824 50.9867 154.798 49.64 155.411 48.44C156.024 47.24 156.331 46.04 156.331 44.84C156.331 43.2667 155.878 42.0667 154.971 41.24C154.064 40.3867 152.771 39.96 151.091 39.96C148.371 39.96 145.678 41.0533 143.011 43.24L141.771 40.72C142.891 39.6533 144.304 38.8 146.011 38.16C147.718 37.52 149.438 37.2 151.171 37.2C153.784 37.2 155.851 37.88 157.371 39.24C158.891 40.5733 159.651 42.3867 159.651 44.68C159.651 46.3067 159.278 47.88 158.531 49.4C157.811 50.8933 156.598 52.5733 154.891 54.44L146.771 63.24H160.851ZM172.275 54.6C170.115 54.6 168.435 53.8667 167.235 52.4C166.035 50.9333 165.435 48.76 165.435 45.88C165.435 43.0267 166.035 40.8667 167.235 39.4C168.435 37.9333 170.115 37.2 172.275 37.2C174.435 37.2 176.115 37.9333 177.315 39.4C178.542 40.8667 179.155 43.0267 179.155 45.88C179.155 48.76 178.542 50.9333 177.315 52.4C176.115 53.8667 174.435 54.6 172.275 54.6ZM172.155 66L188.635 37.52H191.795L175.315 66H172.155ZM172.275 52.28C173.609 52.28 174.582 51.7733 175.195 50.76C175.835 49.72 176.155 48.0933 176.155 45.88C176.155 43.6933 175.835 42.0933 175.195 41.08C174.582 40.04 173.609 39.52 172.275 39.52C170.969 39.52 169.995 40.04 169.355 41.08C168.715 42.0933 168.395 43.6933 168.395 45.88C168.395 48.0933 168.715 49.72 169.355 50.76C169.995 51.7733 170.969 52.28 172.275 52.28ZM191.675 66.28C189.515 66.28 187.835 65.5467 186.635 64.08C185.435 62.6133 184.835 60.44 184.835 57.56C184.835 54.68 185.435 52.52 186.635 51.08C187.835 49.6133 189.515 48.88 191.675 48.88C193.835 48.88 195.515 49.6133 196.715 51.08C197.942 52.52 198.555 54.68 198.555 57.56C198.555 60.44 197.942 62.6133 196.715 64.08C195.515 65.5467 193.835 66.28 191.675 66.28ZM191.675 63.96C193.035 63.96 194.022 63.4533 194.635 62.44C195.275 61.4267 195.595 59.8 195.595 57.56C195.595 55.3733 195.275 53.7733 194.635 52.76C193.995 51.72 193.009 51.2 191.675 51.2C190.342 51.2 189.355 51.72 188.715 52.76C188.102 53.7733 187.795 55.3733 187.795 57.56C187.795 59.7733 188.102 61.4 188.715 62.44C189.355 63.4533 190.342 63.96 191.675 63.96Z" fill="#1B6A43"/>
<defs>
<filter id="filter0_d" x="0" y="0" width="324" height="270" filterUnits="userSpaceOnUse" color-interpolation-filters="sRGB">
<feFlood flood-opacity="0" result="BackgroundImageFix"/>
<feColorMatrix in="SourceAlpha" type="matrix" values="0 0 0 0 0 0 0 0 0 0 0 0 0 0 0 0 0 0 127 0"/>
<feOffset dy="4"/>
<feGaussianBlur stdDeviation="2"/>
<feColorMatrix type="matrix" values="0 0 0 0 0 0 0 0 0 0 0 0 0 0 0 0 0 0 0.25 0"/>
<feBlend mode="normal" in2="BackgroundImageFix" result="effect1_dropShadow"/>
<feBlend mode="normal" in="SourceGraphic" in2="effect1_dropShadow" result="shape"/>
</filter>
</defs>
</svg>
