<svg width="1608" height="1195" viewBox="0 0 1608 1195" fill="none" xmlns="http://www.w3.org/2000/svg">
<g clip-path="url(#clip0)">
<rect width="1608" height="1195" fill="white"/>
<rect width="1608" height="1195" fill="#F8F8F8"/>
<path d="M350 598.5L218.106 533.075C217.064 532.558 217.595 530.979 218.738 531.196L372.591 560.542C373.746 560.763 374.268 559.155 373.204 558.655L187.703 471.429C186.622 470.921 187.181 469.288 188.346 469.548L383.389 513.088C384.535 513.344 385.107 511.757 384.062 511.222L165.382 399.386C164.302 398.834 164.953 397.197 166.117 397.536L406.5 467.574" stroke="#7EC0EE" stroke-width="15"/>
<path d="M296.103 742.344L354.961 598.749M354.961 598.749L444.856 388.242C445.207 387.42 446.379 387.437 446.706 388.269L584.914 739.536C585.267 740.432 584.274 741.259 583.456 740.751L354.961 598.749Z" stroke="#002194" stroke-width="15"/>
<path d="M828 598.5L696.106 533.075C695.064 532.558 695.595 530.979 696.738 531.196L850.591 560.542C851.746 560.763 852.268 559.155 851.204 558.655L665.703 471.429C664.622 470.921 665.181 469.288 666.346 469.548L861.389 513.088C862.535 513.344 863.107 511.757 862.062 511.222L643.382 399.386C642.302 398.834 642.953 397.197 644.117 397.536L884.5 467.574" stroke="#7EC0EE" stroke-width="15"/>
<path d="M774.103 742.344L832.961 598.749M832.961 598.749L922.856 388.242C923.207 387.42 924.379 387.437 924.706 388.269L1062.91 739.536C1063.27 740.432 1062.27 741.259 1061.46 740.751L832.961 598.749Z" stroke="#002194" stroke-width="15"/>
<path d="M1052.81 516.5H1066.31L1067.41 528.8H1068.51C1072.97 524.267 1078.11 520.8 1083.91 518.4C1089.77 516 1096.01 514.8 1102.61 514.8C1113.47 514.8 1121.97 517.867 1128.11 524C1134.31 530.067 1137.41 539.833 1137.41 553.3V625H1121.41V554C1121.41 545.133 1119.44 538.767 1115.51 534.9C1111.64 531.033 1106.04 529.1 1098.71 529.1C1093.31 529.1 1087.91 530.267 1082.51 532.6C1077.11 534.933 1072.54 538.567 1068.81 543.5V625H1052.81V516.5ZM1199.58 671C1194.38 671 1188.94 670.567 1183.28 669.7C1177.61 668.9 1172.41 667.7 1167.68 666.1V652.7C1178.54 656.1 1188.91 657.8 1198.78 657.8C1206.78 657.8 1213.28 656.7 1218.28 654.5C1223.28 652.3 1227.01 648.733 1229.48 643.8C1231.94 638.867 1233.18 632.267 1233.18 624V613.5H1232.18C1228.78 617.5 1224.51 620.667 1219.38 623C1214.24 625.267 1208.51 626.4 1202.18 626.4C1194.31 626.4 1187.28 624.6 1181.08 621C1174.88 617.333 1169.94 611.533 1166.28 603.6C1162.61 595.6 1160.78 585.367 1160.78 572.9C1160.78 553.567 1165.38 539.067 1174.58 529.4C1183.84 519.733 1197.58 514.867 1215.78 514.8C1221.38 514.8 1227.11 515.233 1232.98 516.1C1238.91 516.967 1244.31 518.167 1249.18 519.7V621.5C1249.18 633.233 1247.34 642.733 1243.68 650C1240.01 657.267 1234.54 662.567 1227.28 665.9C1220.01 669.3 1210.78 671 1199.58 671ZM1206.98 612.7C1212.04 612.7 1216.91 611.667 1221.58 609.6C1226.24 607.467 1230.11 604.333 1233.18 600.2V530.1C1227.18 528.633 1220.94 527.9 1214.48 527.9C1202.01 527.9 1192.64 531.367 1186.38 538.3C1180.18 545.233 1177.08 556.267 1177.08 571.4C1177.08 586.533 1179.68 597.2 1184.88 603.4C1190.14 609.6 1197.51 612.7 1206.98 612.7ZM1359.37 576.1H1289.87C1290.13 585.233 1291.63 592.567 1294.37 598.1C1297.17 603.633 1301.23 607.633 1306.57 610.1C1311.9 612.567 1318.7 613.8 1326.97 613.8C1334.83 613.8 1343.83 612.333 1353.97 609.4V622.5C1344.1 625.433 1334.47 626.9 1325.07 626.9C1307.8 626.9 1294.9 622.433 1286.37 613.5C1277.9 604.567 1273.67 590.3 1273.67 570.7C1273.67 552.1 1277.5 538.133 1285.17 528.8C1292.9 519.467 1303.7 514.8 1317.57 514.8C1331.1 514.8 1341.43 519.467 1348.57 528.8C1355.77 538.067 1359.37 552.167 1359.37 571.1V576.1ZM1317.37 526.5C1308.63 526.5 1301.93 529.5 1297.27 535.5C1292.6 541.5 1290.13 551.367 1289.87 565.1H1343.97C1343.7 551.3 1341.33 541.433 1336.87 535.5C1332.47 529.5 1325.97 526.5 1317.37 526.5ZM1382.3 625V463.4H1398.3V625H1382.3Z" fill="#002194"/>
</g>
<defs>
<clipPath id="clip0">
<rect width="1608" height="1195" fill="white"/>
</clipPath>
</defs>
</svg>
