<svg width="1608" height="1195" viewBox="0 0 1608 1195" fill="none" xmlns="http://www.w3.org/2000/svg">
<g clip-path="url(#clip0)">
<rect width="1608" height="1195" fill="white"/>
<rect width="1608" height="1195" fill="#E8E8E8"/>
<path d="M1114.53 335.198L1041.67 83L961.335 183.879H991.228L937.048 239.923H970.677L881 323.989L1056.62 226.846" stroke="black" stroke-width="10"/>
<path d="M1490.08 335.198L1420.98 96.0164C1419.4 90.5564 1412.32 89.1528 1408.78 93.5986L1345.6 172.934C1342.08 177.352 1345.23 183.879 1350.88 183.879V183.879C1356.83 183.879 1359.87 191.03 1355.73 195.311L1324.07 228.058C1319.77 232.501 1322.92 239.923 1329.1 239.923H1332.57C1338.27 239.923 1341.58 246.381 1338.25 251.012L1269.35 346.765C1264.52 353.469 1273.26 361.534 1279.56 356.194L1432.17 226.846" stroke="black" stroke-width="10"/>
<path d="M903.024 714L943.171 613.373M943.171 613.373L1102.66 706.772C1106.74 709.163 1111.55 705.071 1109.85 700.656L1013.54 451.187C1011.85 446.822 1005.63 446.956 1004.13 451.39L984.121 510.734M943.171 613.373L902.673 570.766C898.752 566.642 903.668 560.217 908.674 562.923L953.609 587.21M943.171 613.373L953.609 587.21M953.609 587.21L910.921 513.692C908.142 508.906 914.045 503.82 918.367 507.276L969.266 547.966M953.609 587.21L969.266 547.966M969.266 547.966L922.688 439.002C920.316 433.454 927.98 429.231 931.403 434.2L984.121 510.734M969.266 547.966L984.121 510.734" stroke="black" stroke-width="10"/>
<path d="M1437.82 445.861L1394.91 529.633H1344.54L1376.26 574.311H1255L1344.54 637.606" stroke="black" stroke-width="8"/>
<path d="M1409.83 592.928L1489.58 593.928" stroke="black" stroke-width="8"/>
<path d="M1435.02 444L1510.57 667.392" stroke="black" stroke-width="8"/>
<path d="M1388 995.5L1286.09 941.952C1285.08 941.419 1285.61 939.875 1286.74 940.084L1395.23 960.155C1396.37 960.367 1396.9 958.78 1395.85 958.272L1262.03 893.337C1260.96 892.823 1261.51 891.217 1262.67 891.459L1408.12 921.953C1409.26 922.193 1409.82 920.612 1408.78 920.083L1246.33 837.492C1245.24 836.938 1245.91 835.286 1247.08 835.645L1423.21 889.793" stroke="black" stroke-width="8"/>
<path d="M1344.36 1111L1386.52 997.766M1386.52 997.766L1450.62 832.503C1450.95 831.639 1452.18 831.656 1452.49 832.528L1550.96 1108.1C1551.29 1109.01 1550.26 1109.81 1549.46 1109.26L1386.52 997.766Z" stroke="black" stroke-width="8"/>
<path d="M972.916 1002.07L901.426 963.358H968.274L886.571 913.028L995.705 927.062L881 862.698L1016.55 892.702" stroke="black" stroke-width="8"/>
<path d="M937.616 1111.2L974.5 1006.5M974.5 1006.5L1034.82 830L1129.24 1097.76L974.5 1006.5Z" stroke="black" stroke-width="8"/>
<path d="M699.138 364.198L626.275 112L545.94 212.879H588.91L521.653 268.923H545.94L486.156 324.967H516.048L460 364.198" stroke="black" stroke-width="10"/>
<path d="M585.174 268.923L676.719 269.923" stroke="black" stroke-width="10"/>
<path d="M701.493 715.648L632.392 476.467C630.814 471.007 623.731 469.603 620.191 474.049L557.343 552.969C553.691 557.555 556.956 564.33 562.819 564.33H571.931C578.478 564.33 581.441 572.516 576.412 576.707L534.694 611.47C530.275 615.151 531.936 622.295 537.526 623.65L540.193 624.297C545.981 625.7 547.485 633.229 542.68 636.747L500.348 667.749C496.606 670.49 498.544 676.417 503.183 676.417V676.417C507.874 676.417 509.777 682.456 505.934 685.146L462.356 715.648" stroke="black" stroke-width="10"/>
<path d="M591.266 620.374L682.811 621.374" stroke="black" stroke-width="10"/>
<path d="M548.632 1079.31L559.989 1007.74M559.989 1007.74L586.915 839.022L752.144 1077.47L559.989 1007.74Z" stroke="black" stroke-width="8"/>
<path d="M559.969 1007.28L476.724 985.154C475.747 984.895 475.794 983.468 476.788 983.201L541.841 965.757C542.807 965.498 542.889 964.127 541.958 963.82L448.388 932.954C447.399 932.628 447.574 931.144 448.621 930.993L542.814 917.426C543.859 917.275 544.036 915.795 543.048 915.466L430.883 878.126C429.84 877.779 430.114 876.195 431.224 876.157L579.258 871.08" stroke="black" stroke-width="8"/>
<path d="M167.435 549.337L98.3907 513.418C97.4623 512.935 97.8057 511.531 98.8522 511.531H159.062C160.08 511.531 160.447 510.188 159.572 509.67L83.655 464.745C82.7286 464.197 83.2038 462.772 84.2738 462.89L169.458 472.274C170.527 472.392 171.003 470.971 170.079 470.421L79.2028 416.331C78.2308 415.752 78.8158 414.258 79.9222 414.493L211.793 442.534" stroke="black" stroke-width="8"/>
<path d="M317.497 646.689L221.23 420.795L122.133 646.689H317.497Z" stroke="black" stroke-width="8"/>
<path d="M317.332 112L250.214 198.192H285.702L223.213 252.891H250.214L195.44 300.96H223.213L162.266 339.912" stroke="black" stroke-width="10"/>
<path d="M270.406 1103.55L254.161 977.795M122 1111L167.563 1049.52L122 1068.15L167.563 989.904L133.716 1015.05L167.563 944.26L133.716 967.548L167.563 909.795L133.716 925.63L227.447 771L254.161 977.795M176.676 977.795H254.161" stroke="black" stroke-width="10"/>
</g>
<defs>
<clipPath id="clip0">
<rect width="1608" height="1195" fill="white"/>
</clipPath>
</defs>
</svg>
