<svg width="637" height="128" viewBox="0 0 637 128" fill="none" xmlns="http://www.w3.org/2000/svg">
<path d="M189 23.3171L139.909 47.9291L142.112 51.2106L143.685 54.4922L145.259 57.7738L147.462 62.4228L149.35 66.5248L149.979 68.7125L150.608 70.9139V73.0652V75.2164V77.6366V80.0568V83.0148V89.7694L189 68.4937V23.3171Z" fill="#005925" stroke="white"/>
<path d="M86.7274 103.169L83.8952 106.451L82.9512 108.639V111.373L86.7274 113.561H90.1889L92.3917 111.92L94.2798 108.639L94.9092 104.81L94.2798 103.169L93.3358 102.075L91.7624 101.255H89.5596L88.6155 101.802L86.7274 103.169Z" fill="#005925" stroke="white"/>
<path d="M77.9161 97.153L73.5105 100.435L72.5664 103.443L73.5105 105.357L77.2867 107.818H80.1189H81.3776L83.5804 106.724L84.5245 105.904L86.7273 103.443L87.6713 102.075L88.6154 100.435L88.93 99.3407L89.2447 98.2468L88.93 97.153L87.986 96.0591L86.7273 94.9652L84.5245 94.1448H82.951L81.3776 94.6918L79.4895 95.7856L77.9161 97.153Z" fill="#005925" stroke="white"/>
<path d="M67.5313 91.1368L63.4404 93.8714L62.811 96.3326L64.0698 99.3407L66.5873 100.982L70.0488 101.802L73.825 100.161L79.804 95.5122L81.0628 93.3245L81.6922 91.6837L81.3775 90.0429L80.4334 88.4021L79.4894 87.3082L76.6572 86.2144L73.825 86.7613L70.3635 88.6756L67.5313 91.1368Z" fill="#005925" stroke="white"/>
<path d="M63.1259 80.745L58.4056 84.0266L56.5175 85.6674L55.2588 87.8551L55.8882 90.3163L58.4056 92.7775L61.5525 93.5979H63.7553L67.2168 91.4102L69.4196 89.4959L71.3077 87.8551L71.9371 85.1205L71.3077 83.4797L70.049 81.5654L68.1609 80.745L65.3287 80.1981L63.1259 80.745Z" fill="#005925" stroke="white"/>
<path d="M87.0421 46.5617L89.8742 45.4679L97.112 43.0067L103.406 41.0924L108.441 39.7251L110.329 40.272L112.846 41.0924L118.196 43.0067L123.546 44.9209L129.21 46.5617L137.392 49.0229H140.539L148.406 65.1574L150.609 71.9941V87.5817L144 92.5041L139.28 88.1286L134.874 84.0266L129.839 78.5573L126.378 73.6349H124.49H120.713L116.937 72.541L114.42 70.6268L111.902 68.1656L109.699 65.1574L107.811 62.6962L105.609 60.235L103.406 58.8677L98.6854 60.235L95.5386 61.3289L94.5945 62.6962L93.6505 64.337L91.133 67.3452L88.9302 69.5329L84.8393 70.0798H81.3777L79.8043 69.5329L78.2309 68.7125L76.9721 67.3452L76.3428 65.7044V63.7901L77.6015 61.3289L79.1749 58.8677L80.4337 56.68L82.0071 53.9453L83.2659 51.2107L84.8393 48.476L87.0421 46.5617Z" fill="#005925" stroke="white"/>
<path d="M9 75.5491V23.3171L60.9231 38.6312L61.5524 42.7332L59.979 49.8433L56.5175 58.3208L51.7972 67.8921L47.7063 75.5491L44.2448 80.745L42.042 82.9327L9 75.5491Z" fill="#005925" stroke="white"/>
<path d="M61.8671 43.2801L88.9301 45.7413L86.7273 46.8352L84.8392 48.476L83.8951 50.3902L82.9511 52.031L81.3776 55.0392L79.8042 57.7738L77.9161 60.782L76.3427 63.5166V65.7044L76.972 67.6186L78.2308 68.7125L79.8042 69.5329L82.007 70.0798H85.7832L89.2448 69.5329L93.6504 64.337L95.8532 61.3289L103.406 58.8677L106.238 60.5085L108.441 63.5166L110.643 66.2513L112.846 68.986L114.734 70.9002L117.252 72.541L120.084 73.6349H122.287H126.692L130.154 78.8307L135.189 84.5735L144 92.5041L144.944 94.6918V97.4265L143.371 99.6142L141.483 101.802L138.021 102.896L135.504 101.802L134.874 104.537L132.671 106.724L128.266 108.092L125.434 108.639L122.287 110.279L115.993 113.014L112.217 112.467H108.126L103.72 112.194L98.6853 111.1L94.5944 108.092V104.537L93.021 101.802L90.5035 100.982L88.3007 101.802L89.2448 97.9734L88.9301 96.3326L86.7273 94.6918L84.8392 93.8714H82.9511L79.8042 95.5122L81.3776 93.3245L82.007 91.6837L81.3776 89.7694L79.8042 87.5817L76.972 86.2143L73.5105 86.7613L71.3077 87.5817L71.9371 85.1205L71.3077 83.7531L70.049 81.8389L67.5315 81.0185L63.7553 81.5654L57.4616 84.5735L48.021 75.2757L52.1119 67.3452L55.8881 59.9616L60.2937 48.7494L61.8671 43.2801Z" fill="#005925" stroke="white"/>
<path d="M132.986 99.6142L134.245 100.708L131.413 98.4747L129.21 96.8795L127.322 95.2387L124.804 93.051L123.493 91.6836L120.084 88.1286L119.57 87.4761L118.904 86.7612L115.563 82.3858L119.57 87.4761L123.493 91.6836L127.322 95.2387L131.413 98.4747L132.986 99.6142Z" fill="white"/>
<path d="M135.504 101.802L132.986 99.6142L129.21 96.8795L124.804 93.051L120.084 88.1286L115.563 82.3858L113.476 79.6511L118.904 86.7612L123.493 91.6836L127.322 95.2387L131.413 98.4747L134.245 100.708L135.504 101.802Z" stroke="white"/>
<path d="M114.577 111.852L112.217 111.237L111.488 110.832L110.644 110.553L109.07 109.489L107.811 108.639L106.238 107.545L105.137 106.723L104.035 105.9L102.546 104.533L100.574 102.501L99.6296 101.528L98.0562 98.5203L100.574 102.501L105.137 106.723L109.07 109.489L111.488 110.832L114.577 111.852Z" fill="white"/>
<path d="M116.937 112.467L112.217 111.237L109.07 109.489L105.137 106.723L100.574 102.501L98.0562 98.5203L99.6296 101.528L102.546 104.533L104.035 105.9L106.238 107.545L107.811 108.639L110.644 110.553L114.577 111.852L115.993 112.221L116.937 112.467Z" stroke="white"/>
<path d="M126.063 107.545L124.804 106.998L123.388 106.177L121.972 105.357L120.713 104.537L118.196 102.896L116.465 101.528L114.734 100.161L113.79 99.2662L111.273 96.8795L111.024 96.5915L110.474 96.0591L109.542 95.102L108.126 93.2294L111.024 96.5915L113.79 99.2662L116.465 101.528L120.713 104.537L123.388 106.177L126.063 107.545Z" fill="white"/>
<path d="M127.321 108.092L124.804 106.998L121.972 105.357L118.196 102.896L114.734 100.161L111.273 96.8795L108.126 93.2294L105.923 90.3163L109.542 95.102L110.474 96.0591L113.79 99.2662L116.465 101.528L120.713 104.537L123.388 106.177L126.063 107.545L127.321 108.092Z" stroke="white"/>
<path d="M93.6505 111.92L90.189 113.561L92.3918 111.647L93.3358 110.006L94.5946 108.092L98.3708 110.826L95.8533 111.1L93.6505 111.92Z" fill="#005925" stroke="white"/>
<path d="M55.5732 85.3939V83.2062L56.832 84.847L55.5732 86.7613V85.3939Z" fill="#005925" stroke="white"/>
<path d="M266.562 78.1094C264.562 80.2031 262.625 81.9688 260.75 83.4062C258.906 84.8438 257.094 86.0156 255.312 86.9219C253.531 87.7969 251.781 88.4219 250.062 88.7969C248.375 89.2031 246.688 89.4062 245 89.4062C242.031 89.4062 239.109 88.75 236.234 87.4375C233.359 86.125 230.797 84.2344 228.547 81.7656C226.297 79.2969 224.484 76.2812 223.109 72.7188C221.734 69.125 221.047 65.0625 221.047 60.5312C221.047 55.5312 221.797 51 223.297 46.9375C224.828 42.875 226.906 39.4062 229.531 36.5312C232.156 33.6562 235.219 31.4375 238.719 29.875C242.219 28.3125 245.953 27.5312 249.922 27.5312C251.609 27.5312 253.219 27.6563 254.75 27.9062C256.312 28.1562 257.766 28.5 259.109 28.9375C260.453 29.3438 261.672 29.8281 262.766 30.3906C263.891 30.9531 264.859 31.5625 265.672 32.2188C265.859 32.375 265.797 32.7656 265.484 33.3906C265.172 34.0156 264.75 34.7188 264.219 35.5C263.719 36.25 263.188 37 262.625 37.75C262.062 38.4688 261.594 39.0156 261.219 39.3906L259.109 38.9688C257.516 37.0938 255.641 35.6406 253.484 34.6094C251.359 33.5469 248.938 33.0156 246.219 33.0156C245.156 33.0156 244 33.2031 242.75 33.5781C241.531 33.9531 240.312 34.5625 239.094 35.4062C237.906 36.2188 236.75 37.2969 235.625 38.6406C234.5 39.9531 233.516 41.5625 232.672 43.4688C231.828 45.375 231.141 47.5938 230.609 50.125C230.109 52.6562 229.859 55.5469 229.859 58.7969C229.859 62.8906 230.438 66.4688 231.594 69.5312C232.75 72.5625 234.234 75.0938 236.047 77.125C237.859 79.125 239.891 80.625 242.141 81.625C244.391 82.5938 246.594 83.0781 248.75 83.0781C249.594 83.0781 250.578 82.9531 251.703 82.7031C252.828 82.4531 254.062 82.0469 255.406 81.4844C256.75 80.8906 258.188 80.125 259.719 79.1875C261.281 78.2188 262.906 77.0312 264.594 75.625C264.75 75.7188 264.922 75.8906 265.109 76.1406C265.297 76.3594 265.484 76.6094 265.672 76.8906C265.859 77.1406 266.031 77.3906 266.188 77.6406C266.344 77.8594 266.469 78.0156 266.562 78.1094ZM307.953 44.8281C308.234 45.0156 308.344 45.6406 308.281 46.7031C308.219 47.7344 308.047 48.9375 307.766 50.3125C307.516 51.6875 307.188 53.0781 306.781 54.4844C306.375 55.8594 305.984 56.9688 305.609 57.8125H303.125C302.781 55.2812 302.156 53.3906 301.25 52.1406C300.344 50.8906 299.234 50.2656 297.922 50.2656C297.266 50.2656 296.5 50.5 295.625 50.9688C294.781 51.4375 293.891 52.2031 292.953 53.2656C292.016 54.2969 291.078 55.6562 290.141 57.3438C289.234 59.0312 288.375 61.1094 287.562 63.5781V82.6562C287.562 83.125 288.172 83.6094 289.391 84.1094C290.609 84.6094 292.688 85.0781 295.625 85.5156V88H272.703V85.5156C274.766 85.0469 276.344 84.5938 277.438 84.1562C278.562 83.6875 279.125 83.1875 279.125 82.6562V56.1719C279.125 55.1406 279.094 54.2812 279.031 53.5938C278.969 52.875 278.891 52.2969 278.797 51.8594C278.703 51.4219 278.578 51.0781 278.422 50.8281C278.297 50.5781 278.172 50.375 278.047 50.2188C277.828 50 277.594 49.8281 277.344 49.7031C277.094 49.5469 276.766 49.4219 276.359 49.3281C275.953 49.2344 275.453 49.1719 274.859 49.1406C274.297 49.0781 273.578 49.0156 272.703 48.9531V46.6094C273.953 46.3594 275.125 46.1094 276.219 45.8594C277.312 45.6094 278.359 45.3438 279.359 45.0625C280.359 44.7812 281.328 44.4844 282.266 44.1719C283.234 43.8281 284.188 43.4375 285.125 43L286.859 44.7344L287.469 54.1094C288.312 52.5469 289.234 51.0938 290.234 49.75C291.266 48.4062 292.344 47.2344 293.469 46.2344C294.625 45.2344 295.828 44.4531 297.078 43.8906C298.359 43.2969 299.672 43 301.016 43C302.109 43 303.25 43.1406 304.438 43.4219C305.625 43.7031 306.797 44.1719 307.953 44.8281ZM327.219 82.6094C328.844 82.6094 330.609 82.1875 332.516 81.3438C334.453 80.4688 336.609 79.0156 338.984 76.9844V65.4531C336.609 65.8281 334.641 66.2031 333.078 66.5781C331.516 66.9531 330.219 67.3438 329.188 67.75C328.156 68.125 327.328 68.5312 326.703 68.9688C326.109 69.375 325.578 69.8281 325.109 70.3281C324.297 71.1719 323.641 72.1094 323.141 73.1406C322.641 74.1719 322.391 75.3906 322.391 76.7969C322.391 77.9844 322.562 78.9531 322.906 79.7031C323.25 80.4531 323.672 81.0469 324.172 81.4844C324.672 81.9219 325.203 82.2188 325.766 82.375C326.328 82.5312 326.812 82.6094 327.219 82.6094ZM354.594 83.6875C351.938 85.5312 349.562 86.9531 347.469 87.9531C345.406 88.9219 343.891 89.4062 342.922 89.4062C341.828 89.4062 340.922 88.7031 340.203 87.2969C339.516 85.8906 339.109 83.9531 338.984 81.4844C337.578 82.9219 336.172 84.1406 334.766 85.1406C333.359 86.1406 331.984 86.9688 330.641 87.625C329.328 88.25 328.062 88.7031 326.844 88.9844C325.625 89.2656 324.516 89.4062 323.516 89.4062C322.328 89.4062 321.125 89.2031 319.906 88.7969C318.719 88.4219 317.625 87.8125 316.625 86.9688C315.656 86.125 314.859 85.0469 314.234 83.7344C313.609 82.4219 313.297 80.8594 313.297 79.0469C313.297 76.7656 313.703 74.8438 314.516 73.2812C315.328 71.7188 316.312 70.3594 317.469 69.2031C318.219 68.4531 319.078 67.7344 320.047 67.0469C321.016 66.3594 322.281 65.7031 323.844 65.0781C325.438 64.4531 327.438 63.8594 329.844 63.2969C332.281 62.7031 335.328 62.125 338.984 61.5625V55.3281C338.984 54.2969 338.875 53.3438 338.656 52.4688C338.438 51.5625 338.047 50.7969 337.484 50.1719C336.922 49.5156 336.172 49.0156 335.234 48.6719C334.297 48.2969 333.125 48.125 331.719 48.1562C330.781 48.1562 329.875 48.3125 329 48.625C328.125 48.9375 327.344 49.3594 326.656 49.8906C325.969 50.4219 325.438 51.0781 325.062 51.8594C324.688 52.6094 324.547 53.4531 324.641 54.3906C324.672 54.5781 324.484 54.7969 324.078 55.0469C323.703 55.2969 323.203 55.5469 322.578 55.7969C321.984 56.0469 321.312 56.2812 320.562 56.5C319.844 56.7188 319.125 56.9062 318.406 57.0625C317.719 57.2188 317.078 57.3438 316.484 57.4375C315.922 57.5 315.516 57.5 315.266 57.4375L314.516 55.375C315.234 53.7188 316.359 52.1406 317.891 50.6406C319.422 49.1406 321.172 47.8281 323.141 46.7031C325.109 45.5781 327.219 44.6875 329.469 44.0312C331.719 43.3438 333.938 43 336.125 43C339.844 43 342.656 43.9531 344.562 45.8594C346.469 47.7656 347.422 50.3281 347.422 53.5469V78.7188C347.422 80.0312 347.594 80.9688 347.938 81.5312C348.281 82.0938 348.734 82.375 349.297 82.375C349.734 82.375 350.281 82.2969 350.938 82.1406C351.594 81.9844 352.547 81.6406 353.797 81.1094L354.594 83.6875ZM358.344 88V85.5156C360.469 85.0781 362.062 84.6094 363.125 84.1094C364.219 83.5781 364.766 83.0938 364.766 82.6562V56.9219C364.766 55.3281 364.734 54.0469 364.672 53.0781C364.641 52.0781 364.422 51.3125 364.016 50.7812C363.641 50.2188 363.016 49.8125 362.141 49.5625C361.266 49.3125 360 49.1094 358.344 48.9531V46.6094C360.562 46.2344 362.797 45.7344 365.047 45.1094C367.328 44.4844 369.359 43.7812 371.141 43H373.203V82.6562C373.203 83.0312 373.703 83.5 374.703 84.0625C375.734 84.5938 377.391 85.0781 379.672 85.5156V88H358.344ZM374.75 28.8906C374.75 29.8281 374.578 30.7031 374.234 31.5156C373.922 32.3281 373.484 33.0312 372.922 33.625C372.359 34.2188 371.688 34.6875 370.906 35.0312C370.156 35.375 369.344 35.5469 368.469 35.5469C366.969 35.5469 365.797 35.1562 364.953 34.375C364.141 33.5625 363.734 32.375 363.734 30.8125C363.734 29.875 363.891 29 364.203 28.1875C364.547 27.375 365 26.6719 365.562 26.0781C366.125 25.4844 366.781 25.0313 367.531 24.7188C368.281 24.375 369.078 24.2031 369.922 24.2031C371.391 24.2031 372.562 24.5937 373.438 25.375C374.312 26.125 374.75 27.2969 374.75 28.8906ZM414.172 59.875C414.172 58.25 413.922 56.7188 413.422 55.2812C412.922 53.8125 412.172 52.5312 411.172 51.4375C410.172 50.3438 408.938 49.4844 407.469 48.8594C406 48.2344 404.297 47.9219 402.359 47.9219C401.578 47.9219 400.734 48.125 399.828 48.5312C398.922 48.9062 398.078 49.4844 397.297 50.2656C396.516 51.0156 395.859 51.9688 395.328 53.125C394.828 54.25 394.578 55.5781 394.578 57.1094C394.578 58.7344 394.812 60.2812 395.281 61.75C395.75 63.1875 396.469 64.4531 397.438 65.5469C398.406 66.6094 399.625 67.4531 401.094 68.0781C402.594 68.7031 404.359 69.0156 406.391 69.0156C407.297 69.0156 408.203 68.8281 409.109 68.4531C410.047 68.0781 410.891 67.5156 411.641 66.7656C412.391 65.9844 413 65.0312 413.469 63.9062C413.938 62.75 414.172 61.4062 414.172 59.875ZM407.047 88.7969C405.734 88.6406 404.516 88.4688 403.391 88.2812C402.297 88.0938 401.25 87.8906 400.25 87.6719C398.312 88.7969 396.781 89.8125 395.656 90.7188C394.531 91.6562 393.672 92.4844 393.078 93.2031C392.516 93.9531 392.156 94.6094 392 95.1719C391.844 95.7656 391.766 96.3125 391.766 96.8125C391.766 98.0312 392.172 99.1875 392.984 100.281C393.828 101.375 394.969 102.328 396.406 103.141C397.844 103.953 399.516 104.594 401.422 105.062C403.328 105.562 405.344 105.812 407.469 105.812C409.469 105.812 411.266 105.547 412.859 105.016C414.484 104.484 415.844 103.766 416.938 102.859C418.031 101.953 418.875 100.875 419.469 99.625C420.062 98.375 420.359 97.0312 420.359 95.5938C420.359 94.8125 420.172 94.0781 419.797 93.3906C419.422 92.7031 418.734 92.0625 417.734 91.4688C416.766 90.9062 415.422 90.3906 413.703 89.9219C411.984 89.4844 409.766 89.1094 407.047 88.7969ZM422.141 57.9531C422.141 60.3594 421.594 62.5625 420.5 64.5625C419.438 66.5312 418.031 68.2344 416.281 69.6719C414.531 71.0781 412.516 72.1875 410.234 73C407.953 73.7812 405.625 74.1719 403.25 74.1719H402.969C401.594 75.3594 400.656 76.3438 400.156 77.125C399.688 77.9062 399.453 78.3906 399.453 78.5781C399.453 78.9219 399.594 79.2656 399.875 79.6094C400.156 79.9219 400.703 80.2344 401.516 80.5469C402.359 80.8594 403.531 81.1719 405.031 81.4844C406.562 81.7656 408.547 82.0625 410.984 82.375C414.484 82.7812 417.375 83.3594 419.656 84.1094C421.938 84.8281 423.75 85.6719 425.094 86.6406C426.438 87.5781 427.375 88.625 427.906 89.7812C428.438 90.9375 428.703 92.1406 428.703 93.3906C428.703 95.0156 428.375 96.5938 427.719 98.125C427.062 99.6562 426.156 101.078 425 102.391C423.844 103.734 422.484 104.953 420.922 106.047C419.391 107.141 417.734 108.078 415.953 108.859C414.172 109.641 412.312 110.25 410.375 110.688C408.438 111.125 406.531 111.344 404.656 111.344C403.125 111.344 401.531 111.234 399.875 111.016C398.25 110.828 396.641 110.516 395.047 110.078C393.484 109.641 391.984 109.078 390.547 108.391C389.141 107.734 387.891 106.922 386.797 105.953C385.734 105.016 384.891 103.938 384.266 102.719C383.641 101.531 383.328 100.172 383.328 98.6406C383.328 97.8281 383.484 96.9844 383.797 96.1094C384.109 95.2656 384.703 94.3438 385.578 93.3438C386.484 92.375 387.734 91.3125 389.328 90.1562C390.922 89 393.016 87.7188 395.609 86.3125C393.672 85.5938 392.281 84.8125 391.438 83.9688C390.625 83.0938 390.219 82.2031 390.219 81.2969C390.219 81.0156 390.312 80.6406 390.5 80.1719C390.719 79.7031 391.094 79.1406 391.625 78.4844C392.188 77.8281 392.938 77.0938 393.875 76.2812C394.844 75.4375 396.062 74.5 397.531 73.4688C395.906 73 394.422 72.3594 393.078 71.5469C391.734 70.7031 390.578 69.7031 389.609 68.5469C388.672 67.3594 387.938 66.0312 387.406 64.5625C386.875 63.0938 386.609 61.5 386.609 59.7812C386.609 57.5 387.141 55.3438 388.203 53.3125C389.266 51.25 390.672 49.4688 392.422 47.9688C394.172 46.4375 396.172 45.2344 398.422 44.3594C400.703 43.4531 403.062 43 405.5 43C407.469 43 409.297 43.2812 410.984 43.8438C412.703 44.375 414.266 45.125 415.672 46.0938C418.766 45.75 421.344 45.2656 423.406 44.6406C425.5 44.0156 427.203 43.4688 428.516 43L429.594 44.5C429.25 45.3125 428.875 46.1406 428.469 46.9844C428.094 47.8281 427.578 48.6406 426.922 49.4219C425.797 49.6094 424.656 49.7812 423.5 49.9375C422.375 50.0625 421.109 50.1562 419.703 50.2188C420.484 51.3438 421.078 52.5625 421.484 53.875C421.922 55.1875 422.141 56.5469 422.141 57.9531ZM464.047 74.7344C464.047 76.9531 463.719 78.8594 463.062 80.4531C462.438 82.0156 461.609 83.3438 460.578 84.4375C459.578 85.5312 458.438 86.4062 457.156 87.0625C455.906 87.7188 454.641 88.2188 453.359 88.5625C452.109 88.9062 450.922 89.125 449.797 89.2188C448.703 89.3438 447.812 89.4062 447.125 89.4062C446.281 89.4062 445.359 89.3281 444.359 89.1719C443.359 89.0469 442.312 88.8438 441.219 88.5625C440.156 88.2812 439.062 87.9219 437.938 87.4844C436.812 87.0469 435.734 86.5469 434.703 85.9844C434.484 85.8906 434.328 85.375 434.234 84.4375C434.172 83.4688 434.141 82.3594 434.141 81.1094C434.172 79.8281 434.266 78.5156 434.422 77.1719C434.578 75.8281 434.781 74.7344 435.031 73.8906L437.609 74.4062C437.766 75.8438 438.172 77.1719 438.828 78.3906C439.484 79.5781 440.328 80.625 441.359 81.5312C442.391 82.4062 443.578 83.0938 444.922 83.5938C446.266 84.0938 447.703 84.3438 449.234 84.3438C451.484 84.3438 453.266 83.7656 454.578 82.6094C455.891 81.4219 456.547 79.7812 456.547 77.6875C456.547 76.4375 456.219 75.3281 455.562 74.3594C454.906 73.3906 454.031 72.5 452.938 71.6875C451.875 70.875 450.656 70.1094 449.281 69.3906C447.906 68.6719 446.5 67.9375 445.062 67.1875C443.75 66.5312 442.469 65.8281 441.219 65.0781C439.969 64.2969 438.844 63.4375 437.844 62.5C436.875 61.5312 436.094 60.4688 435.5 59.3125C434.906 58.125 434.609 56.7812 434.609 55.2812C434.609 53.3438 435.031 51.6094 435.875 50.0781C436.719 48.5469 437.828 47.2656 439.203 46.2344C440.578 45.1719 442.156 44.375 443.938 43.8438C445.75 43.2812 447.594 43 449.469 43C450.562 43 451.719 43.0938 452.938 43.2812C454.188 43.4375 455.391 43.6719 456.547 43.9844C457.734 44.2969 458.828 44.6719 459.828 45.1094C460.859 45.5469 461.703 46.0469 462.359 46.6094C462.547 46.7656 462.578 47.2188 462.453 47.9688C462.328 48.6875 462.109 49.5 461.797 50.4062C461.516 51.2812 461.188 52.1406 460.812 52.9844C460.469 53.7969 460.172 54.3594 459.922 54.6719L457.625 54.2969C456.375 51.8906 454.953 50.1562 453.359 49.0938C451.797 48 450.172 47.4531 448.484 47.4531C447.484 47.4531 446.578 47.6094 445.766 47.9219C444.984 48.2344 444.312 48.6406 443.75 49.1406C443.219 49.6094 442.812 50.1562 442.531 50.7812C442.25 51.4062 442.109 52.0469 442.109 52.7031C442.109 53.7031 442.391 54.6094 442.953 55.4219C443.516 56.2031 444.266 56.9531 445.203 57.6719C446.172 58.3594 447.281 59.0312 448.531 59.6875C449.812 60.3438 451.156 61.0469 452.562 61.7969C453.906 62.4844 455.266 63.2188 456.641 64C458.016 64.7812 459.25 65.6875 460.344 66.7188C461.438 67.7188 462.328 68.875 463.016 70.1875C463.703 71.4688 464.047 72.9844 464.047 74.7344ZM470.844 88V85.5156C472.188 85.2969 473.297 85.0781 474.172 84.8594C475.078 84.6094 475.781 84.375 476.281 84.1562C476.812 83.9062 477.188 83.6562 477.406 83.4062C477.625 83.1562 477.734 82.9062 477.734 82.6562V27.7188C477.734 26.3125 477.641 25.2188 477.453 24.4375C477.297 23.6562 476.969 23.0781 476.469 22.7031C476 22.2969 475.344 22.0313 474.5 21.9062C473.688 21.75 472.625 21.5937 471.312 21.4375V19.0938C472.562 18.875 473.75 18.6563 474.875 18.4375C476 18.1875 477.094 17.9219 478.156 17.6406C479.219 17.3594 480.25 17.0312 481.25 16.6562C482.281 16.2812 483.328 15.8438 484.391 15.3438L486.172 17.0312V82.6562C486.172 83.125 486.688 83.6094 487.719 84.1094C488.75 84.6094 490.547 85.0781 493.109 85.5156V88H470.844ZM498.312 88V85.5156C500.438 85.0781 502.031 84.6094 503.094 84.1094C504.188 83.5781 504.734 83.0938 504.734 82.6562V56.9219C504.734 55.3281 504.703 54.0469 504.641 53.0781C504.609 52.0781 504.391 51.3125 503.984 50.7812C503.609 50.2188 502.984 49.8125 502.109 49.5625C501.234 49.3125 499.969 49.1094 498.312 48.9531V46.6094C500.531 46.2344 502.766 45.7344 505.016 45.1094C507.297 44.4844 509.328 43.7812 511.109 43H513.172V82.6562C513.172 83.0312 513.672 83.5 514.672 84.0625C515.703 84.5938 517.359 85.0781 519.641 85.5156V88H498.312ZM514.719 28.8906C514.719 29.8281 514.547 30.7031 514.203 31.5156C513.891 32.3281 513.453 33.0312 512.891 33.625C512.328 34.2188 511.656 34.6875 510.875 35.0312C510.125 35.375 509.312 35.5469 508.438 35.5469C506.938 35.5469 505.766 35.1562 504.922 34.375C504.109 33.5625 503.703 32.375 503.703 30.8125C503.703 29.875 503.859 29 504.172 28.1875C504.516 27.375 504.969 26.6719 505.531 26.0781C506.094 25.4844 506.75 25.0313 507.5 24.7188C508.25 24.375 509.047 24.2031 509.891 24.2031C511.359 24.2031 512.531 24.5937 513.406 25.375C514.281 26.125 514.719 27.2969 514.719 28.8906ZM556.203 74.7344C556.203 76.9531 555.875 78.8594 555.219 80.4531C554.594 82.0156 553.766 83.3438 552.734 84.4375C551.734 85.5312 550.594 86.4062 549.312 87.0625C548.062 87.7188 546.797 88.2188 545.516 88.5625C544.266 88.9062 543.078 89.125 541.953 89.2188C540.859 89.3438 539.969 89.4062 539.281 89.4062C538.438 89.4062 537.516 89.3281 536.516 89.1719C535.516 89.0469 534.469 88.8438 533.375 88.5625C532.312 88.2812 531.219 87.9219 530.094 87.4844C528.969 87.0469 527.891 86.5469 526.859 85.9844C526.641 85.8906 526.484 85.375 526.391 84.4375C526.328 83.4688 526.297 82.3594 526.297 81.1094C526.328 79.8281 526.422 78.5156 526.578 77.1719C526.734 75.8281 526.938 74.7344 527.188 73.8906L529.766 74.4062C529.922 75.8438 530.328 77.1719 530.984 78.3906C531.641 79.5781 532.484 80.625 533.516 81.5312C534.547 82.4062 535.734 83.0938 537.078 83.5938C538.422 84.0938 539.859 84.3438 541.391 84.3438C543.641 84.3438 545.422 83.7656 546.734 82.6094C548.047 81.4219 548.703 79.7812 548.703 77.6875C548.703 76.4375 548.375 75.3281 547.719 74.3594C547.062 73.3906 546.188 72.5 545.094 71.6875C544.031 70.875 542.812 70.1094 541.438 69.3906C540.062 68.6719 538.656 67.9375 537.219 67.1875C535.906 66.5312 534.625 65.8281 533.375 65.0781C532.125 64.2969 531 63.4375 530 62.5C529.031 61.5312 528.25 60.4688 527.656 59.3125C527.062 58.125 526.766 56.7812 526.766 55.2812C526.766 53.3438 527.188 51.6094 528.031 50.0781C528.875 48.5469 529.984 47.2656 531.359 46.2344C532.734 45.1719 534.312 44.375 536.094 43.8438C537.906 43.2812 539.75 43 541.625 43C542.719 43 543.875 43.0938 545.094 43.2812C546.344 43.4375 547.547 43.6719 548.703 43.9844C549.891 44.2969 550.984 44.6719 551.984 45.1094C553.016 45.5469 553.859 46.0469 554.516 46.6094C554.703 46.7656 554.734 47.2188 554.609 47.9688C554.484 48.6875 554.266 49.5 553.953 50.4062C553.672 51.2812 553.344 52.1406 552.969 52.9844C552.625 53.7969 552.328 54.3594 552.078 54.6719L549.781 54.2969C548.531 51.8906 547.109 50.1562 545.516 49.0938C543.953 48 542.328 47.4531 540.641 47.4531C539.641 47.4531 538.734 47.6094 537.922 47.9219C537.141 48.2344 536.469 48.6406 535.906 49.1406C535.375 49.6094 534.969 50.1562 534.688 50.7812C534.406 51.4062 534.266 52.0469 534.266 52.7031C534.266 53.7031 534.547 54.6094 535.109 55.4219C535.672 56.2031 536.422 56.9531 537.359 57.6719C538.328 58.3594 539.438 59.0312 540.688 59.6875C541.969 60.3438 543.312 61.0469 544.719 61.7969C546.062 62.4844 547.422 63.2188 548.797 64C550.172 64.7812 551.406 65.6875 552.5 66.7188C553.594 67.7188 554.484 68.875 555.172 70.1875C555.859 71.4688 556.203 72.9844 556.203 74.7344ZM592.906 81.9062C589.469 84.4375 586.328 86.3281 583.484 87.5781C580.641 88.7969 578.391 89.4062 576.734 89.4062C575.578 89.4062 574.469 89.1719 573.406 88.7031C572.344 88.2656 571.406 87.5625 570.594 86.5938C569.812 85.625 569.188 84.375 568.719 82.8438C568.25 81.3125 568.016 79.4531 568.016 77.2656V49.3281H562.109L560.984 47.875L564.641 44.4062H568.016V33.4375L574.906 27.8594L576.453 29.1719V44.4062H591.453L592.906 45.8594C592.625 46.3281 592.266 46.8281 591.828 47.3594C591.422 47.8906 591 48.3906 590.562 48.8594C590.125 49.3281 589.688 49.75 589.25 50.125C588.844 50.5 588.484 50.7812 588.172 50.9688C587.422 50.5938 586.281 50.2344 584.75 49.8906C583.25 49.5156 581.375 49.3281 579.125 49.3281H576.453V73.1406C576.453 74.9219 576.547 76.4062 576.734 77.5938C576.922 78.7812 577.203 79.75 577.578 80.5C577.953 81.2188 578.438 81.7344 579.031 82.0469C579.625 82.3281 580.328 82.4688 581.141 82.4688C582.234 82.4688 583.578 82.25 585.172 81.8125C586.766 81.3438 588.812 80.4688 591.312 79.1875L592.906 81.9062ZM627.078 37.1875C627.078 39.4375 626.688 41.5625 625.906 43.5625C625.125 45.5625 624.031 47.3125 622.625 48.8125C621.219 50.3125 619.547 51.5 617.609 52.375C615.672 53.2188 613.562 53.6406 611.281 53.6406C609.031 53.6406 606.938 53.2188 605 52.375C603.094 51.5 601.438 50.3125 600.031 48.8125C598.656 47.3125 597.578 45.5625 596.797 43.5625C596.016 41.5625 595.625 39.4375 595.625 37.1875C595.625 34.9062 596.016 32.7656 596.797 30.7656C597.578 28.7656 598.656 27.0312 600.031 25.5625C601.438 24.0625 603.094 22.8906 605 22.0469C606.938 21.1719 609.031 20.7344 611.281 20.7344C613.562 20.7344 615.672 21.1719 617.609 22.0469C619.547 22.8906 621.219 24.0625 622.625 25.5625C624.031 27.0312 625.125 28.7656 625.906 30.7656C626.688 32.7656 627.078 34.9062 627.078 37.1875ZM624.078 37.1875C624.078 35.3438 623.75 33.6094 623.094 31.9844C622.469 30.3281 621.594 28.8906 620.469 27.6719C619.344 26.4531 618 25.5 616.438 24.8125C614.875 24.0938 613.156 23.7344 611.281 23.7344C609.438 23.7344 607.734 24.0938 606.172 24.8125C604.641 25.5 603.312 26.4531 602.188 27.6719C601.062 28.8906 600.172 30.3281 599.516 31.9844C598.891 33.6094 598.578 35.3438 598.578 37.1875C598.578 39.0625 598.891 40.8125 599.516 42.4375C600.172 44.0625 601.062 45.4844 602.188 46.7031C603.312 47.9219 604.641 48.8906 606.172 49.6094C607.734 50.2969 609.438 50.6406 611.281 50.6406C613.156 50.6406 614.875 50.2969 616.438 49.6094C618 48.8906 619.344 47.9219 620.469 46.7031C621.594 45.4844 622.469 44.0625 623.094 42.4375C623.75 40.8125 624.078 39.0625 624.078 37.1875ZM604.156 46.4688V45.5312C605.469 45.25 606.125 44.9688 606.125 44.6875V29.4531C605.781 29.4844 605.453 29.5156 605.141 29.5469C604.828 29.5781 604.5 29.625 604.156 29.6875L604.062 28.2344C604.969 28.0156 605.953 27.8281 607.016 27.6719C608.078 27.5156 609.266 27.4375 610.578 27.4375C613.047 27.4375 614.875 27.875 616.062 28.75C617.25 29.5938 617.844 30.6563 617.844 31.9375C617.844 33.4062 617.422 34.6094 616.578 35.5469C615.734 36.4844 614.609 37.1562 613.203 37.5625L617.891 44.125C618.109 44.4688 618.375 44.7031 618.688 44.8281C619.031 44.9219 619.547 44.9375 620.234 44.875L620.328 45.8594C619.703 46.0469 619.016 46.2344 618.266 46.4219C617.516 46.6094 616.969 46.7031 616.625 46.7031C616.344 46.7031 616.062 46.625 615.781 46.4688C615.531 46.2812 615.344 46.0938 615.219 45.9062L610.531 37.8906H610.344C609.906 37.8906 609.453 37.8438 608.984 37.75V44.6875C608.984 44.8125 609.125 44.9531 609.406 45.1094C609.688 45.2344 610.188 45.375 610.906 45.5312V46.4688H604.156ZM610.062 29.125H609.5C609.344 29.125 609.172 29.1406 608.984 29.1719V35.9688C609.203 36.0312 609.391 36.0625 609.547 36.0625H610.156C611.75 36.0625 612.891 35.75 613.578 35.125C614.297 34.4688 614.656 33.5469 614.656 32.3594C614.656 31.4531 614.312 30.6875 613.625 30.0625C612.938 29.4375 611.75 29.125 610.062 29.125Z" fill="#005925"/>
</svg>
