<svg width="28" height="28" viewBox="0 0 28 28" fill="none" xmlns="http://www.w3.org/2000/svg">
<path d="M27 13.9034C27 21.0233 21.1862 26.8069 14 26.8069C6.81376 26.8069 1 21.0233 1 13.9034C1 6.78358 6.81376 1 14 1C21.1862 1 27 6.78358 27 13.9034Z" stroke="#B76E79" stroke-width="2"/>
<path d="M8.07783 20.4911C7.09383 20.4911 6.16983 20.3591 5.30583 20.0951C4.45383 19.8311 3.72783 19.4531 3.12783 18.9611L3.91983 17.2691C4.54383 17.7371 5.19183 18.0851 5.86383 18.3131C6.54783 18.5291 7.29183 18.6371 8.09583 18.6371C8.98383 18.6371 9.66783 18.4811 10.1478 18.1691C10.6398 17.8571 10.8858 17.4191 10.8858 16.8551C10.8858 16.3751 10.6578 16.0091 10.2018 15.7571C9.75783 15.4931 9.01983 15.2471 7.98783 15.0191C6.37983 14.6711 5.20983 14.2211 4.47783 13.6691C3.74583 13.1171 3.37983 12.3131 3.37983 11.2571C3.37983 10.5011 3.58383 9.8291 3.99183 9.2411C4.39983 8.6531 4.97583 8.1911 5.71983 7.8551C6.47583 7.5191 7.34583 7.3511 8.32983 7.3511C9.22983 7.3511 10.0818 7.4891 10.8858 7.7651C11.7018 8.0291 12.3678 8.4011 12.8838 8.8811L12.1098 10.5731C10.9698 9.6611 9.70983 9.2051 8.32983 9.2051C7.50183 9.2051 6.84783 9.3791 6.36783 9.7271C5.88783 10.0631 5.64783 10.5251 5.64783 11.1131C5.64783 11.6171 5.85783 12.0011 6.27783 12.2651C6.70983 12.5291 7.44183 12.7751 8.47383 13.0031C9.54183 13.2551 10.4118 13.5311 11.0838 13.8311C11.7558 14.1191 12.2718 14.4971 12.6318 14.9651C12.9918 15.4211 13.1718 15.9971 13.1718 16.6931C13.1718 17.4611 12.9678 18.1331 12.5598 18.7091C12.1518 19.2731 11.5638 19.7111 10.7958 20.0231C10.0278 20.3351 9.12183 20.4911 8.07783 20.4911ZM18.0661 9.4211H13.8901V7.5131H24.6001V9.4211H20.4061V20.3291H18.0661V9.4211Z" fill="#B76E79"/>
</svg>
