<svg width="28" height="44" viewBox="0 0 28 44" fill="none" xmlns="http://www.w3.org/2000/svg">
<path fill-rule="evenodd" clip-rule="evenodd" d="M0.0552963 16.275C0.018702 15.8283 0 15.3759 0 14.9188C0 6.67935 6.07214 0 13.5625 0C21.0529 0 27.125 6.67935 27.125 14.9188C27.125 15.3759 27.1063 15.8283 27.0697 16.275H27.125C27.125 24.4281 13.5625 43.4 13.5625 43.4C13.5625 43.4 0 24.4731 0 16.275H0.0552963ZM13.5625 18.9875C16.5586 18.9875 18.9875 16.5586 18.9875 13.5625C18.9875 10.5664 16.5586 8.1375 13.5625 8.1375C10.5664 8.1375 8.1375 10.5664 8.1375 13.5625C8.1375 16.5586 10.5664 18.9875 13.5625 18.9875Z" fill="#B76E79"/>
</svg>
