<svg width="72" height="122" viewBox="0 0 72 122" fill="none" xmlns="http://www.w3.org/2000/svg">
<path d="M38.0583 53.324C36.0903 53.324 34.2423 53.06 32.5143 52.532C30.8103 52.004 29.3583 51.248 28.1583 50.264L29.7423 46.88C30.9903 47.816 32.2863 48.512 33.6303 48.968C34.9983 49.4 36.4863 49.616 38.0943 49.616C39.8703 49.616 41.2383 49.304 42.1983 48.68C43.1823 48.056 43.6743 47.18 43.6743 46.052C43.6743 45.092 43.2183 44.36 42.3063 43.856C41.4183 43.328 39.9423 42.836 37.8783 42.38C34.6623 41.684 32.3223 40.784 30.8583 39.68C29.3943 38.576 28.6623 36.968 28.6623 34.856C28.6623 33.344 29.0703 32 29.8863 30.824C30.7023 29.648 31.8543 28.724 33.3423 28.052C34.8543 27.38 36.5943 27.044 38.5623 27.044C40.3623 27.044 42.0663 27.32 43.6743 27.872C45.3063 28.4 46.6383 29.144 47.6703 30.104L46.1223 33.488C43.8423 31.664 41.3223 30.752 38.5623 30.752C36.9063 30.752 35.5983 31.1 34.6383 31.796C33.6783 32.468 33.1983 33.392 33.1983 34.568C33.1983 35.576 33.6183 36.344 34.4583 36.872C35.3223 37.4 36.7863 37.892 38.8503 38.348C40.9863 38.852 42.7263 39.404 44.0703 40.004C45.4143 40.58 46.4463 41.336 47.1663 42.272C47.8863 43.184 48.2463 44.336 48.2463 45.728C48.2463 47.264 47.8383 48.608 47.0223 49.76C46.2063 50.888 45.0303 51.764 43.4943 52.388C41.9583 53.012 40.1463 53.324 38.0583 53.324ZM35.5701 76.184H27.2181V72.368H48.6381V76.184H40.2501V98H35.5701V76.184Z" fill="#B9459E"/>
<rect x="8.5" y="8.5" width="62" height="112" stroke="#B9459E" stroke-width="3"/>
<rect x="1.5" y="1.5" width="62" height="112" stroke="#B9459E" stroke-width="3"/>
</svg>
