<svg width="103" height="103" viewBox="0 0 103 103" fill="none" xmlns="http://www.w3.org/2000/svg">
<path d="M85.8345 73.3196V68.6355C85.8345 66.3603 84.9302 64.1782 83.3207 62.5693C81.7111 60.9605 79.5281 60.0566 77.2519 60.0566C74.9756 60.0566 72.7926 60.9605 71.183 62.5693C69.5735 64.1782 68.6692 66.3603 68.6692 68.6355V73.3196C67.4185 73.7616 66.335 74.5791 65.5668 75.6602C64.7987 76.7412 64.3834 78.0332 64.3779 79.3592V87.9381C64.3779 89.6445 65.0561 91.2811 66.2633 92.4877C67.4704 93.6944 69.1077 94.3722 70.8149 94.3722H83.6888C85.396 94.3722 87.0333 93.6944 88.2404 92.4877C89.4476 91.2811 90.1258 89.6445 90.1258 87.9381V79.3592C90.1203 78.0332 89.7051 76.7412 88.9369 75.6602C88.1688 74.5791 87.0852 73.7616 85.8345 73.3196ZM77.2519 64.3461C78.39 64.3461 79.4815 64.798 80.2863 65.6024C81.0911 66.4069 81.5432 67.4979 81.5432 68.6355V72.925H72.9606V68.6355C72.9606 67.4979 73.4127 66.4069 74.2174 65.6024C75.0222 64.798 76.1137 64.3461 77.2519 64.3461ZM85.8345 87.9381C85.8345 88.5069 85.6084 89.0524 85.206 89.4546C84.8036 89.8568 84.2579 90.0828 83.6888 90.0828H70.8149C70.2458 90.0828 69.7001 89.8568 69.2977 89.4546C68.8953 89.0524 68.6692 88.5069 68.6692 87.9381V79.3592C68.6692 78.7903 68.8953 78.2448 69.2977 77.8426C69.7001 77.4404 70.2458 77.2144 70.8149 77.2144H83.6888C84.2579 77.2144 84.8036 77.4404 85.206 77.8426C85.6084 78.2448 85.8345 78.7903 85.8345 79.3592V87.9381Z" fill="#D178BD"/>
<path d="M79.3978 81.5039H75.1064V85.7934H79.3978V81.5039Z" fill="#D178BD"/>
<path d="M96.5627 51.4808H86.7227L78.7687 43.5303C78.3664 43.1282 77.8207 42.9023 77.2518 42.9023C76.6828 42.9023 76.1372 43.1282 75.7348 43.5303L67.7808 51.4808H57.9409C56.2337 51.4808 54.5964 52.1587 53.3892 53.3653C52.1821 54.5719 51.5039 56.2085 51.5039 57.915V96.52C51.5039 98.2264 52.1821 99.863 53.3892 101.07C54.5964 102.276 56.2337 102.954 57.9409 102.954H96.5627C98.2699 102.954 99.9071 102.276 101.114 101.07C102.321 99.863 103 98.2264 103 96.52V57.915C103 56.2085 102.321 54.5719 101.114 53.3653C99.9071 52.1587 98.2699 51.4808 96.5627 51.4808ZM98.7083 96.52C98.7083 97.0888 98.4823 97.6343 98.0799 98.0365C97.6775 98.4388 97.1317 98.6647 96.5627 98.6647H57.9409C57.3718 98.6647 56.8261 98.4388 56.4237 98.0365C56.0213 97.6343 55.7952 97.0888 55.7952 96.52V57.915C55.7952 57.3461 56.0213 56.8006 56.4237 56.3984C56.8261 55.9962 57.3718 55.7702 57.9409 55.7702H68.6691C69.2382 55.7701 69.7838 55.5441 70.1861 55.1418L77.2518 48.0792L84.3174 55.1418C84.7197 55.5441 85.2654 55.7701 85.8344 55.7702H96.5627C97.1317 55.7702 97.6775 55.9962 98.0799 56.3984C98.4823 56.8006 98.7083 57.3461 98.7083 57.915V96.52Z" fill="#FFB13B"/>
<path d="M40.7745 69.8941V55.769C40.7745 54.0625 40.0964 52.426 38.8892 51.2193C37.682 50.0127 36.0448 49.3348 34.3376 49.3348H15.0267C13.5896 49.3355 12.167 49.0476 10.8434 48.4881C9.51973 47.9287 8.32203 47.1091 7.32138 46.0781C6.32072 45.047 5.5375 43.8256 5.01821 42.4862C4.49892 41.1467 4.25413 39.7167 4.2984 38.2809C4.47744 35.4321 5.74846 32.762 7.84701 30.8262C9.94556 28.8903 12.71 27.8378 15.5652 27.8876H17.1723C17.7414 27.8876 18.2871 27.6616 18.6895 27.2594C19.0919 26.8572 19.318 26.3117 19.318 25.7428C19.3227 20.2438 21.4405 14.9566 25.2337 10.9736C29.0269 6.9907 34.2057 4.6163 39.7003 4.34099C45.1949 4.06568 50.5853 5.91049 54.758 9.4943C58.9307 13.0781 61.5668 18.1271 62.1217 23.5981H38.6289V27.8876H66.5224C69.3667 27.891 72.0935 29.0219 74.1047 31.0322C76.1159 33.0425 77.2473 35.7681 77.2507 38.6112H81.542C81.5375 34.6309 79.9536 30.8149 77.1378 28.0004C74.3221 25.1858 70.5045 23.6027 66.5224 23.5981H66.4323C65.8956 17.1649 62.9598 11.1681 58.2071 6.79709C53.4544 2.42606 47.2319 0 40.7735 0C34.3151 0 28.0925 2.42606 23.3398 6.79709C18.5871 11.1681 15.6513 17.1649 15.1146 23.5981C11.2226 23.6656 7.50051 25.2041 4.6975 27.904C1.8945 30.6039 0.218602 34.2648 0.00708665 38.1501C-0.0547054 40.1601 0.288118 42.162 1.01521 44.037C1.7423 45.9121 2.83884 47.622 4.23974 49.0653C5.64064 50.5086 7.31734 51.6558 9.17034 52.439C11.0233 53.2221 13.0148 53.6252 15.0267 53.6243H34.3376C34.9066 53.6243 35.4524 53.8502 35.8548 54.2524C36.2572 54.6546 36.4832 55.2002 36.4832 55.769V69.8941L31.5632 64.9763L28.5293 68.0089L37.1119 76.5878C37.5142 76.9901 38.0599 77.2161 38.6289 77.2162C38.9102 77.2191 39.1891 77.1634 39.4477 77.0526C39.7063 76.9418 39.9389 76.7784 40.1308 76.5728L40.1437 76.5857L48.7263 68.0068L45.6924 64.9741L40.7745 69.8941Z" fill="#7EC0EE"/>
</svg>
